<svg xmlns="http://www.w3.org/2000/svg">
<defs>
<font
       horiz-adv-x="180"
       id="font1"
       inkscape:label="font 1"
       horiz-origin-x="0"
       horiz-origin-y="0"
       vert-origin-x="512"
       vert-origin-y="768"
       vert-adv-y="1024">
      <font-face
         units-per-em="1024"
         ascent="750"
         cap-height="700"
         x-height="500"
         descent="200"
         id="font-face1"
         font-family="Metaball" />
      <missing-glyph
         d="M 67.5,900 A 67.5,67.5 0 0 1 0,832.5 v -565 A 67.5,67.5 0 0 1 67.5,200 67.5,67.5 0 0 1 135,267.5 v 565 A 67.5,67.5 0 0 1 67.5,900 Z"
         id="missing-glyph1" />
      <glyph
         glyph-name="exclamation"
         unicode="!"
         id="glyph1"
         d="M 22.5,900 A 22.5,22.5 0 0 1 0,877.5 v -565 A 22.5,22.5 0 0 1 22.5,290 22.5,22.5 0 0 1 45,312.5 v 565 A 22.5,22.5 0 0 1 22.5,900 Z m 0,-655 A 22.5,22.5 0 0 1 0,222.5 22.5,22.5 0 0 1 22.5,200 22.5,22.5 0 0 1 45,222.5 22.5,22.5 0 0 1 22.5,245 Z"
         horiz-adv-x="90" />
      <glyph
         glyph-name="double_quote"
         unicode="&quot;"
         id="glyph147"
         d="M 22.5,900 A 22.5,22.5 0 0 1 0,877.5 v -155 A 22.5,22.5 0 0 1 22.5,700 22.5,22.5 0 0 1 45,722.5 v 155 A 22.5,22.5 0 0 1 22.5,900 Z m 90,0 A 22.5,22.5 0 0 1 89.999999,877.5 v -155 A 22.5,22.5 0 0 1 112.5,700 22.5,22.5 0 0 1 135,722.5 v 155 A 22.5,22.5 0 0 1 112.5,900 Z" />
      <glyph
         glyph-name="hastag"
         unicode="#"
         id="glyph148"
         d="M 90,700 A 22.5,22.5 0 0 1 67.5,677.5 V 540 A 22.5,22.5 0 0 0 45,517.5 H 22.5 A 22.5,22.5 0 0 1 0,495 22.5,22.5 0 0 1 22.5,472.5 H 45 A 22.5,22.5 0 0 0 67.5,450 22.5,22.5 0 0 0 45,427.5 H 22.5 A 22.5,22.5 0 0 1 0,405 22.5,22.5 0 0 1 22.5,382.5 H 45 A 22.5,22.5 0 0 0 67.5,360 V 222.5 A 22.5,22.5 0 0 1 90,200 22.5,22.5 0 0 1 112.5,222.5 V 360 A 22.5,22.5 0 0 0 135,382.5 22.5,22.5 0 0 0 157.5,360 V 222.5 A 22.5,22.5 0 0 1 180,200 22.5,22.5 0 0 1 202.5,222.5 V 360 a 22.5,22.5 0 0 0 22.5,22.5 h 22.5 A 22.5,22.5 0 0 1 270,405 22.5,22.5 0 0 1 247.5,427.5 H 225 A 22.5,22.5 0 0 0 202.5,450 22.5,22.5 0 0 0 225,472.5 h 22.5 A 22.5,22.5 0 0 1 270,495 22.5,22.5 0 0 1 247.5,517.5 H 225 A 22.5,22.5 0 0 0 202.5,540 V 677.5 A 22.5,22.5 0 0 1 180,700 22.5,22.5 0 0 1 157.5,677.5 V 540 A 22.5,22.5 0 0 0 135,517.5 22.5,22.5 0 0 0 112.5,540 V 677.5 A 22.5,22.5 0 0 1 90,700 Z M 135,472.5 A 22.5,22.5 0 0 0 157.5,450 22.5,22.5 0 0 0 135,427.5 22.5,22.5 0 0 0 112.5,450 22.5,22.5 0 0 0 135,472.5 Z"
         horiz-adv-x="315" />
      <glyph
         glyph-name="dollar"
         unicode="$"
         id="glyph149"
         d="M 112.5,967.5 A 22.5,22.5 0 0 1 90,945 V 922.5 A 22.5,22.5 0 0 0 67.5,900 67.5,67.5 0 0 1 0,832.5 V 700 A 67.5,67.5 0 0 1 67.5,632.5 22.5,22.5 0 0 0 90,610 V 267.5 A 22.5,22.5 0 0 0 67.5,245 22.5,22.5 0 0 0 45,267.5 v 45 A 22.5,22.5 0 0 1 22.5,335 22.5,22.5 0 0 1 0,312.5 v -45 A 67.5,67.5 0 0 1 67.5,200 22.5,22.5 0 0 0 90,177.5 V 155 A 22.5,22.5 0 0 1 112.5,132.5 22.5,22.5 0 0 1 135,155 v 22.5 A 22.5,22.5 0 0 0 157.5,200 67.5,67.5 0 0 1 225,267.5 V 610 A 67.5,67.5 0 0 1 157.5,677.5 22.5,22.5 0 0 0 135,700 V 832.5 A 22.5,22.5 0 0 0 157.5,855 22.5,22.5 0 0 0 180,832.5 v -45 A 22.5,22.5 0 0 1 202.5,765 22.5,22.5 0 0 1 225,787.5 v 45 A 67.5,67.5 0 0 1 157.5,900 22.5,22.5 0 0 0 135,922.5 V 945 a 22.5,22.5 0 0 1 -22.5,22.5 z M 67.5,855 A 22.5,22.5 0 0 0 90,832.5 V 700 A 22.5,22.5 0 0 0 67.5,677.5 22.5,22.5 0 0 0 45,700 V 832.5 A 22.5,22.5 0 0 0 67.5,855 Z m 90,-222.5 A 22.5,22.5 0 0 0 180,610 V 267.5 A 22.5,22.5 0 0 0 157.5,245 22.5,22.5 0 0 0 135,267.5 V 610 a 22.5,22.5 0 0 0 22.5,22.5 z"
         horiz-adv-x="270" />
      <glyph
         glyph-name="percent"
         unicode="%"
         id="glyph150"
         d="M 22.5,900 A 22.5,22.5 0 0 1 0,877.5 22.5,22.5 0 0 1 22.5,855 22.5,22.5 0 0 1 45,877.5 22.5,22.5 0 0 1 22.5,900 Z m 90,0 A 22.5,22.5 0 0 1 90,877.5 V 700 A 22.5,22.5 0 0 0 67.5,677.5 67.5,67.5 0 0 1 0,610 V 222.5 A 22.5,22.5 0 0 1 22.5,200 22.5,22.5 0 0 1 45,222.5 V 610 A 22.5,22.5 0 0 0 67.5,632.5 67.5,67.5 0 0 1 135,700 V 877.5 A 22.5,22.5 0 0 1 112.5,900 Z m 0,-655 A 22.5,22.5 0 0 1 90,222.5 22.5,22.5 0 0 1 112.5,200 22.5,22.5 0 0 1 135,222.5 22.5,22.5 0 0 1 112.5,245 Z" />
      <glyph
         glyph-name="ampersand"
         unicode="&amp;"
         id="glyph151"
         d="M 157.5,900 A 67.5,67.5 0 0 1 89.999999,832.5 V 700 A 22.5,22.5 0 0 0 67.5,677.5 67.5,67.5 0 0 1 0,610 V 267.5 A 67.5,67.5 0 0 1 67.5,200 22.5,22.5 0 0 0 89.999999,177.5 V 155 A 22.5,22.5 0 0 1 112.5,132.5 22.5,22.5 0 0 1 135,155 v 22.5 a 22.5,22.5 0 0 0 22.5,22.5 67.5,67.5 0 0 1 67.5,67.5 v 45 A 22.5,22.5 0 0 1 202.5,335 22.5,22.5 0 0 1 180,312.5 v -45 A 22.5,22.5 0 0 0 157.5,245 22.5,22.5 0 0 0 135,267.5 V 610 A 22.5,22.5 0 0 0 157.5,632.5 67.5,67.5 0 0 1 225,700 V 832.5 A 67.5,67.5 0 0 1 157.5,900 Z m 0,-45 A 22.5,22.5 0 0 0 180,832.5 V 700 A 22.5,22.5 0 0 0 157.5,677.5 22.5,22.5 0 0 0 135,700 V 832.5 A 22.5,22.5 0 0 0 157.5,855 Z M 67.5,632.5 A 22.5,22.5 0 0 0 89.999999,610 V 267.5 A 22.5,22.5 0 0 0 67.5,245 22.5,22.5 0 0 0 45,267.5 V 610 a 22.5,22.5 0 0 0 22.5,22.5 z"
         horiz-adv-x="279" />
      <glyph
         glyph-name="single_quote"
         unicode="'"
         id="glyph152"
         d="M 22.5,900 A 22.5,22.5 0 0 1 0,877.5 v -155 A 22.5,22.5 0 0 1 22.5,700 22.5,22.5 0 0 1 45,722.5 v 155 A 22.5,22.5 0 0 1 22.5,900 Z"
         horiz-adv-x="90" />
      <glyph
         glyph-name="parentheses_open"
         unicode="("
         id="glyph153"
         horiz-adv-x="180"
         d="M 67.5,1034.9375 A 67.5,67.5 0 0 1 0,967.4375 v -835 A 67.5,67.5 0 0 1 67.5,64.93755 67.5,67.5 0 0 1 135,132.4375 h -0.002 a 22.5,22.5 0 0 1 0.002,0.0312 22.5,22.5 0 0 1 -22.5,22.5 22.5,22.5 0 0 1 -22.5,-22.5 22.5,22.5 0 0 1 0.002,-0.0312 H 90 a 22.5,22.5 0 0 0 -22.5,-22.5 22.5,22.5 0 0 0 -22.5,22.5 v 835 a 22.5,22.5 0 0 0 22.5,22.5 22.5,22.5 0 0 0 22.5,-22.5 h 0.002 A 22.5,22.5 0 0 1 112.5,944.96875 22.5,22.5 0 0 1 134.99805,967.4375 H 135 a 67.5,67.5 0 0 1 -0.002,0.0156 22.5,22.5 0 0 1 0.002,0.0156 22.5,22.5 0 0 1 -0.18945,2.86914 A 67.5,67.5 0 0 1 67.5,1034.9375 Z" />
      <glyph
         glyph-name="parentheses_close"
         unicode=")"
         id="glyph154"
         d="M 67.5,1034.9689 A 67.5,67.5 0 0 1 0.02539063,967.85559 22.5,22.5 0 0 1 0,967.50012 22.5,22.5 0 0 1 0.00195313,967.4845 67.5,67.5 0 0 1 0,967.46887 H 0.00195313 A 22.5,22.5 0 0 1 22.5,945.00012 22.5,22.5 0 0 1 44.998047,967.46887 H 45 a 22.5,22.5 0 0 0 22.5,22.5 22.5,22.5 0 0 0 22.5,-22.5 v -835 a 22.5,22.5 0 0 0 -22.5,-22.5 22.5,22.5 0 0 0 -22.5,22.5 h -0.002 a 22.5,22.5 0 0 1 0.002,0.0312 22.5,22.5 0 0 1 -22.5,22.5 22.5,22.5 0 0 1 -22.5,-22.5 22.5,22.5 0 0 1 0.00195313,-0.0312 H 0 a 67.5,67.5 0 0 1 67.5,-67.5 67.5,67.5 0 0 1 67.5,67.5 v 835 a 67.5,67.5 0 0 1 -67.5,67.50003 z"
         horiz-adv-x="180" />
      <glyph
         glyph-name="star"
         unicode="*"
         id="glyph155"
         d="M 89.999995,900 A 22.5,22.5 0 0 1 67.5,877.5 V 845 A 22.5,22.5 0 0 0 45,822.5 H 22.5 A 22.5,22.5 0 0 1 0,800 22.5,22.5 0 0 1 22.5,777.5 H 45 A 22.5,22.5 0 0 0 67.5,755 V 722.5 A 22.5,22.5 0 0 1 89.999995,700 22.5,22.5 0 0 1 112.5,722.5 V 755 a 22.5,22.5 0 0 0 22.5,22.5 h 22.5 A 22.5,22.5 0 0 1 180,800 22.5,22.5 0 0 1 157.5,822.5 H 135 A 22.5,22.5 0 0 0 112.5,845 v 32.5 A 22.5,22.5 0 0 1 89.999995,900 Z"
         horiz-adv-x="225" />
      <glyph
         glyph-name="plus"
         unicode="+"
         id="glyph156"
         d="M 90.000003,539.99998 A 22.5,22.5 0 0 1 67.5,517.49998 v -22.5 a 22.5,22.5 0 0 0 -22.5,-22.5 H 22.5 a 22.5,22.5 0 0 1 -22.5,-22.5 22.5,22.5 0 0 1 22.5,-22.5 H 45 a 22.5,22.5 0 0 0 22.5,-22.5 v -22.5 a 22.5,22.5 0 0 1 22.500003,-22.5 22.5,22.5 0 0 1 22.499997,22.5 v 22.5 a 22.5,22.5 0 0 0 22.5,22.5 h 22.5 a 22.5,22.5 0 0 1 22.5,22.5 22.5,22.5 0 0 1 -22.5,22.5 H 135 a 22.5,22.5 0 0 0 -22.5,22.5 v 22.5 a 22.5,22.5 0 0 1 -22.499997,22.5 z"
         horiz-adv-x="225" />
      <glyph
         glyph-name="comma"
         unicode=","
         id="glyph157"
         d="M 22.5,300 A 22.5,22.5 0 0 1 0,277.5 v -155 A 22.5,22.5 0 0 1 22.5,100 22.5,22.5 0 0 1 45,122.5 v 155 A 22.5,22.5 0 0 1 22.5,300 Z"
         horiz-adv-x="90" />
      <glyph
         glyph-name="minus"
         unicode="-"
         id="glyph158"
         d="m 22.5,472.49998 a 22.5,22.5 0 0 1 -22.5,-22.5 22.5,22.5 0 0 1 22.5,-22.5 h 131.49999 v 0.29296 a 22.5,22.5 0 0 1 3.5,-0.29296 22.5,22.5 0 0 1 22.5,22.5 22.5,22.5 0 0 1 -22.5,22.5 22.5,22.5 0 0 1 -3.5,-0.29493 v 0.29493 z"
         horiz-adv-x="225" />
      <glyph
         glyph-name="dot"
         unicode="."
         id="glyph159"
         d="M 22.5,245 A 22.5,22.5 0 0 1 0,222.5 22.5,22.5 0 0 1 22.5,200 22.5,22.5 0 0 1 45,222.5 22.5,22.5 0 0 1 22.5,245 Z"
         horiz-adv-x="90" />
      <glyph
         glyph-name="slash"
         unicode="/"
         id="glyph160"
         d="M 112.5,900 A 22.5,22.5 0 0 1 90,877.5 V 700 A 22.5,22.5 0 0 0 67.5,677.5 67.5,67.5 0 0 1 0,610 V 222.5 A 22.5,22.5 0 0 1 22.5,200 22.5,22.5 0 0 1 45,222.5 V 610 A 22.5,22.5 0 0 0 67.5,632.5 67.5,67.5 0 0 1 135,700 V 877.5 A 22.5,22.5 0 0 1 112.5,900 Z" />
      <glyph
         glyph-name="zero"
         unicode="0"
         id="glyph161"
         d="M 67.5,900 A 67.5,67.5 0 0 1 0,832.5 v -565 A 67.5,67.5 0 0 1 67.5,200 67.5,67.5 0 0 1 135,267.5 v 565 A 67.5,67.5 0 0 1 67.5,900 Z m 0,-45 A 22.5,22.5 0 0 0 90,832.5 v -565 A 22.5,22.5 0 0 0 67.5,245 22.5,22.5 0 0 0 45,267.5 v 565 A 22.5,22.5 0 0 0 67.5,855 Z" />
      <glyph
         glyph-name="one"
         unicode="1"
         id="glyph162"
         d="M 22.499999,900 A 22.5,22.5 0 0 1 0,877.5 v -655 a 22.5,22.5 0 0 1 22.499999,-22.5 22.5,22.5 0 0 1 22.5,22.5 v 655 a 22.5,22.5 0 0 1 -22.5,22.5 z"
         horiz-adv-x="90" />
      <glyph
         glyph-name="two"
         unicode="2"
         id="glyph163"
         d="M 22.5,900 A 22.5,22.5 0 0 1 0,877.5 22.5,22.5 0 0 1 22.5,855 h 45 A 22.5,22.5 0 0 0 90,832.5 V 700 A 22.5,22.5 0 0 0 67.5,677.5 67.5,67.5 0 0 1 0,610 V 267.5 A 67.5,67.5 0 0 1 67.5,200 h 45 A 22.5,22.5 0 0 1 135,222.5 22.5,22.5 0 0 1 112.5,245 h -45 A 22.5,22.5 0 0 0 45,267.5 V 610 A 22.5,22.5 0 0 0 67.5,632.5 67.5,67.5 0 0 1 135,700 V 832.5 A 67.5,67.5 0 0 1 67.5,900 Z" />
      <glyph
         glyph-name="three"
         unicode="3"
         id="glyph164"
         d="M 22.5,900 A 22.5,22.5 0 0 1 0,877.5 22.5,22.5 0 0 1 22.5,855 h 45 A 22.5,22.5 0 0 0 90,832.5 V 700 A 22.5,22.5 0 0 0 67.5,677.5 h -45 A 22.5,22.5 0 0 1 0,655 22.5,22.5 0 0 1 22.5,632.5 h 45 A 22.5,22.5 0 0 0 90,610 V 267.5 A 22.5,22.5 0 0 0 67.5,245 h -45 A 22.5,22.5 0 0 1 0,222.5 22.5,22.5 0 0 1 22.5,200 h 45 a 67.5,67.5 0 0 1 67.5,67.5 v 565 A 67.5,67.5 0 0 1 67.5,900 Z" />
      <glyph
         glyph-name="four"
         unicode="4"
         id="glyph165"
         d="M 22.5,900 A 22.5,22.5 0 0 1 0,877.5 V 700 A 67.5,67.5 0 0 1 67.5,632.5 22.5,22.5 0 0 0 90,610 V 222.5 A 22.5,22.5 0 0 1 112.5,200 22.5,22.5 0 0 1 135,222.5 v 655 A 22.5,22.5 0 0 1 112.5,900 22.5,22.5 0 0 1 90,877.5 V 700 A 22.5,22.5 0 0 0 67.5,677.5 22.5,22.5 0 0 0 45,700 V 877.5 A 22.5,22.5 0 0 1 22.5,900 Z" />
      <glyph
         glyph-name="five"
         unicode="5"
         id="glyph166"
         d="M 67.5,900 A 67.5,67.5 0 0 1 0,832.5 V 700 A 67.5,67.5 0 0 1 67.5,632.5 22.5,22.5 0 0 0 90,610 V 267.5 A 22.5,22.5 0 0 0 67.5,245 22.5,22.5 0 0 0 45,267.5 v 45 A 22.5,22.5 0 0 1 22.5,335 22.5,22.5 0 0 1 0,312.5 v -45 A 67.5,67.5 0 0 1 67.5,200 67.5,67.5 0 0 1 135,267.5 V 610 A 67.5,67.5 0 0 1 67.5,677.5 22.5,22.5 0 0 0 45,700 V 832.5 A 22.5,22.5 0 0 0 67.5,855 h 45 A 22.5,22.5 0 0 1 135,877.5 22.5,22.5 0 0 1 112.5,900 Z" />
      <glyph
         glyph-name="six"
         unicode="6"
         id="glyph167"
         d="M 67.5,900 A 67.5,67.5 0 0 1 0,832.5 v -565 A 67.5,67.5 0 0 1 67.5,200 67.5,67.5 0 0 1 135,267.5 V 610 A 67.5,67.5 0 0 1 67.5,677.5 22.5,22.5 0 0 0 45,700 V 832.5 A 22.5,22.5 0 0 0 67.5,855 22.5,22.5 0 0 0 90,832.5 v -45 A 22.5,22.5 0 0 1 112.5,765 22.5,22.5 0 0 1 135,787.5 v 45 A 67.5,67.5 0 0 1 67.5,900 Z m 0,-267.5 A 22.5,22.5 0 0 0 90,610 V 267.5 A 22.5,22.5 0 0 0 67.5,245 22.5,22.5 0 0 0 45,267.5 V 610 a 22.5,22.5 0 0 0 22.5,22.5 z" />
      <glyph
         glyph-name="seven"
         unicode="7"
         id="glyph168"
         d="M 22.5,900 A 22.5,22.5 0 0 1 0,877.5 22.5,22.5 0 0 1 22.5,855 h 45 A 22.5,22.5 0 0 0 90,832.5 v -610 A 22.5,22.5 0 0 1 112.5,200 22.5,22.5 0 0 1 135,222.5 v 610 A 67.5,67.5 0 0 1 67.5,900 Z" />
      <glyph
         glyph-name="eight"
         unicode="8"
         id="glyph169"
         d="M 67.5,900 A 67.5,67.5 0 0 1 0,832.5 v -565 A 67.5,67.5 0 0 1 67.5,200 67.5,67.5 0 0 1 135,267.5 v 565 A 67.5,67.5 0 0 1 67.5,900 Z m 0,-45 A 22.5,22.5 0 0 0 90,832.5 V 700 A 22.5,22.5 0 0 0 67.5,677.5 22.5,22.5 0 0 0 45,700 V 832.5 A 22.5,22.5 0 0 0 67.5,855 Z m 0,-222.5 A 22.5,22.5 0 0 0 90,610 V 267.5 A 22.5,22.5 0 0 0 67.5,245 22.5,22.5 0 0 0 45,267.5 V 610 a 22.5,22.5 0 0 0 22.5,22.5 z" />
      <glyph
         glyph-name="nine"
         unicode="9"
         id="glyph170"
         d="M 67.5,900 A 67.5,67.5 0 0 1 0,832.5 V 700 A 67.5,67.5 0 0 1 67.5,632.5 22.5,22.5 0 0 0 90,610 V 267.5 A 22.5,22.5 0 0 0 67.5,245 22.5,22.5 0 0 0 45,267.5 v 45 A 22.5,22.5 0 0 1 22.5,335 22.5,22.5 0 0 1 0,312.5 v -45 A 67.5,67.5 0 0 1 67.5,200 67.5,67.5 0 0 1 135,267.5 v 565 A 67.5,67.5 0 0 1 67.5,900 Z m 0,-45 A 22.5,22.5 0 0 0 90,832.5 V 700 A 22.5,22.5 0 0 0 67.5,677.5 22.5,22.5 0 0 0 45,700 V 832.5 A 22.5,22.5 0 0 0 67.5,855 Z" />
      <glyph
         glyph-name="colon"
         unicode=":"
         id="glyph171"
         d="M 22.5,472.5 A 22.5,22.5 0 0 1 0,450 22.5,22.5 0 0 1 22.5,427.5 22.5,22.5 0 0 1 44.999999,450 22.5,22.5 0 0 1 22.5,472.5 Z M 22.5,245 A 22.5,22.5 0 0 1 0,222.5 22.5,22.5 0 0 1 22.5,200 22.5,22.5 0 0 1 44.999999,222.5 22.5,22.5 0 0 1 22.5,245 Z"
         horiz-adv-x="90" />
      <glyph
         glyph-name="semicolon"
         unicode=";"
         id="glyph172"
         d="m 22.5,472.50103 a 22.5,22.5 0 0 1 -22.5,-22.5 22.5,22.5 0 0 1 22.5,-22.5 22.5,22.5 0 0 1 22.5,22.5 22.5,22.5 0 0 1 -22.5,22.5 z m 0,-172.50195 A 22.5,22.5 0 0 1 0,277.50103 a 22.5,22.5 0 0 1 0,-0.002 V 122.50098 a 22.5,22.5 0 0 1 0,-0.002 22.5,22.5 0 0 1 22.5,-22.5 22.5,22.5 0 0 1 22.5,22.5 22.5,22.5 0 0 1 0,0.002 v 154.99809 a 22.5,22.5 0 0 1 0,0.002 22.5,22.5 0 0 1 -22.5,22.49805 z"
         horiz-adv-x="90" />
      <glyph
         glyph-name="less_than"
         unicode="&lt;"
         id="glyph173"
         d="m 67.5,517.49998 a 67.5,67.5 0 0 1 -67.5,-67.5 v -90 a 67.5,67.5 0 0 1 67.5,-67.5 h 45 a 22.5,22.5 0 0 1 22.5,22.5 22.5,22.5 0 0 1 -22.5,22.5 h -45 a 22.5,22.5 0 0 0 -22.5,22.5 v 90 a 22.5,22.5 0 0 0 22.5,22.5 h 45 a 22.5,22.5 0 0 1 22.5,22.5 22.5,22.5 0 0 1 -22.5,22.5 z" />
      <glyph
         glyph-name="equal"
         unicode="="
         id="glyph174"
         d="m 22.5,517.49998 a 22.5,22.5 0 0 1 -22.5,-22.5 22.5,22.5 0 0 1 22.5,-22.5 h 133.125 v 0.13477 a 22.5,22.5 0 0 1 1.875,-0.13477 22.5,22.5 0 0 1 22.5,22.5 22.5,22.5 0 0 1 -22.5,22.5 22.5,22.5 0 0 1 -1.875,-0.13477 v 0.13477 z m 0,-90 a 22.5,22.5 0 0 1 -22.5,-22.5 22.5,22.5 0 0 1 22.5,-22.5 h 135 a 22.5,22.5 0 0 1 22.5,22.5 22.5,22.5 0 0 1 -22.5,22.5 z"
         horiz-adv-x="225" />
      <glyph
         glyph-name="greater_than"
         unicode="&gt;"
         id="glyph175"
         d="M 22.5,517.5 A 22.5,22.5 0 0 1 0,495 22.5,22.5 0 0 1 22.5,472.5 h 45 A 22.5,22.5 0 0 0 90,450 V 360 A 22.5,22.5 0 0 0 67.5,337.5 h -45 A 22.5,22.5 0 0 1 0,315 22.5,22.5 0 0 1 22.5,292.5 h 45 A 67.5,67.5 0 0 1 135,360 v 90 a 67.5,67.5 0 0 1 -67.5,67.5 z" />
      <glyph
         glyph-name="question"
         unicode="?"
         id="glyph176"
         d="M 67.5,900 A 67.5,67.5 0 0 1 0,832.5 v -45 A 22.5,22.5 0 0 1 22.5,765 22.5,22.5 0 0 1 45,787.5 v 45 A 22.5,22.5 0 0 0 67.5,855 22.5,22.5 0 0 0 90,832.5 V 700 A 22.5,22.5 0 0 0 67.5,677.5 67.5,67.5 0 0 1 0,610 V 357.5 A 67.5,67.5 0 0 1 67.5,290 67.5,67.5 0 0 1 135,357.5 v 45 A 22.5,22.5 0 0 1 112.5,425 22.5,22.5 0 0 1 90,402.5 v -45 A 22.5,22.5 0 0 0 67.5,335 22.5,22.5 0 0 0 45,357.5 V 610 A 22.5,22.5 0 0 0 67.5,632.5 67.5,67.5 0 0 1 135,700 V 832.5 A 67.5,67.5 0 0 1 67.5,900 Z m 0,-655 A 22.5,22.5 0 0 1 45,222.5 22.5,22.5 0 0 1 67.5,200 22.5,22.5 0 0 1 90,222.5 22.5,22.5 0 0 1 67.5,245 Z" />
      <glyph
         glyph-name="at"
         unicode="@"
         id="glyph177"
         d="M 67.5,700 A 67.5,67.5 0 0 1 0,632.5 v -365 A 67.5,67.5 0 0 1 67.5,200 h 225 A 67.5,67.5 0 0 1 360,267.5 22.5,22.5 0 0 1 337.5,290 22.5,22.5 0 0 1 315,267.5 22.5,22.5 0 0 0 292.5,245 H 67.5 A 22.5,22.5 0 0 0 45,267.5 v 365 A 22.5,22.5 0 0 0 67.5,655 h 180 A 22.5,22.5 0 0 0 270,632.5 V 381.25 a 22.5,22.5 0 0 0 -22.5,-22.5 22.5,22.5 0 0 0 -22.5,22.5 v 137.5 a 67.5,67.5 0 0 1 -67.5,67.5 67.5,67.5 0 0 1 -67.5,-67.5 v -137.5 a 67.5,67.5 0 0 1 67.5,-67.5 h 90 a 67.5,67.5 0 0 1 67.5,67.5 V 632.5 A 67.5,67.5 0 0 1 247.5,700 Z m 90,-158.75 a 22.5,22.5 0 0 0 22.5,-22.5 v -137.5 a 22.5,22.5 0 0 0 -22.5,-22.5 22.5,22.5 0 0 0 -22.5,22.5 v 137.5 a 22.5,22.5 0 0 0 22.5,22.5 z"
         horiz-adv-x="405" />
      <glyph
         glyph-name="A"
         unicode="A"
         id="glyph178"
         d="M 67.5,900 A 67.5,67.5 0 0 1 0,832.5 v -610 A 22.5,22.5 0 0 1 22.5,200 22.5,22.5 0 0 1 45,222.5 V 610 A 22.5,22.5 0 0 0 67.5,632.5 22.5,22.5 0 0 0 90,610 V 222.5 A 22.5,22.5 0 0 1 112.5,200 22.5,22.5 0 0 1 135,222.5 v 610 A 67.5,67.5 0 0 1 67.5,900 Z m 0,-45 A 22.5,22.5 0 0 0 90,832.5 V 700 A 22.5,22.5 0 0 0 67.5,677.5 22.5,22.5 0 0 0 45,700 V 832.5 A 22.5,22.5 0 0 0 67.5,855 Z" />
      <glyph
         glyph-name="B"
         unicode="B"
         id="glyph179"
         d="M 67.5,900 A 67.5,67.5 0 0 1 0,832.5 v -565 A 67.5,67.5 0 0 1 67.5,200 67.5,67.5 0 0 1 135,267.5 v 565 A 67.5,67.5 0 0 1 67.5,900 Z m 0,-45 A 22.5,22.5 0 0 0 90,832.5 V 700 A 22.5,22.5 0 0 0 67.5,677.5 22.5,22.5 0 0 0 45,700 V 832.5 A 22.5,22.5 0 0 0 67.5,855 Z m 0,-222.5 A 22.5,22.5 0 0 0 90,610 V 267.5 A 22.5,22.5 0 0 0 67.5,245 22.5,22.5 0 0 0 45,267.5 V 610 a 22.5,22.5 0 0 0 22.5,22.5 z" />
      <glyph
         glyph-name="C"
         unicode="C"
         id="glyph180"
         d="M 67.5,900 A 67.5,67.5 0 0 1 0,832.5 v -565 A 67.5,67.5 0 0 1 67.5,200 67.5,67.5 0 0 1 135,267.5 v 45 A 22.5,22.5 0 0 1 112.5,335 22.5,22.5 0 0 1 90,312.5 v -45 A 22.5,22.5 0 0 0 67.5,245 22.5,22.5 0 0 0 45,267.5 v 565 A 22.5,22.5 0 0 0 67.5,855 22.5,22.5 0 0 0 90,832.5 v -45 A 22.5,22.5 0 0 1 112.5,765 22.5,22.5 0 0 1 135,787.5 v 45 A 67.5,67.5 0 0 1 67.5,900 Z" />
      <glyph
         glyph-name="D"
         unicode="D"
         id="glyph181"
         d="M 67.5,900 A 67.5,67.5 0 0 1 0,832.5 v -565 A 67.5,67.5 0 0 1 67.5,200 67.5,67.5 0 0 1 135,267.5 v 565 A 67.5,67.5 0 0 1 67.5,900 Z m 0,-45 A 22.5,22.5 0 0 0 90,832.5 v -565 A 22.5,22.5 0 0 0 67.5,245 22.5,22.5 0 0 0 45,267.5 v 565 A 22.5,22.5 0 0 0 67.5,855 Z" />
      <glyph
         glyph-name="E"
         unicode="E"
         id="glyph182"
         d="m 67.499996,900.00195 v -0.002 A 67.5,67.5 0 0 1 0,832.50195 a 67.5,67.5 0 0 1 0,-0.002 v -564.998 H 44.999996 V 610 a 22.5,22.5 0 0 0 22.5,22.5 v 0.002 h 22.5 a 22.5,22.5 0 0 1 22.500004,22.5 22.5,22.5 0 0 1 -22.500004,22.5 h -22.5 V 677.5 a 22.5,22.5 0 0 0 -22.5,22.5 v 132.5 0.002 a 22.5,22.5 0 0 0 22.5,22.498 v 0.002 H 112.5 a 22.5,22.5 0 0 1 22.5,22.5 22.5,22.5 0 0 1 -22.5,22.5 z M 0,267.5 A 67.5,67.5 0 0 1 67.499996,200 H 112.5 A 22.5,22.5 0 0 1 135,222.5 22.5,22.5 0 0 1 112.5,245 H 67.499996 a 22.5,22.5 0 0 0 -22.5,22.5 z" />
      <glyph
         glyph-name="F"
         unicode="F"
         id="glyph183"
         d="M 67.5,900 A 67.5,67.5 0 0 1 0,832.5 v -610 A 22.5,22.5 0 0 1 22.5,200 22.5,22.5 0 0 1 45,222.5 V 610 a 22.5,22.5 0 0 0 22.5,22.5 h 45 A 22.5,22.5 0 0 1 135,655 22.5,22.5 0 0 1 112.5,677.5 h -45 A 22.5,22.5 0 0 0 45,700 V 832.5 A 22.5,22.5 0 0 0 67.5,855 h 45 A 22.5,22.5 0 0 1 135,877.5 22.5,22.5 0 0 1 112.5,900 Z" />
      <glyph
         glyph-name="G"
         unicode="G"
         id="glyph184"
         d="M 67.5,900 A 67.5,67.5 0 0 1 0,832.5 v -565 A 67.5,67.5 0 0 1 67.5,200 67.5,67.5 0 0 1 135,267.5 V 610 A 67.5,67.5 0 0 1 67.5,677.5 22.5,22.5 0 0 0 45,700 V 832.5 A 22.5,22.5 0 0 0 67.5,855 22.5,22.5 0 0 0 90,832.5 v -45 A 22.5,22.5 0 0 1 112.5,765 22.5,22.5 0 0 1 135,787.5 v 45 A 67.5,67.5 0 0 1 67.5,900 Z m 0,-267.5 A 22.5,22.5 0 0 0 90,610 V 267.5 A 22.5,22.5 0 0 0 67.5,245 22.5,22.5 0 0 0 45,267.5 V 610 a 22.5,22.5 0 0 0 22.5,22.5 z" />
      <glyph
         glyph-name="H"
         unicode="H"
         id="glyph185"
         d="M 22.5,900 A 22.5,22.5 0 0 1 0,877.5 v -655 A 22.5,22.5 0 0 1 22.5,200 22.5,22.5 0 0 1 45,222.5 V 610 A 22.5,22.5 0 0 0 67.5,632.5 22.5,22.5 0 0 0 90,610 V 222.5 A 22.5,22.5 0 0 1 112.5,200 22.5,22.5 0 0 1 135,222.5 v 655 A 22.5,22.5 0 0 1 112.5,900 22.5,22.5 0 0 1 90,877.5 V 700 A 22.5,22.5 0 0 0 67.5,677.5 22.5,22.5 0 0 0 45,700 V 877.5 A 22.5,22.5 0 0 1 22.5,900 Z" />
      <glyph
         glyph-name="I"
         unicode="I"
         id="glyph186"
         d="M 22.5,900 A 22.5,22.5 0 0 1 0,877.5 v -655 A 22.5,22.5 0 0 1 22.5,200 22.5,22.5 0 0 1 45,222.5 v 655 A 22.5,22.5 0 0 1 22.5,900 Z"
         horiz-adv-x="90" />
      <glyph
         glyph-name="J"
         unicode="J"
         id="glyph187"
         d="M 112.5,900 A 22.5,22.5 0 0 1 90,877.5 v -610 A 22.5,22.5 0 0 0 67.5,245 22.5,22.5 0 0 0 45,267.5 v 45 A 22.5,22.5 0 0 1 22.5,335 22.5,22.5 0 0 1 0,312.5 v -45 A 67.5,67.5 0 0 1 67.5,200 67.5,67.5 0 0 1 135,267.5 v 610 A 22.5,22.5 0 0 1 112.5,900 Z" />
      <glyph
         glyph-name="K"
         unicode="K"
         id="glyph188"
         d="M 22.5,900 A 22.5,22.5 0 0 1 0,877.5 v -655 A 22.5,22.5 0 0 1 22.5,200 22.5,22.5 0 0 1 45,222.5 V 520 A 22.5,22.5 0 0 0 67.5,542.5 22.5,22.5 0 0 0 90,520 V 222.5 A 22.5,22.5 0 0 1 112.5,200 22.5,22.5 0 0 1 135,222.5 V 520 A 67.5,67.5 0 0 1 67.5,587.5 22.5,22.5 0 0 0 45,610 22.5,22.5 0 0 0 67.5,632.5 67.5,67.5 0 0 1 135,700 V 877.5 A 22.5,22.5 0 0 1 112.5,900 22.5,22.5 0 0 1 90,877.5 V 700 A 22.5,22.5 0 0 0 67.5,677.5 22.5,22.5 0 0 0 45,700 V 877.5 A 22.5,22.5 0 0 1 22.5,900 Z" />
      <glyph
         glyph-name="L"
         unicode="L"
         id="glyph189"
         d="M 22.5,900 A 22.5,22.5 0 0 1 0,877.5 v -610 A 67.5,67.5 0 0 1 67.5,200 h 45 A 22.5,22.5 0 0 1 135,222.5 22.5,22.5 0 0 1 112.5,245 h -45 A 22.5,22.5 0 0 0 45,267.5 v 610 A 22.5,22.5 0 0 1 22.5,900 Z" />
      <glyph
         glyph-name="M"
         unicode="M"
         id="glyph190"
         d="M 67.5,900 A 67.5,67.5 0 0 1 0,832.5 v -610 A 22.5,22.5 0 0 1 22.5,200 22.5,22.5 0 0 1 45,222.5 v 610 A 22.5,22.5 0 0 0 67.5,855 22.5,22.5 0 0 0 90,832.5 v -410 A 67.5,67.5 0 0 1 157.5,355 67.5,67.5 0 0 1 225,422.5 v 410 A 22.5,22.5 0 0 0 247.5,855 22.5,22.5 0 0 0 270,832.5 v -610 A 22.5,22.5 0 0 1 292.5,200 22.5,22.5 0 0 1 315,222.5 v 610 A 67.5,67.5 0 0 1 247.5,900 67.5,67.5 0 0 1 180,832.5 v -410 A 22.5,22.5 0 0 0 157.5,400 22.5,22.5 0 0 0 135,422.5 v 410 A 67.5,67.5 0 0 1 67.5,900 Z"
         horiz-adv-x="360" />
      <glyph
         glyph-name="N"
         unicode="N"
         id="glyph191"
         d="M 67.499997,900 A 67.5,67.5 0 0 1 0,832.5 v -610 A 22.5,22.5 0 0 1 22.5,200 22.5,22.5 0 0 1 44.999997,222.5 v 610 a 22.5,22.5 0 0 0 22.5,22.5 22.5,22.5 0 0 0 22.5,-22.5 v -565 A 67.5,67.5 0 0 1 157.5,200 67.5,67.5 0 0 1 225,267.5 v 610 A 22.5,22.5 0 0 1 202.5,900 22.5,22.5 0 0 1 180,877.5 v -610 A 22.5,22.5 0 0 0 157.5,245 22.5,22.5 0 0 0 135,267.5 v 565 A 67.5,67.5 0 0 1 67.499997,900 Z"
         horiz-adv-x="270" />
      <glyph
         glyph-name="O"
         unicode="O"
         id="glyph192"
         d="M 67.5,900 A 67.5,67.5 0 0 1 0,832.5 v -565 A 67.5,67.5 0 0 1 67.5,200 67.5,67.5 0 0 1 135,267.5 v 565 A 67.5,67.5 0 0 1 67.5,900 Z m 0,-45 a 22.5,22.5 0 0 0 22.499998,-22.5 v -565 A 22.5,22.5 0 0 0 67.5,245 22.5,22.5 0 0 0 45,267.5 v 565 A 22.5,22.5 0 0 0 67.5,855 Z" />
      <glyph
         glyph-name="P"
         unicode="P"
         id="glyph193"
         d="M 67.5,900 A 67.5,67.5 0 0 1 0,832.5 v -610 A 22.5,22.5 0 0 1 22.5,200 22.5,22.5 0 0 1 45,222.5 V 610 A 22.5,22.5 0 0 0 67.5,632.5 67.5,67.5 0 0 1 135,700 V 832.5 A 67.5,67.5 0 0 1 67.5,900 Z m 0,-45 A 22.5,22.5 0 0 0 89.999999,832.5 V 700 A 22.5,22.5 0 0 0 67.5,677.5 22.5,22.5 0 0 0 45,700 V 832.5 A 22.5,22.5 0 0 0 67.5,855 Z" />
      <glyph
         glyph-name="Q"
         unicode="Q"
         id="glyph194"
         d="M 67.5,900 A 67.5,67.5 0 0 1 0,832.5 v -565 A 67.5,67.5 0 0 1 67.5,200 67.5,67.5 0 0 1 135,267.5 v 565 A 67.5,67.5 0 0 1 67.5,900 Z m 0,-45 a 22.5,22.5 0 0 0 22.499998,-22.5 v -565 A 22.5,22.5 0 0 0 67.5,245 22.5,22.5 0 0 0 45,267.5 v 565 A 22.5,22.5 0 0 0 67.5,855 Z m 45,-655 A 22.5,22.5 0 0 1 89.999998,177.5 22.5,22.5 0 0 1 112.5,155 22.5,22.5 0 0 1 135,177.5 22.5,22.5 0 0 1 112.5,200 Z" />
      <glyph
         glyph-name="R"
         unicode="R"
         id="glyph195"
         d="M 67.499999,899.99805 A 67.5,67.5 0 0 1 0,832.5 67.5,67.5 0 0 1 0,832.498 V 222.5 A 22.5,22.5 0 0 1 22.5,200 22.5,22.5 0 0 1 45,222.5 v 297.49805 a 22.5,22.5 0 0 0 22.499999,22.5 22.5,22.5 0 0 0 22.5,-22.5 V 222.5 A 22.5,22.5 0 0 1 112.5,200 22.5,22.5 0 0 1 135,222.5 v 297.49805 a 67.5,67.5 0 0 1 -67.500001,67.5 22.5,22.5 0 0 0 -22.499999,22.5 22.5,22.5 0 0 0 22.499999,22.5 67.5,67.5 0 0 1 67.500001,67.5 H 89.999999 a 22.5,22.5 0 0 0 -22.5,-22.5 A 22.5,22.5 0 0 0 45,699.99805 v 132.5 0.002 a 22.5,22.5 0 0 0 22.499999,22.49805 22.5,22.5 0 0 0 22.5,-22.5 V 700 H 135 v 132.5 a 67.5,67.5 0 0 1 -67.500001,67.49805 z" />
      <glyph
         glyph-name="S"
         unicode="S"
         id="glyph196"
         d="M 67.500004,900 A 67.5,67.5 0 0 1 0,832.5 V 700 a 67.5,67.5 0 0 1 67.500004,-67.5 22.5,22.5 0 0 0 22.5,-22.5 V 267.5 a 22.5,22.5 0 0 0 -22.5,-22.5 22.5,22.5 0 0 0 -22.5,22.5 v 45 a 22.5,22.5 0 0 1 -22.5,22.5 A 22.5,22.5 0 0 1 0,312.5 v -45 A 67.5,67.5 0 0 1 67.500004,200 67.5,67.5 0 0 1 135,267.5 V 610 a 67.5,67.5 0 0 1 -67.499996,67.5 22.5,22.5 0 0 0 -22.5,22.5 v 132.5 a 22.5,22.5 0 0 0 22.5,22.5 22.5,22.5 0 0 0 22.5,-22.5 v -45 A 22.5,22.5 0 0 1 112.5,765 22.5,22.5 0 0 1 135,787.5 v 45 A 67.5,67.5 0 0 1 67.500004,900 Z" />
      <glyph
         glyph-name="T"
         unicode="T"
         id="glyph197"
         d="M 22.5,900 A 22.5,22.5 0 0 1 0,877.5 22.5,22.5 0 0 1 22.5,855 22.5,22.5 0 0 0 45,832.5 v -610 A 22.5,22.5 0 0 1 67.5,200 22.5,22.5 0 0 1 90,222.5 v 610 A 22.5,22.5 0 0 0 112.5,855 22.5,22.5 0 0 1 135,877.5 22.5,22.5 0 0 1 112.5,900 Z" />
      <glyph
         glyph-name="U"
         unicode="U"
         id="glyph198"
         d="M 22.5,900 A 22.5,22.5 0 0 1 0,877.5 v -610 A 67.5,67.5 0 0 1 67.5,200 67.5,67.5 0 0 1 135,267.5 v 610 A 22.5,22.5 0 0 1 112.5,900 22.5,22.5 0 0 1 90.000001,877.5 v -610 A 22.5,22.5 0 0 0 67.5,245 22.5,22.5 0 0 0 45,267.5 v 610 A 22.5,22.5 0 0 1 22.5,900 Z" />
      <glyph
         glyph-name="V"
         unicode="V"
         id="glyph199"
         d="M 22.5,900 A 22.5,22.5 0 0 1 0,877.5 v -610 A 67.5,67.5 0 0 1 67.5,200 67.5,67.5 0 0 1 135,267.5 v 610 A 22.5,22.5 0 0 1 112.5,900 22.5,22.5 0 0 1 90.000001,877.5 v -610 A 22.5,22.5 0 0 0 67.5,245 22.5,22.5 0 0 0 45,267.5 v 610 A 22.5,22.5 0 0 1 22.5,900 Z" />
      <glyph
         glyph-name="W"
         unicode="W"
         id="glyph200"
         d="M 22.5,900 A 22.5,22.5 0 0 1 0,877.5 v -610 A 67.5,67.5 0 0 1 67.5,200 67.5,67.5 0 0 1 135,267.5 v 410 A 22.5,22.5 0 0 0 157.5,700 22.5,22.5 0 0 0 180,677.5 v -410 A 67.5,67.5 0 0 1 247.5,200 67.5,67.5 0 0 1 315,267.5 v 610 A 22.5,22.5 0 0 1 292.5,900 22.5,22.5 0 0 1 270,877.5 v -610 A 22.5,22.5 0 0 0 247.5,245 22.5,22.5 0 0 0 225,267.5 v 410 A 67.5,67.5 0 0 1 157.5,745 67.5,67.5 0 0 1 90,677.5 v -410 A 22.5,22.5 0 0 0 67.5,245 22.5,22.5 0 0 0 45,267.5 v 610 A 22.5,22.5 0 0 1 22.5,900 Z"
         horiz-adv-x="360" />
      <glyph
         glyph-name="X"
         unicode="X"
         id="glyph201"
         d="M 22.5,900 A 22.5,22.5 0 0 1 0,877.5 V 700 A 67.5,67.5 0 0 1 67.5,632.5 67.5,67.5 0 0 1 135,700 V 877.5 A 22.5,22.5 0 0 1 112.5,900 22.5,22.5 0 0 1 90,877.5 V 700 A 22.5,22.5 0 0 0 67.5,677.5 22.5,22.5 0 0 0 45,700 V 877.5 A 22.5,22.5 0 0 1 22.5,900 Z m 45,-312.5 A 67.5,67.5 0 0 1 0,520 V 222.5 A 22.5,22.5 0 0 1 22.5,200 22.5,22.5 0 0 1 45,222.5 V 520 A 22.5,22.5 0 0 0 67.5,542.5 22.5,22.5 0 0 0 90,520 V 222.5 A 22.5,22.5 0 0 1 112.5,200 22.5,22.5 0 0 1 135,222.5 V 520 a 67.5,67.5 0 0 1 -67.5,67.5 z" />
      <glyph
         glyph-name="Y"
         unicode="Y"
         id="glyph202"
         d="M 22.5,900 A 22.5,22.5 0 0 1 0,877.5 v -655 A 22.5,22.5 0 0 1 22.5,200 22.5,22.5 0 0 1 45,222.5 V 610.02149 A 22.5,22.5 0 0 0 67.49805,632.5 a 67.5,67.5 0 0 1 67.5,67.5 H 135 V 877.5 A 22.5,22.5 0 0 1 112.5,900 22.5,22.5 0 0 1 90,877.5 V 700 H 89.9981 A 22.5,22.5 0 0 0 67.4981,677.5 22.5,22.5 0 0 0 45,699.97852 V 877.5 A 22.5,22.5 0 0 1 22.5,900 Z" />
      <glyph
         glyph-name="Z"
         unicode="Z"
         id="glyph203"
         d="M 22.499999,900 A 22.5,22.5 0 0 1 0,877.5 22.5,22.5 0 0 1 22.499999,855 h 45 a 22.5,22.5 0 0 0 22.5,-22.5 V 700 a 22.5,22.5 0 0 0 -22.5,-22.5 A 67.5,67.5 0 0 1 0,610 V 267.5 A 67.5,67.5 0 0 1 67.499999,200 H 112.5 A 22.5,22.5 0 0 1 135,222.5 22.5,22.5 0 0 1 112.5,245 H 67.499999 a 22.5,22.5 0 0 0 -22.5,22.5 V 610 a 22.5,22.5 0 0 0 22.5,22.5 A 67.5,67.5 0 0 1 135,700 V 832.5 A 67.5,67.5 0 0 1 67.499999,900 Z" />
      <glyph
         glyph-name="bracket_open"
         unicode="["
         id="glyph204"
         d="M 67.5,945 A 67.5,67.5 0 0 1 0,877.5 v -655 A 67.5,67.5 0 0 1 67.5,155 h 45 A 22.5,22.5 0 0 1 135,177.5 22.5,22.5 0 0 1 112.5,200 h -45 A 22.5,22.5 0 0 0 45,222.5 v 655 A 22.5,22.5 0 0 0 67.5,900 h 45 A 22.5,22.5 0 0 1 135,922.5 22.5,22.5 0 0 1 112.5,945 Z" />
      <glyph
         glyph-name="backslash"
         unicode="\"
         id="glyph205"
         d="M 22.5,900 A 22.5,22.5 0 0 1 0,877.5 V 700 A 67.5,67.5 0 0 1 67.5,632.5 22.5,22.5 0 0 0 90,610 V 222.5 A 22.5,22.5 0 0 1 112.5,200 22.5,22.5 0 0 1 135,222.5 V 610 A 67.5,67.5 0 0 1 67.5,677.5 22.5,22.5 0 0 0 45,700 V 877.5 A 22.5,22.5 0 0 1 22.5,900 Z" />
      <glyph
         glyph-name="bracket_close"
         unicode="]"
         id="glyph206"
         d="M 22.5,945 A 22.5,22.5 0 0 1 0,922.5 22.5,22.5 0 0 1 22.5,900 h 45 A 22.5,22.5 0 0 0 90,877.5 v -655 A 22.5,22.5 0 0 0 67.5,200 h -45 A 22.5,22.5 0 0 1 0,177.5 22.5,22.5 0 0 1 22.5,155 h 45 a 67.5,67.5 0 0 1 67.5,67.5 v 655 A 67.5,67.5 0 0 1 67.5,945 Z" />
      <glyph
         glyph-name="power"
         unicode="^"
         id="glyph207"
         d="M 67.5,900 A 67.5,67.5 0 0 1 0,832.5 v -45 A 22.5,22.5 0 0 1 22.5,765 22.5,22.5 0 0 1 45,787.5 v 45 A 22.5,22.5 0 0 0 67.5,855 22.5,22.5 0 0 0 90,832.5 v -45 A 22.5,22.5 0 0 1 112.5,765 22.5,22.5 0 0 1 135,787.5 v 45 A 67.5,67.5 0 0 1 67.5,900 Z" />
      <glyph
         glyph-name="underscore"
         unicode="_"
         id="glyph208"
         d="M 22.5,200 A 22.5,22.5 0 0 1 0,177.5 22.5,22.5 0 0 1 22.5,155 H 154 v 0.29297 A 22.5,22.5 0 0 1 157.5,155 22.5,22.5 0 0 1 180,177.5 22.5,22.5 0 0 1 157.5,200 22.5,22.5 0 0 1 154,199.70703 V 200 Z"
         horiz-adv-x="225" />
      <glyph
         glyph-name="accent"
         unicode="`"
         id="glyph209"
         d="M 22.5,900 A 22.5,22.5 0 0 1 0,877.5 v -90 A 22.5,22.5 0 0 1 22.5,765 22.5,22.5 0 0 1 45,787.5 v 90 A 22.5,22.5 0 0 1 22.5,900 Z"
         horiz-adv-x="90" />
      <glyph
         glyph-name="a"
         unicode="a"
         id="glyph210"
         d="m 67.5,700.00003 a 67.5,67.5 0 0 1 -67.5,-67.5 v -92.5 a 22.5,22.5 0 0 1 22.5,-22.5 22.5,22.5 0 0 1 22.5,22.5 v 92.5 a 22.5,22.5 0 0 0 22.5,22.5 22.5,22.5 0 0 0 22.5,-22.5 v -137.5 a 22.5,22.5 0 0 0 -22.5,-22.5 67.5,67.5 0 0 1 -67.5,-67.5 v -137.5 a 67.5,67.5 0 0 1 67.5,-67.5 67.5,67.5 0 0 1 67.5,67.5 v 365 a 67.5,67.5 0 0 1 -67.5,67.5 z m 0,-272.5 a 22.5,22.5 0 0 0 22.5,-22.5 v -137.5 a 22.5,22.5 0 0 0 -22.5,-22.5 22.5,22.5 0 0 0 -22.5,22.5 v 137.5 a 22.5,22.5 0 0 0 22.5,22.5 z" />
      <glyph
         glyph-name="b"
         unicode="b"
         id="glyph211"
         d="M 22.5,900 A 22.5,22.5 0 0 1 0,877.5 v -610 A 67.5,67.5 0 0 1 67.5,200 67.5,67.5 0 0 1 135,267.5 v 365 A 67.5,67.5 0 0 1 67.5,700 22.5,22.5 0 0 0 45,722.5 v 155 A 22.5,22.5 0 0 1 22.5,900 Z m 45,-245 A 22.5,22.5 0 0 0 90,632.5 v -365 A 22.5,22.5 0 0 0 67.5,245 22.5,22.5 0 0 0 45,267.5 v 365 A 22.5,22.5 0 0 0 67.5,655 Z" />
      <glyph
         glyph-name="c"
         unicode="c"
         id="glyph212"
         d="M 67.5,700 A 67.5,67.5 0 0 1 0,632.5 v -365 A 67.5,67.5 0 0 1 67.5,200 67.5,67.5 0 0 1 135,267.5 v 45 A 22.5,22.5 0 0 1 112.5,335 22.5,22.5 0 0 1 90,312.5 v -45 A 22.5,22.5 0 0 0 67.5,245 22.5,22.5 0 0 0 45,267.5 v 365 A 22.5,22.5 0 0 0 67.5,655 22.5,22.5 0 0 0 90,632.5 v -45 A 22.5,22.5 0 0 1 112.5,565 22.5,22.5 0 0 1 135,587.5 v 45 A 67.5,67.5 0 0 1 67.5,700 Z" />
      <glyph
         glyph-name="d"
         unicode="d"
         id="glyph213"
         d="M 112.5,900 A 22.5,22.5 0 0 1 89.999999,877.5 v -155 A 22.5,22.5 0 0 0 67.499999,700 67.5,67.5 0 0 1 0,632.5 v -365 A 67.5,67.5 0 0 1 67.499999,200 67.5,67.5 0 0 1 135,267.5 v 610 A 22.5,22.5 0 0 1 112.5,900 Z M 67.499999,655 a 22.5,22.5 0 0 0 22.5,-22.5 v -365 A 22.5,22.5 0 0 0 67.499999,245 22.5,22.5 0 0 0 45,267.5 v 365 A 22.5,22.5 0 0 0 67.499999,655 Z" />
      <glyph
         glyph-name="e"
         unicode="e"
         id="glyph214"
         d="m 67.5,700.00003 a 67.5,67.5 0 0 1 -67.5,-67.5 v -365 a 67.5,67.5 0 0 1 67.5,-67.5 67.5,67.5 0 0 1 67.5,67.5 v 92.5 a 22.5,22.5 0 0 1 -22.5,22.5 22.5,22.5 0 0 1 -22.5,-22.5 v -92.5 a 22.5,22.5 0 0 0 -22.5,-22.5 22.5,22.5 0 0 0 -22.5,22.5 v 137.5 a 22.5,22.5 0 0 0 22.5,22.5 67.5,67.5 0 0 1 67.5,67.5 v 137.5 a 67.5,67.5 0 0 1 -67.5,67.5 z m 0,-45 a 22.5,22.5 0 0 0 22.5,-22.5 v -137.5 a 22.5,22.5 0 0 0 -22.5,-22.5 22.5,22.5 0 0 0 -22.5,22.5 v 137.5 a 22.5,22.5 0 0 0 22.5,22.5 z" />
      <glyph
         glyph-name="f"
         unicode="f"
         id="glyph215"
         d="m 67.5,900.00003 a 67.5,67.5 0 0 1 -67.5,-67.5 v -65 a 22.5,22.5 0 0 0 -22.5,-22.5 22.5,22.5 0 0 1 -22.5,-22.5 22.5,22.5 0 0 1 22.5,-22.5 22.5,22.5 0 0 0 22.5,-22.5 v -455 a 22.5,22.5 0 0 1 22.5,-22.5 22.5,22.5 0 0 1 22.5,22.5 v 455 a 22.5,22.5 0 0 0 22.5,22.5 H 90 a 22.5,22.5 0 0 1 22.5,22.5 22.5,22.5 0 0 1 -22.5,22.5 H 67.5 a 22.5,22.5 0 0 0 -22.5,22.5 v 65 a 22.5,22.5 0 0 0 22.5,22.5 22.5,22.5 0 0 0 22.5,-22.5 v -22.5 a 22.5,22.5 0 0 1 22.5,-22.5 22.5,22.5 0 0 1 22.5,22.5 v 22.5 a 67.5,67.5 0 0 1 -67.5,67.5 z"
         horiz-adv-x="90" />
      <glyph
         glyph-name="g"
         unicode="g"
         id="glyph216"
         d="M 67.5,700 A 67.5,67.5 0 0 1 0,632.5 v -365 A 67.5,67.5 0 0 1 67.5,200 22.5,22.5 0 0 0 90,177.5 V 67.5 A 22.5,22.5 0 0 0 67.5,45 22.5,22.5 0 0 0 45,67.5 v 45 A 22.5,22.5 0 0 1 22.5,135 22.5,22.5 0 0 1 0,112.5 v -45 A 67.5,67.5 0 0 1 67.5,0 67.5,67.5 0 0 1 135,67.5 v 565 A 67.5,67.5 0 0 1 67.5,700 Z m 0,-45 A 22.5,22.5 0 0 0 90,632.5 v -365 A 22.5,22.5 0 0 0 67.5,245 22.5,22.5 0 0 0 45,267.5 v 365 A 22.5,22.5 0 0 0 67.5,655 Z" />
      <glyph
         glyph-name="h"
         unicode="h"
         id="glyph217"
         d="M 22.5,900 A 22.5,22.5 0 0 1 0,877.5 v -655 A 22.5,22.5 0 0 1 22.5,200 22.5,22.5 0 0 1 45,222.5 v 410 A 22.5,22.5 0 0 0 67.5,655 22.5,22.5 0 0 0 90,632.5 v -410 A 22.5,22.5 0 0 1 112.5,200 22.5,22.5 0 0 1 135,222.5 v 410 A 67.5,67.5 0 0 1 67.5,700 22.5,22.5 0 0 0 45,722.5 v 155 A 22.5,22.5 0 0 1 22.5,900 Z" />
      <glyph
         glyph-name="i"
         unicode="i"
         id="glyph218"
         d="M 22.5,790 A 22.5,22.5 0 0 1 0,767.5 22.5,22.5 0 0 1 22.5,745 22.5,22.5 0 0 1 45.000002,767.5 22.5,22.5 0 0 1 22.5,790 Z m 0,-90 A 22.5,22.5 0 0 1 0,677.5 v -455 A 22.5,22.5 0 0 1 22.5,200 22.5,22.5 0 0 1 45.000002,222.5 v 455 A 22.5,22.5 0 0 1 22.5,700 Z"
         horiz-adv-x="90" />
      <glyph
         glyph-name="j"
         unicode="j"
         id="glyph219"
         d="M 22.5,790 A 22.5,22.5 0 0 1 0,767.5 22.5,22.5 0 0 1 22.5,745 22.5,22.5 0 0 1 45,767.5 22.5,22.5 0 0 1 22.5,790 Z m 0,-90 A 22.5,22.5 0 0 1 0,677.5 V 67.5 A 22.5,22.5 0 0 0 -22.5,45 22.5,22.5 0 0 0 -45,67.5 v 45 A 22.5,22.5 0 0 1 -67.5,135 22.5,22.5 0 0 1 -90,112.5 v -45 A 67.5,67.5 0 0 1 -22.5,0 67.5,67.5 0 0 1 45,67.5 v 610 A 22.5,22.5 0 0 1 22.5,700 Z"
         horiz-adv-x="90" />
      <glyph
         glyph-name="k"
         unicode="k"
         id="glyph220"
         d="M 22.5,900 A 22.5,22.5 0 0 1 0,877.5 v -655 A 22.5,22.5 0 0 1 22.5,200 22.5,22.5 0 0 1 45,222.5 V 405 A 22.5,22.5 0 0 0 67.5,427.5 22.5,22.5 0 0 0 90,405 V 222.5 A 22.5,22.5 0 0 1 112.5,200 22.5,22.5 0 0 1 135,222.5 V 405 A 67.5,67.5 0 0 1 67.5,472.5 22.5,22.5 0 0 0 45,495 22.5,22.5 0 0 0 67.5,517.5 67.5,67.5 0 0 1 135,585 v 92.5 A 22.5,22.5 0 0 1 112.5,700 22.5,22.5 0 0 1 90,677.5 V 585 A 22.5,22.5 0 0 0 67.5,562.5 22.5,22.5 0 0 0 45,585 V 877.5 A 22.5,22.5 0 0 1 22.5,900 Z" />
      <glyph
         glyph-name="l"
         unicode="l"
         id="glyph221"
         d="M 22.5,900 A 22.5,22.5 0 0 1 0,877.5 v -655 A 22.5,22.5 0 0 1 22.5,200 22.5,22.5 0 0 1 45,222.5 v 655 A 22.5,22.5 0 0 1 22.5,900 Z"
         horiz-adv-x="90" />
      <glyph
         glyph-name="m"
         unicode="m"
         id="glyph222"
         d="M 67.5,700 A 67.5,67.5 0 0 1 0,632.5 v -410 A 22.5,22.5 0 0 1 22.5,200 22.5,22.5 0 0 1 45,222.5 v 410 A 22.5,22.5 0 0 0 67.5,655 22.5,22.5 0 0 0 90,632.5 v -410 A 22.5,22.5 0 0 1 112.5,200 22.5,22.5 0 0 1 135,222.5 v 410 A 22.5,22.5 0 0 0 157.5,655 22.5,22.5 0 0 0 180,632.5 v -410 A 22.5,22.5 0 0 1 202.5,200 22.5,22.5 0 0 1 225,222.5 v 410 A 67.5,67.5 0 0 1 157.5,700 Z"
         horiz-adv-x="270" />
      <glyph
         glyph-name="n"
         unicode="n"
         id="glyph223"
         d="M 67.5,700 A 67.5,67.5 0 0 1 0,632.5 v -410 A 22.5,22.5 0 0 1 22.5,200 22.5,22.5 0 0 1 45,222.5 v 410 A 22.5,22.5 0 0 0 67.5,655 22.5,22.5 0 0 0 90,632.5 v -410 A 22.5,22.5 0 0 1 112.5,200 22.5,22.5 0 0 1 135,222.5 v 410 A 67.5,67.5 0 0 1 67.5,700 Z" />
      <glyph
         glyph-name="o"
         unicode="o"
         id="glyph224"
         d="m 67.5,699.99997 a 67.5,67.5 0 0 1 -67.5,-67.5 v -365 a 67.5,67.5 0 0 1 67.5,-67.5 67.5,67.5 0 0 1 67.5,67.5 v 365 a 67.5,67.5 0 0 1 -67.5,67.5 z m 0,-45 a 22.5,22.5 0 0 0 22.5,-22.5 v -365 a 22.5,22.5 0 0 0 -22.5,-22.5 22.5,22.5 0 0 0 -22.5,22.5 v 365 a 22.5,22.5 0 0 0 22.5,22.5 z" />
      <glyph
         glyph-name="p"
         unicode="p"
         id="glyph225"
         d="M 67.5,699.99997 A 67.5,67.5 0 0 1 0,632.49997 V 22.5 A 22.5,22.5 0 0 1 22.5,0 22.5,22.5 0 0 1 45,22.5 v 154.99997 a 22.5,22.5 0 0 0 22.5,22.5 67.5,67.5 0 0 1 67.5,67.5 v 365 a 67.5,67.5 0 0 1 -67.5,67.5 z m 0,-45 a 22.5,22.5 0 0 0 22.5,-22.5 v -365 a 22.5,22.5 0 0 0 -22.5,-22.5 22.5,22.5 0 0 0 -22.5,22.5 v 365 a 22.5,22.5 0 0 0 22.5,22.5 z" />
      <glyph
         glyph-name="q"
         unicode="q"
         id="glyph226"
         d="m 67.5,699.99997 a 67.5,67.5 0 0 1 -67.5,-67.5 v -365 a 67.5,67.5 0 0 1 67.5,-67.5 22.5,22.5 0 0 0 22.5,-22.5 V 22.4999 a 22.5,22.5 0 0 1 22.5,-22.5 22.5,22.5 0 0 1 22.5,22.5 v 610.00007 a 67.5,67.5 0 0 1 -67.5,67.5 z m 0,-45 a 22.5,22.5 0 0 0 22.5,-22.5 v -365 a 22.5,22.5 0 0 0 -22.5,-22.5 22.5,22.5 0 0 0 -22.5,22.5 v 365 a 22.5,22.5 0 0 0 22.5,22.5 z" />
      <glyph
         glyph-name="r"
         unicode="r"
         id="glyph227"
         d="M 67.5,700 A 67.5,67.5 0 0 1 0,632.5 v -410 A 22.5,22.5 0 0 1 22.5,200 22.5,22.5 0 0 1 45,222.5 v 410 A 22.5,22.5 0 0 0 67.5,655 22.5,22.5 0 0 1 90,677.5 22.5,22.5 0 0 1 67.5,700 Z"
         horiz-adv-x="135" />
      <glyph
         glyph-name="s"
         unicode="s"
         id="glyph228"
         d="m 67.5,700.00003 a 67.5,67.5 0 0 1 -67.5,-67.5 v -90 a 67.5,67.5 0 0 1 67.5,-67.5 22.5,22.5 0 0 0 22.5,-22.5 v -185 a 22.5,22.5 0 0 0 -22.5,-22.5 22.5,22.5 0 0 0 -22.5,22.5 v 140 a 22.5,22.5 0 0 1 -22.5,22.5 22.5,22.5 0 0 1 -22.5,-22.5 v -140 a 67.5,67.5 0 0 1 67.5,-67.5 67.5,67.5 0 0 1 67.5,67.5 v 185 a 67.5,67.5 0 0 1 -67.5,67.5 22.5,22.5 0 0 0 -22.5,22.5 v 90 a 22.5,22.5 0 0 0 22.5,22.5 22.5,22.5 0 0 0 22.5,-22.5 v -45 a 22.5,22.5 0 0 1 22.5,-22.5 22.5,22.5 0 0 1 22.5,22.5 v 45 a 67.5,67.5 0 0 1 -67.5,67.5 z" />
      <glyph
         glyph-name="t"
         unicode="t"
         id="glyph229"
         d="M 22.5,900 A 22.5,22.5 0 0 1 0,877.5 v -110 A 22.5,22.5 0 0 0 -22.5,745 22.5,22.5 0 0 1 -45,722.5 22.5,22.5 0 0 1 -22.5,700 22.5,22.5 0 0 0 0,677.5 v -455 A 22.5,22.5 0 0 1 22.5,200 22.5,22.5 0 0 1 45,222.5 v 455 A 22.5,22.5 0 0 0 67.5,700 22.5,22.5 0 0 1 89.999998,722.5 22.5,22.5 0 0 1 67.5,745 22.5,22.5 0 0 0 45,767.5 v 110 A 22.5,22.5 0 0 1 22.5,900 Z"
         horiz-adv-x="90" />
      <glyph
         glyph-name="u"
         unicode="u"
         id="glyph230"
         d="m 22.5,699.99997 a 22.5,22.5 0 0 1 -22.5,-22.5 v -410 a 67.5,67.5 0 0 1 67.5,-67.5 67.5,67.5 0 0 1 67.5,67.5 v 410 a 22.5,22.5 0 0 1 -22.5,22.5 22.5,22.5 0 0 1 -22.500001,-22.5 v -410 a 22.5,22.5 0 0 0 -22.499999,-22.5 22.5,22.5 0 0 0 -22.5,22.5 v 410 a 22.5,22.5 0 0 1 -22.5,22.5 z" />
      <glyph
         glyph-name="v"
         unicode="v"
         id="glyph231"
         d="m 22.5,699.99997 a 22.5,22.5 0 0 1 -22.5,-22.5 v -410 a 67.5,67.5 0 0 1 67.5,-67.5 67.5,67.5 0 0 1 67.5,67.5 v 410 a 22.5,22.5 0 0 1 -22.5,22.5 22.5,22.5 0 0 1 -22.500001,-22.5 v -410 a 22.5,22.5 0 0 0 -22.499999,-22.5 22.5,22.5 0 0 0 -22.5,22.5 v 410 a 22.5,22.5 0 0 1 -22.5,22.5 z" />
      <glyph
         glyph-name="w"
         unicode="w"
         id="glyph232"
         d="M 22.5,700 A 22.5,22.5 0 0 1 0,677.5 v -410 A 67.5,67.5 0 0 1 67.5,200 h 90 a 67.5,67.5 0 0 1 67.5,67.5 v 410 A 22.5,22.5 0 0 1 202.5,700 22.5,22.5 0 0 1 180,677.5 v -410 A 22.5,22.5 0 0 0 157.5,245 22.5,22.5 0 0 0 135,267.5 v 410 A 22.5,22.5 0 0 1 112.5,700 22.5,22.5 0 0 1 90,677.5 v -410 A 22.5,22.5 0 0 0 67.5,245 22.5,22.5 0 0 0 45,267.5 v 410 A 22.5,22.5 0 0 1 22.5,700 Z"
         horiz-adv-x="270" />
      <glyph
         glyph-name="x"
         unicode="x"
         id="glyph233"
         d="M 22.5,700 A 22.5,22.5 0 0 1 0,677.5 V 540 A 67.5,67.5 0 0 1 67.5,472.5 67.5,67.5 0 0 1 135,540 V 677.5 A 22.5,22.5 0 0 1 112.5,700 22.5,22.5 0 0 1 90,677.5 V 540 A 22.5,22.5 0 0 0 67.5,517.5 22.5,22.5 0 0 0 45,540 V 677.5 A 22.5,22.5 0 0 1 22.5,700 Z m 45,-272.5 A 67.5,67.5 0 0 1 0,360 V 222.5 A 22.5,22.5 0 0 1 22.5,200 22.5,22.5 0 0 1 45,222.5 V 360 A 22.5,22.5 0 0 0 67.5,382.5 22.5,22.5 0 0 0 90,360 V 222.5 A 22.5,22.5 0 0 1 112.5,200 22.5,22.5 0 0 1 135,222.5 V 360 a 67.5,67.5 0 0 1 -67.5,67.5 z" />
      <glyph
         glyph-name="y"
         unicode="y"
         id="glyph234"
         d="M 22.499999,700 A 22.5,22.5 0 0 1 0,677.5 v -410 a 67.5,67.5 0 0 1 67.499999,-67.5 22.5,22.5 0 0 0 22.5,-22.5 V 22.5 A 22.5,22.5 0 0 1 112.5,0 22.5,22.5 0 0 1 135,22.5 v 655 A 22.5,22.5 0 0 1 112.5,700 22.5,22.5 0 0 1 89.999999,677.5 v -410 a 22.5,22.5 0 0 0 -22.5,-22.5 22.5,22.5 0 0 0 -22.5,22.5 v 410 a 22.5,22.5 0 0 1 -22.5,22.5 z" />
      <glyph
         glyph-name="z"
         unicode="z"
         id="glyph235"
         d="m 22.5,700.00003 a 22.5,22.5 0 0 1 -22.5,-22.5 22.5,22.5 0 0 1 22.5,-22.5 h 44.999997 a 22.5,22.5 0 0 0 22.5,-22.5 v -90 a 22.5,22.5 0 0 0 -22.5,-22.5 A 67.5,67.5 0 0 1 0,452.50003 v -185 a 67.5,67.5 0 0 1 67.499997,-67.5 H 112.5 a 22.5,22.5 0 0 1 22.5,22.5 22.5,22.5 0 0 1 -22.5,22.5 H 67.499997 A 22.5,22.5 0 0 0 45,267.50003 v 185 a 22.5,22.5 0 0 0 22.499997,22.5 67.5,67.5 0 0 1 67.500003,67.5 v 90 a 67.5,67.5 0 0 1 -67.500003,67.5 z" />
      <glyph
         glyph-name="braces_open"
         unicode="{"
         id="glyph236"
         d="m 112.5,945 v -0.002 a 67.5,67.5 0 0 1 -67.499997,-67.49804 67.5,67.5 0 0 1 0,-0.002 v -282.5 a 22.5,22.5 0 0 0 -22.500003,-22.5 22.5,22.5 0 0 1 -22.5,-22.5 22.5,22.5 0 0 1 22.5,-22.5 22.5,22.5 0 0 0 22.500003,-22.5 V 222.5 h 45 V 877.49804 877.5 A 22.5,22.5 0 0 0 112.5,899.99804 V 900 h 45 A 22.5,22.5 0 0 1 180,922.5 22.5,22.5 0 0 1 157.5,945 Z M 45.000003,222.49804 A 67.5,67.5 0 0 1 112.5,154.99804 V 155 h 45 A 22.5,22.5 0 0 1 180,177.5 22.5,22.5 0 0 1 157.5,200 h -45 v -0.002 a 22.5,22.5 0 0 0 -22.499997,22.5 z"
         horiz-adv-x="225" />
      <glyph
         glyph-name="or"
         unicode="|"
         id="glyph237"
         d="M 22.5,990.00002 A 22.5,22.5 0 0 1 0,967.50002 V 132.5 A 22.5,22.5 0 0 1 22.5,110 22.5,22.5 0 0 1 45,132.5 v 835.00002 a 22.5,22.5 0 0 1 -22.5,22.5 z"
         horiz-adv-x="90" />
      <glyph
         glyph-name="braces_close"
         unicode="}"
         id="glyph238"
         d="M 22.5,945 A 22.5,22.5 0 0 1 0,922.5 22.5,22.5 0 0 1 22.5,900 h 45 A 22.5,22.5 0 0 0 90,877.5 v -655 A 22.5,22.5 0 0 0 67.5,200 h -45 A 22.5,22.5 0 0 1 0,177.5 22.5,22.5 0 0 1 22.5,155 h 45 A 67.5,67.5 0 0 1 135,222.5 V 505 A 22.5,22.5 0 0 0 157.5,527.5 22.5,22.5 0 0 1 180,550 22.5,22.5 0 0 1 157.5,572.5 22.5,22.5 0 0 0 135,595 V 877.5 A 67.5,67.5 0 0 1 67.5,945 Z"
         horiz-adv-x="225" />
      <glyph
         glyph-name="snake"
         unicode="~"
         id="glyph239"
         d="m 67.5,517.49998 a 67.5,67.5 0 0 1 -67.5,-67.5 v -22.5 a 22.5,22.5 0 0 1 22.5,-22.5 22.5,22.5 0 0 1 22.5,22.5 v 22.5 a 22.5,22.5 0 0 0 22.5,22.5 22.5,22.5 0 0 0 22.5,-22.5 67.5,67.5 0 0 1 67.5,-67.5 67.5,67.5 0 0 1 67.5,67.5 v 22.5 a 22.5,22.5 0 0 1 -22.5,22.5 22.5,22.5 0 0 1 -22.5,-22.5 v -22.5 a 22.5,22.5 0 0 0 -22.5,-22.5 22.5,22.5 0 0 0 -22.5,22.5 67.5,67.5 0 0 1 -67.5,67.5 z"
         horiz-adv-x="270" />
      <glyph
         glyph-name="degree"
         unicode="°"
         id="glyph2"
         d="M 67.5,900 A 67.5,67.5 0 0 1 0,832.5 67.5,67.5 0 0 1 67.5,765 67.5,67.5 0 0 1 135,832.5 67.5,67.5 0 0 1 67.5,900 Z m 0,-45 A 22.5,22.5 0 0 0 90,832.5 22.5,22.5 0 0 0 67.5,810 22.5,22.5 0 0 0 45,832.5 22.5,22.5 0 0 0 67.5,855 Z" />
      <glyph
         glyph-name="ä"
         unicode="ä"
         id="glyph5"
         d="M 22.5,790 A 22.5,22.5 0 0 1 0,767.5 22.5,22.5 0 0 1 22.5,745 22.5,22.5 0 0 1 45,767.5 22.5,22.5 0 0 1 22.5,790 Z m 90,0 A 22.5,22.5 0 0 1 90,767.5 22.5,22.5 0 0 1 112.5,745 22.5,22.5 0 0 1 135,767.5 22.5,22.5 0 0 1 112.5,790 Z m -45,-90 A 67.5,67.5 0 0 1 0,632.5 v -45 A 22.5,22.5 0 0 1 22.5,565 22.5,22.5 0 0 1 45,587.5 v 45 A 22.5,22.5 0 0 0 67.5,655 22.5,22.5 0 0 0 90,632.5 V 495 A 22.5,22.5 0 0 0 67.5,472.5 67.5,67.5 0 0 1 0,405 V 267.5 A 67.5,67.5 0 0 1 67.5,200 67.5,67.5 0 0 1 135,267.5 v 365 A 67.5,67.5 0 0 1 67.5,700 Z m 0,-272.5 A 22.5,22.5 0 0 0 90,405 V 267.5 A 22.5,22.5 0 0 0 67.5,245 22.5,22.5 0 0 0 45,267.5 V 405 a 22.5,22.5 0 0 0 22.5,22.5 z" />
      <glyph
         glyph-name="ö"
         unicode="ö"
         id="glyph30"
         d="M 22.5,790 A 22.5,22.5 0 0 1 0,767.5 22.5,22.5 0 0 1 22.5,745 22.5,22.5 0 0 1 45,767.5 22.5,22.5 0 0 1 22.5,790 Z m 90,0 A 22.5,22.5 0 0 1 90,767.5 22.5,22.5 0 0 1 112.5,745 22.5,22.5 0 0 1 135,767.5 22.5,22.5 0 0 1 112.5,790 Z m -45,-90 A 67.5,67.5 0 0 1 0,632.5 v -365 A 67.5,67.5 0 0 1 67.5,200 67.5,67.5 0 0 1 135,267.5 v 365 A 67.5,67.5 0 0 1 67.5,700 Z m 0,-45 A 22.5,22.5 0 0 0 90,632.5 v -365 A 22.5,22.5 0 0 0 67.5,245 22.5,22.5 0 0 0 45,267.5 v 365 A 22.5,22.5 0 0 0 67.5,655 Z" />
      <glyph
         glyph-name="ü"
         unicode="ü"
         id="glyph31"
         d="m 22.50195,790 a 22.5,22.5 0 0 1 -22.5,-22.5 22.5,22.5 0 0 1 22.5,-22.5 22.5,22.5 0 0 1 22.5,22.5 22.5,22.5 0 0 1 -22.5,22.5 z m 90,0 A 22.5,22.5 0 0 1 90.001951,767.5 22.5,22.5 0 0 1 112.50195,745 a 22.5,22.5 0 0 1 22.5,22.5 22.5,22.5 0 0 1 -22.5,22.5 z M 22.5,700 A 22.5,22.5 0 0 1 0,677.5 v -410 A 67.5,67.5 0 0 1 67.500001,200 67.5,67.5 0 0 1 135,267.5 v 410 A 22.5,22.5 0 0 1 112.5,700 22.5,22.5 0 0 1 90.000001,677.5 v -410 A 22.5,22.5 0 0 0 67.500001,245 22.5,22.5 0 0 0 45,267.5 v 410 A 22.5,22.5 0 0 1 22.5,700 Z" />
      <glyph
         glyph-name="Ä"
         unicode="Ä"
         id="glyph113"
         d="M 22.5,990 A 22.5,22.5 0 0 1 0,967.5 22.5,22.5 0 0 1 22.5,945 22.5,22.5 0 0 1 45,967.5 22.5,22.5 0 0 1 22.5,990 Z m 90,0 A 22.5,22.5 0 0 1 89.999998,967.5 22.5,22.5 0 0 1 112.5,945 22.5,22.5 0 0 1 135,967.5 22.5,22.5 0 0 1 112.5,990 Z M 67.499998,900 A 67.5,67.5 0 0 1 0,832.5 v -610 A 22.5,22.5 0 0 1 22.5,200 22.5,22.5 0 0 1 45,222.5 V 610 a 22.5,22.5 0 0 0 22.499998,22.5 22.5,22.5 0 0 0 22.5,-22.5 V 222.5 A 22.5,22.5 0 0 1 112.5,200 22.5,22.5 0 0 1 135,222.5 v 610 A 67.5,67.5 0 0 1 67.499998,900 Z m 0,-45 a 22.5,22.5 0 0 0 22.5,-22.5 V 700 a 22.5,22.5 0 0 0 -22.5,-22.5 A 22.5,22.5 0 0 0 45,700 V 832.5 A 22.5,22.5 0 0 0 67.499998,855 Z" />
      <glyph
         glyph-name="Ö"
         unicode="Ö"
         id="glyph114"
         d="M 22.5,990 A 22.5,22.5 0 0 1 0,967.5 22.5,22.5 0 0 1 22.5,945 22.5,22.5 0 0 1 45,967.5 22.5,22.5 0 0 1 22.5,990 Z m 90,0 A 22.5,22.5 0 0 1 90,967.5 22.5,22.5 0 0 1 112.5,945 22.5,22.5 0 0 1 135,967.5 22.5,22.5 0 0 1 112.5,990 Z m -45,-90 A 67.5,67.5 0 0 1 0,832.5 v -565 A 67.5,67.5 0 0 1 67.5,200 67.5,67.5 0 0 1 135,267.5 v 565 A 67.5,67.5 0 0 1 67.5,900 Z m 0,-45 A 22.5,22.5 0 0 0 90,832.5 v -565 A 22.5,22.5 0 0 0 67.5,245 22.5,22.5 0 0 0 45,267.5 v 565 A 22.5,22.5 0 0 0 67.5,855 Z" />
      <glyph
         glyph-name="Ü"
         unicode="Ü"
         id="glyph115"
         d="M 22.507812,990 A 22.5,22.5 0 0 1 0.0078125,967.5 22.5,22.5 0 0 1 22.507812,945 a 22.5,22.5 0 0 1 22.5,22.5 22.5,22.5 0 0 1 -22.5,22.5 z m 89.999998,0 A 22.5,22.5 0 0 1 90.007812,967.5 22.5,22.5 0 0 1 112.50781,945 a 22.5,22.5 0 0 1 22.5,22.5 22.5,22.5 0 0 1 -22.5,22.5 z M 22.5,900 A 22.5,22.5 0 0 1 0,877.5 v -610 A 67.5,67.5 0 0 1 67.5,200 67.5,67.5 0 0 1 135,267.5 v 610 A 22.5,22.5 0 0 1 112.5,900 22.5,22.5 0 0 1 90,877.5 v -610 A 22.5,22.5 0 0 0 67.5,245 22.5,22.5 0 0 0 45,267.5 v 610 A 22.5,22.5 0 0 1 22.5,900 Z" />
      <glyph
         glyph-name="space"
         unicode=" "
         id="glyph240" />
      <glyph
         glyph-name="euro"
         unicode="€"
         id="glyph241"
         d="M 112.5,900 A 67.5,67.5 0 0 1 45.000001,832.5 V 700 a 22.5,22.5 0 0 0 -22.5,-22.5 A 22.5,22.5 0 0 1 0,655 a 22.5,22.5 0 0 1 22.500001,-22.5 22.5,22.5 0 0 0 22.5,-22.5 22.5,22.5 0 0 0 -22.5,-22.5 A 22.5,22.5 0 0 1 0,565 a 22.5,22.5 0 0 1 22.500001,-22.5 22.5,22.5 0 0 0 22.5,-22.5 V 267.5 A 67.5,67.5 0 0 1 112.5,200 h 45 A 22.5,22.5 0 0 1 180,222.5 22.5,22.5 0 0 1 157.5,245 h -45 A 22.5,22.5 0 0 0 90.000001,267.5 V 520 A 22.5,22.5 0 0 0 112.5,542.5 H 135 A 22.5,22.5 0 0 1 157.5,565 22.5,22.5 0 0 1 135,587.5 H 112.5 A 22.5,22.5 0 0 0 90.000001,610 22.5,22.5 0 0 0 112.5,632.5 H 135 A 22.5,22.5 0 0 1 157.5,655 22.5,22.5 0 0 1 135,677.5 H 112.5 A 22.5,22.5 0 0 0 90.000001,700 V 832.5 A 22.5,22.5 0 0 0 112.5,855 h 45 A 22.5,22.5 0 0 1 180,877.5 22.5,22.5 0 0 1 157.5,900 Z"
         horiz-adv-x="225" />
      <glyph
         glyph-name="sad_face"
         unicode="´"
         id="glyph422"
         d="M 90,880 A 22.5,22.5 0 0 1 67.5,857.5 v -90 A 22.5,22.5 0 0 1 90,745 a 22.5,22.5 0 0 1 22.5,22.5 v 90 A 22.5,22.5 0 0 1 90,880 Z m 90,0 a 22.5,22.5 0 0 1 -22.5,-22.5 v -90 A 22.5,22.5 0 0 1 180,745 a 22.5,22.5 0 0 1 22.5,22.5 v 90 A 22.5,22.5 0 0 1 180,880 Z M 67.5,700 A 67.5,67.5 0 0 1 0,632.5 22.5,22.5 0 0 1 22.5,610 22.5,22.5 0 0 1 45,632.5 22.5,22.5 0 0 0 67.5,655 h 135 A 22.5,22.5 0 0 0 225,632.5 22.5,22.5 0 0 1 247.5,610 22.5,22.5 0 0 1 270,632.5 67.5,67.5 0 0 1 202.5,700 Z"
         horiz-adv-x="315" />
      <glyph
         glyph-name="happy_face"
         unicode="§"
         id="glyph423"
         d="m 90.000003,879.99997 a 22.5,22.5 0 0 1 -22.5,-22.5 v -90 a 22.5,22.5 0 0 1 22.5,-22.5 22.5,22.5 0 0 1 22.499997,22.5 v 90 a 22.5,22.5 0 0 1 -22.499997,22.5 z m 89.999997,0 a 22.5,22.5 0 0 1 -22.5,-22.5 v -90 a 22.5,22.5 0 0 1 22.5,-22.5 22.5,22.5 0 0 1 22.5,22.5 v 90 a 22.5,22.5 0 0 1 -22.5,22.5 z m -157.5,-157.5 a 22.5,22.5 0 0 1 -22.5,-22.5 67.5,67.5 0 0 1 67.500003,-67.5 H 202.5 a 67.5,67.5 0 0 1 67.5,67.5 22.5,22.5 0 0 1 -22.5,22.5 22.5,22.5 0 0 1 -22.5,-22.5 22.5,22.5 0 0 0 -22.5,-22.5 H 67.500003 A 22.5,22.5 0 0 0 45,699.99997 a 22.5,22.5 0 0 1 -22.5,22.5 z"
         horiz-adv-x="315" />
      <glyph
         glyph-name="g_j"
         unicode="gj"
         id="glyph461"
         d="M 202.5,790 A 22.5,22.5 0 0 1 180,767.5 22.5,22.5 0 0 1 202.5,745 22.5,22.5 0 0 1 225,767.5 22.5,22.5 0 0 1 202.5,790 Z M 67.499996,700 A 67.5,67.5 0 0 1 0,632.5 v -365 a 67.5,67.5 0 0 1 67.499996,-67.5 22.5,22.5 0 0 0 22.5,-22.5 V 67.5 A 22.5,22.5 0 0 0 67.499996,45 22.5,22.5 0 0 0 45,67.5 v 45 A 22.5,22.5 0 0 1 22.5,135 22.5,22.5 0 0 1 0,112.5 v -45 A 67.5,67.5 0 0 1 67.499996,10e-5 H 157.5 A 67.5,67.5 0 0 1 225,67.5 v 610 A 22.5,22.5 0 0 1 202.5,700 22.5,22.5 0 0 1 180,677.5 V 67.5 A 22.5,22.5 0 0 0 157.5,45 22.5,22.5 0 0 0 135,67.5 v 565 A 67.5,67.5 0 0 1 67.499996,700 Z m 0,-45 a 22.5,22.5 0 0 0 22.5,-22.5 v -365 A 22.5,22.5 0 0 0 67.499996,245 22.5,22.5 0 0 0 45,267.5 v 365 A 22.5,22.5 0 0 0 67.499996,655 Z"
         horiz-adv-x="270.00" />
      <glyph
         glyph-name="j_j"
         unicode="jj"
         id="glyph522"
         d="M 22.5,790 A 22.5,22.5 0 0 1 0,767.5 22.5,22.5 0 0 1 22.5,745 22.5,22.5 0 0 1 45,767.5 22.5,22.5 0 0 1 22.5,790 Z m 90,0 A 22.5,22.5 0 0 1 90,767.5 22.5,22.5 0 0 1 112.5,745 22.5,22.5 0 0 1 135,767.5 22.5,22.5 0 0 1 112.5,790 Z m -90,-90 A 22.5,22.5 0 0 1 0,677.5 v -565 -45 A 22.5,22.5 0 0 0 -22.5,45 22.5,22.5 0 0 0 -45,67.5 v 45 A 22.5,22.5 0 0 1 -67.5,135 22.5,22.5 0 0 1 -90,112.5 v -45 A 67.5,67.5 0 0 1 -22.5,0 h 90 A 67.5,67.5 0 0 1 135,67.5 v 610 A 22.5,22.5 0 0 1 112.5,700 22.5,22.5 0 0 1 90,677.5 V 67.5 A 22.5,22.5 0 0 0 67.5,45 22.5,22.5 0 0 0 45,67.5 v 45 565 A 22.5,22.5 0 0 1 22.5,700 Z"
         horiz-adv-x="180" />
      <glyph
         glyph-name="q_j"
         unicode="qj"
         id="glyph523"
         d="M 202.5,790 A 22.5,22.5 0 0 1 180,767.5 22.5,22.5 0 0 1 202.5,745 22.5,22.5 0 0 1 225,767.5 22.5,22.5 0 0 1 202.5,790 Z M 67.5,700 A 67.5,67.5 0 0 1 0,632.5 v -365 A 67.5,67.5 0 0 1 67.5,200 22.5,22.5 0 0 0 90,177.5 V 67.5 A 67.5,67.5 0 0 1 157.5,0 67.5,67.5 0 0 1 225,67.5 v 610 A 22.5,22.5 0 0 1 202.5,700 22.5,22.5 0 0 1 180,677.5 V 67.5 A 22.5,22.5 0 0 0 157.5,45 22.5,22.5 0 0 0 135,67.5 v 565 A 67.5,67.5 0 0 1 67.5,700 Z m 0,-45 A 22.5,22.5 0 0 0 90,632.5 v -365 A 22.5,22.5 0 0 0 67.5,245 22.5,22.5 0 0 0 45,267.5 v 365 A 22.5,22.5 0 0 0 67.5,655 Z"
         horiz-adv-x="270.00" />
      <glyph
         glyph-name="y_j"
         unicode="yj"
         id="glyph524"
         d="M 202.5,790 A 22.5,22.5 0 0 1 180,767.5 22.5,22.5 0 0 1 202.5,745 22.5,22.5 0 0 1 225,767.5 22.5,22.5 0 0 1 202.5,790 Z M 22.5,700 A 22.5,22.5 0 0 1 0,677.5 v -410 A 67.5,67.5 0 0 1 67.5,200 22.5,22.5 0 0 0 90,177.5 V 67.5 A 67.5,67.5 0 0 1 157.5,0 67.5,67.5 0 0 1 225,67.5 v 610 A 22.5,22.5 0 0 1 202.5,700 22.5,22.5 0 0 1 180,677.5 V 67.5 A 22.5,22.5 0 0 0 157.5,45 22.5,22.5 0 0 0 135,67.5 v 610 A 22.5,22.5 0 0 1 112.5,700 22.5,22.5 0 0 1 90,677.5 v -410 A 22.5,22.5 0 0 0 67.5,245 22.5,22.5 0 0 0 45,267.5 v 410 A 22.5,22.5 0 0 1 22.5,700 Z"
         horiz-adv-x="270.00" />
      <glyph
         glyph-name="parentheses_j"
         unicode="(j"
         id="glyph563"
         d="M 67.49999,1034.9688 A 67.5,67.5 0 0 1 0,967.46875 V 157.5 A 67.5,67.5 0 0 1 67.49999,90 a 22.5,22.5 0 0 0 22.5,-22.5 67.5,67.5 0 0 1 67.5,-67.5 67.5,67.5 0 0 1 67.5,67.5 v 610 a 22.5,22.5 0 0 1 -22.5,22.5 22.5,22.5 0 0 1 -22.5,-22.5 v -610 a 22.5,22.5 0 0 0 -22.5,-22.5 22.5,22.5 0 0 0 -22.5,22.5 67.5,67.5 0 0 1 -67.5,67.5 A 22.5,22.5 0 0 0 45,157.5 v 809.96875 a 22.5,22.5 0 0 0 22.49999,22.5 22.5,22.5 0 0 0 22.5,-22.5 h 0.002 A 22.5,22.5 0 0 1 112.49999,945 a 22.5,22.5 0 0 1 22.49805,22.46875 h 0.002 a 67.5,67.5 0 0 1 -0.002,0.0156 22.5,22.5 0 0 1 0.002,0.0156 22.5,22.5 0 0 1 -0.18945,2.85547 67.5,67.5 0 0 1 -67.3106,64.61332 z m 135,-244.9688 a 22.5,22.5 0 0 1 -22.5,-22.5 22.5,22.5 0 0 1 22.5,-22.5 22.5,22.5 0 0 1 22.5,22.5 22.5,22.5 0 0 1 -22.5,22.5 z"
         horiz-adv-x="270" />
      <glyph
         glyph-name="f_b"
         unicode="fb"
         id="glyph724"
         d="M 67.500002,900 A 67.5,67.5 0 0 1 0,832.5 v -65 A 22.5,22.5 0 0 0 -22.5,745 22.5,22.5 0 0 1 -45,722.5 22.5,22.5 0 0 1 -22.5,700 22.5,22.5 0 0 0 0,677.5 v -455 a 22.5,22.5 0 0 1 22.500002,-22.5 22.5,22.5 0 0 1 22.5,22.5 v 455 a 22.5,22.5 0 0 0 22.5,22.5 22.5,22.5 0 0 0 22.5,-22.5 v -410 A 67.5,67.5 0 0 1 157.5,200 67.5,67.5 0 0 1 225,267.5 v 365 A 67.5,67.5 0 0 1 157.5,700 22.5,22.5 0 0 0 135,722.5 v 110 A 67.5,67.5 0 0 1 67.500002,900 Z m 0,-45 a 22.5,22.5 0 0 0 22.5,-22.5 v -65 a 22.5,22.5 0 0 0 -22.5,-22.5 22.5,22.5 0 0 0 -22.5,22.5 v 65 a 22.5,22.5 0 0 0 22.5,22.5 z M 157.5,655 A 22.5,22.5 0 0 0 180,632.5 v -365 A 22.5,22.5 0 0 0 157.5,245 22.5,22.5 0 0 0 135,267.5 v 365 a 22.5,22.5 0 0 0 22.5,22.5 z"
         horiz-adv-x="270.00" />
      <glyph
         glyph-name="f_f"
         unicode="ff"
         id="glyph725"
         d="M 67.5,900 A 67.5,67.5 0 0 1 0,832.5 v -65 A 22.5,22.5 0 0 0 -22.5,745 22.5,22.5 0 0 1 -45,722.5 22.5,22.5 0 0 1 -22.5,700 22.5,22.5 0 0 0 0,677.5 v -455 A 22.5,22.5 0 0 1 22.5,200 22.5,22.5 0 0 1 45,222.5 v 455 A 22.5,22.5 0 0 0 67.5,700 22.5,22.5 0 0 0 90,677.5 v -455 A 22.5,22.5 0 0 1 112.5,200 22.5,22.5 0 0 1 135,222.5 v 455 A 22.5,22.5 0 0 0 157.5,700 H 180 A 22.5,22.5 0 0 1 202.5,722.5 22.5,22.5 0 0 1 180,745 H 157.5 A 22.5,22.5 0 0 0 135,767.5 V 810 832.5 A 22.5,22.5 0 0 0 157.5,855 22.5,22.5 0 0 0 180,832.5 V 810 A 22.5,22.5 0 0 1 202.5,787.5 22.5,22.5 0 0 1 225,810 v 22.5 A 67.5,67.5 0 0 1 157.5,900 Z m 0,-45 A 22.5,22.5 0 0 0 90,832.5 V 810 767.5 A 22.5,22.5 0 0 0 67.5,745 22.5,22.5 0 0 0 45,767.5 v 65 A 22.5,22.5 0 0 0 67.5,855 Z"
         horiz-adv-x="180" />
      <glyph
         glyph-name="f_h"
         unicode="fh"
         id="glyph726"
         d="M 67.500002,900 A 67.5,67.5 0 0 1 0,832.5 v -65 A 22.5,22.5 0 0 0 -22.5,745 22.5,22.5 0 0 1 -45,722.5 22.5,22.5 0 0 1 -22.5,700 22.5,22.5 0 0 0 0,677.5 v -455 A 22.5,22.5 0 0 1 22.5,200 22.5,22.5 0 0 1 45,222.5 v 455 a 22.5,22.5 0 0 0 22.500002,22.5 22.5,22.5 0 0 0 22.5,-22.5 v -455 A 22.5,22.5 0 0 1 112.5,200 22.5,22.5 0 0 1 135,222.5 v 410 A 22.5,22.5 0 0 0 157.5,655 22.5,22.5 0 0 0 180,632.5 v -410 A 22.5,22.5 0 0 1 202.5,200 22.5,22.5 0 0 1 225,222.5 v 410 A 67.5,67.5 0 0 1 157.5,700 22.5,22.5 0 0 0 135,722.5 v 110 A 67.5,67.5 0 0 1 67.500002,900 Z m 0,-45 a 22.5,22.5 0 0 0 22.5,-22.5 v -65 A 22.5,22.5 0 0 0 67.500002,745 22.5,22.5 0 0 0 45,767.5 v 65 A 22.5,22.5 0 0 0 67.500002,855 Z"
         horiz-adv-x="270.00" />
      <glyph
         glyph-name="f_k"
         unicode="fk"
         id="glyph727"
         d="M 67.5,900 A 67.5,67.5 0 0 1 0,832.5 v -65 A 22.5,22.5 0 0 0 -22.5,745 22.5,22.5 0 0 1 -45,722.5 22.5,22.5 0 0 1 -22.5,700 22.5,22.5 0 0 0 0,677.5 v -455 A 22.5,22.5 0 0 1 22.5,200 22.5,22.5 0 0 1 45,222.5 v 455 A 22.5,22.5 0 0 0 67.5,700 22.5,22.5 0 0 0 90,677.5 v -455 A 22.5,22.5 0 0 1 112.5,200 22.5,22.5 0 0 1 135,222.5 V 405 A 22.5,22.5 0 0 0 157.5,427.5 22.5,22.5 0 0 0 180,405 V 222.5 A 22.5,22.5 0 0 1 202.5,200 22.5,22.5 0 0 1 225,222.5 V 405 A 67.5,67.5 0 0 1 157.5,472.5 22.5,22.5 0 0 0 135,495 22.5,22.5 0 0 0 157.5,517.5 67.5,67.5 0 0 1 225,585 v 92.5 A 22.5,22.5 0 0 1 202.5,700 22.5,22.5 0 0 1 180,677.5 V 585 A 22.5,22.5 0 0 0 157.5,562.5 22.5,22.5 0 0 0 135,585 V 832.5 A 67.5,67.5 0 0 1 67.5,900 Z m 0,-45 A 22.5,22.5 0 0 0 90,832.5 v -65 A 22.5,22.5 0 0 0 67.5,745 22.5,22.5 0 0 0 45,767.5 v 65 A 22.5,22.5 0 0 0 67.5,855 Z"
         horiz-adv-x="270.00" />
      <glyph
         glyph-name="f_l"
         unicode="fl"
         id="glyph728"
         d="m 67.5,900.00003 a 67.5,67.5 0 0 1 -67.5,-67.5 v -65 a 22.5,22.5 0 0 0 -22.500003,-22.5 22.5,22.5 0 0 1 -22.5,-22.5 22.5,22.5 0 0 1 22.5,-22.5 A 22.5,22.5 0 0 0 0,677.50003 v -455 a 22.5,22.5 0 0 1 22.5,-22.5 22.5,22.5 0 0 1 22.5,22.5 v 455 a 22.5,22.5 0 0 0 22.5,22.5 22.5,22.5 0 0 0 22.5,-22.5 v -455 a 22.5,22.5 0 0 1 22.5,-22.5 22.5,22.5 0 0 1 22.5,22.5 v 610 a 67.5,67.5 0 0 1 -67.5,67.5 z m 0,-45 a 22.5,22.5 0 0 0 22.5,-22.5 v -65 a 22.5,22.5 0 0 0 -22.5,-22.5 22.5,22.5 0 0 0 -22.5,22.5 v 65 a 22.5,22.5 0 0 0 22.5,22.5 z"
         horiz-adv-x="180" />
      <glyph
         glyph-name="d_f"
         unicode="df"
         id="glyph729"
         d="M 112.5,900 A 22.5,22.5 0 0 1 90,877.5 v -155 A 22.5,22.5 0 0 0 67.5,700 67.5,67.5 0 0 1 0,632.5 v -365 A 67.5,67.5 0 0 1 67.5,200 67.5,67.5 0 0 1 135,267.5 v 410 A 22.5,22.5 0 0 0 157.5,700 22.5,22.5 0 0 0 180,677.5 v -455 A 22.5,22.5 0 0 1 202.5,200 22.5,22.5 0 0 1 225,222.5 v 455 A 22.5,22.5 0 0 0 247.5,700 H 270 A 22.5,22.5 0 0 1 292.5,722.5 22.5,22.5 0 0 1 270,745 H 247.5 A 22.5,22.5 0 0 0 225,767.5 v 65 A 22.5,22.5 0 0 0 247.5,855 22.5,22.5 0 0 0 270,832.5 V 810 A 22.5,22.5 0 0 1 292.5,787.5 22.5,22.5 0 0 1 315,810 v 22.5 A 67.5,67.5 0 0 1 247.5,900 67.5,67.5 0 0 1 180,832.5 v -65 A 22.5,22.5 0 0 0 157.5,745 22.5,22.5 0 0 0 135,767.5 v 110 A 22.5,22.5 0 0 1 112.5,900 Z M 67.5,655 A 22.5,22.5 0 0 0 90,632.5 v -365 A 22.5,22.5 0 0 0 67.5,245 22.5,22.5 0 0 0 45,267.5 v 365 A 22.5,22.5 0 0 0 67.5,655 Z"
         horiz-adv-x="270" />
      <glyph
         glyph-name="d_f_b"
         unicode="dfb"
         id="glyph730"
         d="M 112.5,900 A 22.5,22.5 0 0 1 89.999999,877.5 v -155 A 22.5,22.5 0 0 0 67.499999,700 67.5,67.5 0 0 1 0,632.5 v -365 A 67.5,67.5 0 0 1 67.499999,200 67.5,67.5 0 0 1 135,267.5 v 410 A 22.5,22.5 0 0 0 157.5,700 22.5,22.5 0 0 0 180,677.5 v -455 A 22.5,22.5 0 0 1 202.5,200 22.5,22.5 0 0 1 225,222.5 v 455 A 22.5,22.5 0 0 0 247.5,700 22.5,22.5 0 0 0 270,677.5 v -410 A 67.5,67.5 0 0 1 337.5,200 67.5,67.5 0 0 1 405,267.5 v 365 A 67.5,67.5 0 0 1 337.5,700 22.5,22.5 0 0 0 315,722.5 v 110 A 67.5,67.5 0 0 1 247.5,900 67.5,67.5 0 0 1 180,832.5 v -65 A 22.5,22.5 0 0 0 157.5,745 22.5,22.5 0 0 0 135,767.5 v 110 A 22.5,22.5 0 0 1 112.5,900 Z m 135,-45 A 22.5,22.5 0 0 0 270,832.5 v -65 A 22.5,22.5 0 0 0 247.5,745 22.5,22.5 0 0 0 225,767.5 v 65 A 22.5,22.5 0 0 0 247.5,855 Z M 67.499999,655 a 22.5,22.5 0 0 0 22.5,-22.5 v -365 a 22.5,22.5 0 0 0 -22.5,-22.5 22.5,22.5 0 0 0 -22.5,22.5 v 365 a 22.5,22.5 0 0 0 22.5,22.5 z M 337.5,655 A 22.5,22.5 0 0 0 360,632.5 v -365 A 22.5,22.5 0 0 0 337.5,245 22.5,22.5 0 0 0 315,267.5 v 365 a 22.5,22.5 0 0 0 22.5,22.5 z"
         horiz-adv-x="450" />
      <glyph
         glyph-name="d_f_f"
         unicode="dff"
         id="glyph734"
         d="M 112.50001,900 A 22.5,22.5 0 0 1 90,877.5 v -155 A 22.5,22.5 0 0 0 67.5,700 67.5,67.5 0 0 1 0,632.5 v -365 A 67.5,67.5 0 0 1 67.5,200 67.5,67.5 0 0 1 135,267.5 v 410 A 22.5,22.5 0 0 0 157.5,700 22.5,22.5 0 0 0 180,677.5 v -455 A 22.5,22.5 0 0 1 202.5,200 22.5,22.5 0 0 1 225,222.5 v 455 A 22.5,22.5 0 0 0 247.5,700 22.5,22.5 0 0 0 270,677.5 v -455 A 22.5,22.5 0 0 1 292.5,200 22.5,22.5 0 0 1 315,222.5 v 455 A 22.5,22.5 0 0 0 337.5,700 H 360 A 22.5,22.5 0 0 1 382.5,722.5 22.5,22.5 0 0 1 360,745 H 337.5 A 22.5,22.5 0 0 0 315,767.5 V 810 832.5 A 22.5,22.5 0 0 0 337.5,855 22.5,22.5 0 0 0 360,832.5 V 810 A 22.5,22.5 0 0 1 382.5,787.5 22.5,22.5 0 0 1 405,810 v 22.5 A 67.5,67.5 0 0 1 337.5,900 h -90 A 67.5,67.5 0 0 1 180,832.5 v -65 A 22.5,22.5 0 0 0 157.5,745 22.5,22.5 0 0 0 135,767.5 v 110 A 22.5,22.5 0 0 1 112.50001,900 Z M 247.5,855 A 22.5,22.5 0 0 0 270,832.5 V 810 767.5 A 22.5,22.5 0 0 0 247.5,745 22.5,22.5 0 0 0 225,767.5 v 65 A 22.5,22.5 0 0 0 247.5,855 Z M 67.5,655 A 22.5,22.5 0 0 0 90,632.5 v -365 A 22.5,22.5 0 0 0 67.5,245 22.5,22.5 0 0 0 45,267.5 v 365 A 22.5,22.5 0 0 0 67.5,655 Z"
         horiz-adv-x="360" />
      <glyph
         glyph-name="d_f_h"
         unicode="dfh"
         id="glyph735"
         d="M 112.5,900 A 22.5,22.5 0 0 1 89.999999,877.5 v -155 A 22.5,22.5 0 0 0 67.499999,700 67.5,67.5 0 0 1 0,632.5 v -365 A 67.5,67.5 0 0 1 67.499999,200 67.5,67.5 0 0 1 135,267.5 v 410 A 22.5,22.5 0 0 0 157.5,700 22.5,22.5 0 0 0 180,677.5 v -455 A 22.5,22.5 0 0 1 202.5,200 22.5,22.5 0 0 1 225,222.5 v 455 A 22.5,22.5 0 0 0 247.5,700 22.5,22.5 0 0 0 270,677.5 v -455 A 22.5,22.5 0 0 1 292.5,200 22.5,22.5 0 0 1 315,222.5 v 410 A 22.5,22.5 0 0 0 337.5,655 22.5,22.5 0 0 0 360,632.5 v -410 A 22.5,22.5 0 0 1 382.5,200 22.5,22.5 0 0 1 405,222.5 v 410 A 67.5,67.5 0 0 1 337.5,700 22.5,22.5 0 0 0 315,722.5 v 110 A 67.5,67.5 0 0 1 247.5,900 67.5,67.5 0 0 1 180,832.5 v -65 A 22.5,22.5 0 0 0 157.5,745 22.5,22.5 0 0 0 135,767.5 v 110 A 22.5,22.5 0 0 1 112.5,900 Z m 135,-45 A 22.5,22.5 0 0 0 270,832.5 v -65 A 22.5,22.5 0 0 0 247.5,745 22.5,22.5 0 0 0 225,767.5 v 65 A 22.5,22.5 0 0 0 247.5,855 Z M 67.499999,655 a 22.5,22.5 0 0 0 22.5,-22.5 v -365 A 22.5,22.5 0 0 0 67.499999,245 22.5,22.5 0 0 0 45,267.5 v 365 A 22.5,22.5 0 0 0 67.499999,655 Z"
         horiz-adv-x="450" />
      <glyph
         glyph-name="d_f_k"
         unicode="dfk"
         id="glyph736"
         d="M 112.5,900 A 22.5,22.5 0 0 1 90,877.5 v -155 A 22.5,22.5 0 0 0 67.5,700 67.5,67.5 0 0 1 0,632.5 v -365 A 67.5,67.5 0 0 1 67.5,200 67.5,67.5 0 0 1 135,267.5 v 410 A 22.5,22.5 0 0 0 157.5,700 22.5,22.5 0 0 0 180,677.5 v -455 A 22.5,22.5 0 0 1 202.5,200 22.5,22.5 0 0 1 225,222.5 v 455 A 22.5,22.5 0 0 0 247.5,700 22.5,22.5 0 0 0 270,677.5 v -455 A 22.5,22.5 0 0 1 292.5,200 22.5,22.5 0 0 1 315,222.5 V 405 A 22.5,22.5 0 0 0 337.5,427.5 22.5,22.5 0 0 0 360,405 V 222.5 A 22.5,22.5 0 0 1 382.5,200 22.5,22.5 0 0 1 405,222.5 V 405 A 67.5,67.5 0 0 1 337.5,472.5 22.5,22.5 0 0 0 315,495 22.5,22.5 0 0 0 337.5,517.5 67.5,67.5 0 0 1 405,585 v 92.5 A 22.5,22.5 0 0 1 382.5,700 22.5,22.5 0 0 1 360,677.5 V 585 A 22.5,22.5 0 0 0 337.5,562.5 22.5,22.5 0 0 0 315,585 V 832.5 A 67.5,67.5 0 0 1 247.5,900 67.5,67.5 0 0 1 180,832.5 v -65 A 22.5,22.5 0 0 0 157.5,745 22.5,22.5 0 0 0 135,767.5 v 110 A 22.5,22.5 0 0 1 112.5,900 Z m 135,-45 A 22.5,22.5 0 0 0 270,832.5 v -65 A 22.5,22.5 0 0 0 247.5,745 22.5,22.5 0 0 0 225,767.5 v 65 A 22.5,22.5 0 0 0 247.5,855 Z M 67.5,655 A 22.5,22.5 0 0 0 90,632.5 v -365 A 22.5,22.5 0 0 0 67.5,245 22.5,22.5 0 0 0 45,267.5 v 365 A 22.5,22.5 0 0 0 67.5,655 Z"
         horiz-adv-x="450" />
      <glyph
         glyph-name="d_f_l"
         unicode="dfl"
         id="glyph737"
         d="M 112.5,900 A 22.5,22.5 0 0 1 90,877.5 v -155 A 22.5,22.5 0 0 0 67.5,700 67.5,67.5 0 0 1 0,632.5 v -365 A 67.5,67.5 0 0 1 67.5,200 67.5,67.5 0 0 1 135,267.5 v 410 A 22.5,22.5 0 0 0 157.5,700 22.5,22.5 0 0 0 180,677.5 v -455 A 22.5,22.5 0 0 1 202.5,200 22.5,22.5 0 0 1 225,222.5 v 455 A 22.5,22.5 0 0 0 247.5,700 22.5,22.5 0 0 0 270,677.5 V 222.64844 h 0.01 A 22.5,22.5 0 0 1 270,222.5 22.5,22.5 0 0 1 292.5,200 a 22.5,22.5 0 0 1 22.5,22.5 22.5,22.5 0 0 1 -0.004,0.14844 H 315 V 832.5 A 67.5,67.5 0 0 1 247.5,900 67.5,67.5 0 0 1 180,832.5 v -65 A 22.5,22.5 0 0 0 157.5,745 22.5,22.5 0 0 0 135,767.5 v 110 A 22.5,22.5 0 0 1 112.5,900 Z m 135,-45 A 22.5,22.5 0 0 0 270,832.5 v -65 A 22.5,22.5 0 0 0 247.5,745 22.5,22.5 0 0 0 225,767.5 v 65 A 22.5,22.5 0 0 0 247.5,855 Z M 67.5,655 A 22.5,22.5 0 0 0 90,632.5 v -365 A 22.5,22.5 0 0 0 67.5,245 22.5,22.5 0 0 0 45,267.5 v 365 A 22.5,22.5 0 0 0 67.5,655 Z"
         horiz-adv-x="360" />
      <glyph
         glyph-name="f_i"
         unicode="fi"
         id="glyph482"
         d="M 67.49999,900 A 67.5,67.5 0 0 1 -6e-6,832.5 v -65 A 22.5,22.5 0 0 0 -22.5,745 22.5,22.5 0 0 1 -45,722.5 22.5,22.5 0 0 1 -22.5,700 22.5,22.5 0 0 0 -6e-6,677.5 v -455 a 22.5,22.5 0 0 1 22.5,-22.5 22.5,22.5 0 0 1 22.499996,22.5 v 455 a 22.5,22.5 0 0 0 22.5,22.5 22.5,22.5 0 0 1 22.5,22.5 22.5,22.5 0 0 1 -22.5,22.5 22.5,22.5 0 0 0 -22.5,22.5 v 65 a 22.5,22.5 0 0 0 22.5,22.5 22.5,22.5 0 0 0 22.5,-22.5 v -45 a 22.5,22.5 0 0 1 22.5,-22.5 22.5,22.5 0 0 1 22.5,22.5 v 45 a 67.5,67.5 0 0 1 -67.5,67.5 z m 45,-200 a 22.5,22.5 0 0 1 -22.5,-22.5 v -455 a 22.5,22.5 0 0 1 22.5,-22.5 22.5,22.5 0 0 1 22.5,22.5 v 455 a 22.5,22.5 0 0 1 -22.5,22.5 z"
         horiz-adv-x="180" />
      <glyph
         glyph-name="f_j"
         unicode="fj"
         id="glyph483"
         d="M 67.5,900 A 67.5,67.5 0 0 1 0,832.5 v -65 A 22.5,22.5 0 0 0 -22.5,745 22.5,22.5 0 0 1 -45,722.5 22.5,22.5 0 0 1 -22.5,700 22.5,22.5 0 0 0 0,677.5 v -455 A 22.5,22.5 0 0 1 22.5,200 22.5,22.5 0 0 1 45,222.5 v 455 A 22.5,22.5 0 0 0 67.5,700 22.5,22.5 0 0 1 89.999995,722.5 22.5,22.5 0 0 1 67.5,745 22.5,22.5 0 0 0 45,767.5 v 65 A 22.5,22.5 0 0 0 67.5,855 22.5,22.5 0 0 0 89.999995,832.5 v -45 A 22.5,22.5 0 0 1 112.5,765 22.5,22.5 0 0 1 135,787.5 v 45 A 67.5,67.5 0 0 1 67.5,900 Z m 45,-200 A 22.5,22.5 0 0 1 89.999995,677.5 V 67.5 A 22.5,22.5 0 0 0 67.5,45 22.5,22.5 0 0 0 45,67.5 v 45 A 22.5,22.5 0 0 1 22.5,135 22.5,22.5 0 0 1 0,112.5 v -45 A 67.5,67.5 0 0 1 67.5,0 67.5,67.5 0 0 1 135,67.5 v 610 A 22.5,22.5 0 0 1 112.5,700 Z"
         horiz-adv-x="180" />
      <glyph
         glyph-name="d_f_i"
         unicode="dfi"
         id="glyph484"
         d="M 112.5,900 A 22.5,22.5 0 0 1 90,877.5 v -155 A 22.5,22.5 0 0 0 67.5,700 67.5,67.5 0 0 1 0,632.5 v -365 A 67.5,67.5 0 0 1 67.5,200 67.5,67.5 0 0 1 135,267.5 v 410 A 22.5,22.5 0 0 0 157.5,700 22.5,22.5 0 0 0 180,677.5 v -455 A 22.5,22.5 0 0 1 202.5,200 22.5,22.5 0 0 1 225,222.5 v 455 A 22.5,22.5 0 0 0 247.5,700 22.5,22.5 0 0 1 270,722.5 22.5,22.5 0 0 1 247.5,745 22.5,22.5 0 0 0 225,767.5 v 65 A 22.5,22.5 0 0 0 247.5,855 22.5,22.5 0 0 0 270,832.5 v -45 A 22.5,22.5 0 0 1 292.5,765 22.5,22.5 0 0 1 315,787.5 v 45 A 67.5,67.5 0 0 1 247.5,900 67.5,67.5 0 0 1 180,832.5 v -65 A 22.5,22.5 0 0 0 157.5,745 22.5,22.5 0 0 0 135,767.5 v 110 A 22.5,22.5 0 0 1 112.5,900 Z m 180,-200 A 22.5,22.5 0 0 1 270,677.5 v -455 A 22.5,22.5 0 0 1 292.5,200 22.5,22.5 0 0 1 315,222.5 v 455 A 22.5,22.5 0 0 1 292.5,700 Z M 67.5,655 A 22.5,22.5 0 0 0 90,632.5 v -365 A 22.5,22.5 0 0 0 67.5,245 22.5,22.5 0 0 0 45,267.5 v 365 A 22.5,22.5 0 0 0 67.5,655 Z"
         horiz-adv-x="360" />
      <glyph
         glyph-name="d_f_j"
         unicode="dfj"
         id="glyph485"
         d="M 112.5,900 A 22.5,22.5 0 0 1 90,877.5 v -155 A 22.5,22.5 0 0 0 67.5,700 67.5,67.5 0 0 1 0,632.5 v -365 A 67.5,67.5 0 0 1 67.5,200 67.5,67.5 0 0 1 135,267.5 v 410 A 22.5,22.5 0 0 0 157.5,700 22.5,22.5 0 0 0 180,677.5 v -455 A 22.5,22.5 0 0 1 202.5,200 22.5,22.5 0 0 1 225,222.5 v 455 A 22.5,22.5 0 0 0 247.5,700 22.5,22.5 0 0 1 270,722.5 22.5,22.5 0 0 1 247.5,745 22.5,22.5 0 0 0 225,767.5 v 65 A 22.5,22.5 0 0 0 247.5,855 22.5,22.5 0 0 0 270,832.5 v -45 A 22.5,22.5 0 0 1 292.5,765 22.5,22.5 0 0 1 315,787.5 v 45 A 67.5,67.5 0 0 1 247.5,900 67.5,67.5 0 0 1 180,832.5 v -65 A 22.5,22.5 0 0 0 157.5,745 22.5,22.5 0 0 0 135,767.5 v 110 A 22.5,22.5 0 0 1 112.5,900 Z m 180,-200 A 22.5,22.5 0 0 1 270,677.5 V 67.5 A 22.5,22.5 0 0 0 247.5,45 22.5,22.5 0 0 0 225,67.5 v 45 A 22.5,22.5 0 0 1 202.5,135 22.5,22.5 0 0 1 180,112.5 v -45 A 67.5,67.5 0 0 1 247.5,0 67.5,67.5 0 0 1 315,67.5 v 610 A 22.5,22.5 0 0 1 292.5,700 Z M 67.5,655 A 22.5,22.5 0 0 0 90,632.5 v -365 A 22.5,22.5 0 0 0 67.5,245 22.5,22.5 0 0 0 45,267.5 v 365 A 22.5,22.5 0 0 0 67.5,655 Z"
         horiz-adv-x="360" />
      <glyph
         glyph-name="f_t"
         unicode="ft"
         id="glyph731"
         d="M 67.5,900 A 67.5,67.5 0 0 1 0,832.5 v -65 A 22.5,22.5 0 0 0 -22.5,745 22.5,22.5 0 0 1 -45,722.5 22.5,22.5 0 0 1 -22.5,700 22.5,22.5 0 0 0 0,677.5 v -455 A 22.5,22.5 0 0 1 22.5,200 22.5,22.5 0 0 1 45,222.5 v 455 A 22.5,22.5 0 0 0 67.5,700 22.5,22.5 0 0 0 90,677.5 v -455 A 22.5,22.5 0 0 1 112.5,200 22.5,22.5 0 0 1 135,222.5 v 455 A 22.5,22.5 0 0 0 157.5,700 22.5,22.5 0 0 1 180,722.5 22.5,22.5 0 0 1 157.5,745 22.5,22.5 0 0 0 135,767.5 v 65 A 67.5,67.5 0 0 1 67.5,900 Z m 0,-45 A 22.5,22.5 0 0 0 90,832.5 v -65 A 22.5,22.5 0 0 0 67.5,745 22.5,22.5 0 0 0 45,767.5 v 65 A 22.5,22.5 0 0 0 67.5,855 Z"
         horiz-adv-x="190" />
      <glyph
         glyph-name="d_f_t"
         unicode="dft"
         id="glyph732"
         d="m 112.5,900.00003 a 22.5,22.5 0 0 1 -22.5,-22.5 v -155 a 22.5,22.5 0 0 0 -22.5,-22.5 67.5,67.5 0 0 1 -67.5,-67.5 v -365 a 67.5,67.5 0 0 1 67.5,-67.5 67.5,67.5 0 0 1 67.5,67.5 v 410 a 22.5,22.5 0 0 0 22.5,22.5 22.5,22.5 0 0 0 22.5,-22.5 v -455 a 22.5,22.5 0 0 1 22.5,-22.5 22.5,22.5 0 0 1 22.5,22.5 v 455 a 22.5,22.5 0 0 0 22.5,22.5 22.5,22.5 0 0 0 22.5,-22.5 v -455 a 22.5,22.5 0 0 1 22.5,-22.5 22.5,22.5 0 0 1 22.5,22.5 v 455 a 22.5,22.5 0 0 0 22.5,22.5 22.5,22.5 0 0 1 22.5,22.5 22.5,22.5 0 0 1 -22.5,22.5 22.5,22.5 0 0 0 -22.5,22.5 v 65 a 67.5,67.5 0 0 1 -67.5,67.5 67.5,67.5 0 0 1 -67.5,-67.5 v -65 a 22.5,22.5 0 0 0 -22.5,-22.5 22.5,22.5 0 0 0 -22.5,22.5 v 110 a 22.5,22.5 0 0 1 -22.5,22.5 z m 135,-45 a 22.5,22.5 0 0 0 22.5,-22.5 v -65 a 22.5,22.5 0 0 0 -22.5,-22.5 22.5,22.5 0 0 0 -22.5,22.5 v 65 a 22.5,22.5 0 0 0 22.5,22.5 z m -180,-200 a 22.5,22.5 0 0 0 22.5,-22.5 v -365 a 22.5,22.5 0 0 0 -22.5,-22.5 22.5,22.5 0 0 0 -22.5,22.5 v 365 a 22.5,22.5 0 0 0 22.5,22.5 z"
         horiz-adv-x="360" />
      <glyph
         glyph-name="d_b"
         unicode="tb"
         id="glyph3"
         d="M 22.5,900 A 22.5,22.5 0 0 1 0,877.5 v -110 A 22.5,22.5 0 0 0 -22.500002,745 22.5,22.5 0 0 1 -45.000006,722.5 22.5,22.5 0 0 1 -22.500002,700 22.5,22.5 0 0 0 0,677.5 v -455 A 22.5,22.5 0 0 1 22.5,200 22.5,22.5 0 0 1 45,222.5 v 455 a 22.5,22.5 0 0 0 22.49999,22.5 22.5,22.5 0 0 0 22.5,-22.5 v -410 A 67.5,67.5 0 0 1 157.5,200 67.5,67.5 0 0 1 225,267.5 v 365 A 67.5,67.5 0 0 1 157.5,700 22.5,22.5 0 0 0 135,722.5 v 155 A 22.5,22.5 0 0 1 112.5,900 22.5,22.5 0 0 1 89.99999,877.5 v -110 A 22.5,22.5 0 0 0 67.49999,745 22.5,22.5 0 0 0 45,767.5 v 110 A 22.5,22.5 0 0 1 22.5,900 Z m 135,-245 A 22.5,22.5 0 0 0 180,632.5 v -365 A 22.5,22.5 0 0 0 157.5,245 22.5,22.5 0 0 0 135,267.5 v 365 a 22.5,22.5 0 0 0 22.5,22.5 z"
         horiz-adv-x="270" />
      <glyph
         glyph-name="t_h"
         unicode="th"
         id="glyph4"
         d="M 22.5,900 A 22.5,22.5 0 0 1 0,877.5 v -110 A 22.5,22.5 0 0 0 -22.5,745 22.5,22.5 0 0 1 -45,722.5 22.5,22.5 0 0 1 -22.5,700 22.5,22.5 0 0 0 0,677.5 v -455 A 22.5,22.5 0 0 1 22.5,200 22.5,22.5 0 0 1 45,222.5 v 455 A 22.5,22.5 0 0 0 67.5,700 22.5,22.5 0 0 0 90,677.5 v -455 A 22.5,22.5 0 0 1 112.5,200 22.5,22.5 0 0 1 135,222.5 v 410 A 22.5,22.5 0 0 0 157.5,655 22.5,22.5 0 0 0 180,632.5 v -410 A 22.5,22.5 0 0 1 202.5,200 22.5,22.5 0 0 1 225,222.5 v 410 A 67.5,67.5 0 0 1 157.5,700 22.5,22.5 0 0 0 135,722.5 v 155 A 22.5,22.5 0 0 1 112.5,900 22.5,22.5 0 0 1 90,877.5 v -110 A 22.5,22.5 0 0 0 67.5,745 22.5,22.5 0 0 0 45,767.5 v 110 A 22.5,22.5 0 0 1 22.5,900 Z"
         horiz-adv-x="270" />
      <glyph
         glyph-name="t_k"
         unicode="tk"
         id="glyph6"
         d="M 22.5,900 A 22.5,22.5 0 0 1 0,877.5 v -110 A 22.5,22.5 0 0 0 -22.5,745 22.5,22.5 0 0 1 -45,722.5 22.5,22.5 0 0 1 -22.5,700 22.5,22.5 0 0 0 0,677.5 v -455 A 22.5,22.5 0 0 1 22.5,200 22.5,22.5 0 0 1 45,222.5 v 455 A 22.5,22.5 0 0 0 67.5,700 22.5,22.5 0 0 0 90,677.5 v -455 A 22.5,22.5 0 0 1 112.5,200 22.5,22.5 0 0 1 135,222.5 V 405 A 22.5,22.5 0 0 0 157.5,427.5 22.5,22.5 0 0 0 180,405 V 222.5 A 22.5,22.5 0 0 1 202.5,200 22.5,22.5 0 0 1 225,222.5 V 405 A 67.5,67.5 0 0 1 157.5,472.5 22.5,22.5 0 0 0 135,495 22.5,22.5 0 0 0 157.5,517.5 67.5,67.5 0 0 1 225,585 v 92.5 A 22.5,22.5 0 0 1 202.5,700 22.5,22.5 0 0 1 180,677.5 V 585 A 22.5,22.5 0 0 0 157.5,562.5 22.5,22.5 0 0 0 135,585 V 877.5 A 22.5,22.5 0 0 1 112.5,900 22.5,22.5 0 0 1 90,877.5 v -110 A 22.5,22.5 0 0 0 67.5,745 22.5,22.5 0 0 0 45,767.5 v 110 A 22.5,22.5 0 0 1 22.5,900 Z"
         horiz-adv-x="270" />
      <glyph
         glyph-name="t_l"
         unicode="tl"
         id="glyph7"
         d="M 22.5,900 A 22.5,22.5 0 0 1 0,877.5 v -110 A 22.5,22.5 0 0 0 -22.5,745 22.5,22.5 0 0 1 -45,722.5 22.5,22.5 0 0 1 -22.5,700 22.5,22.5 0 0 0 0,677.5 v -455 A 22.5,22.5 0 0 1 22.5,200 22.5,22.5 0 0 1 45,222.5 v 455 A 22.5,22.5 0 0 0 67.5,700 22.5,22.5 0 0 0 90,677.5 v -455 A 22.5,22.5 0 0 1 112.5,200 22.5,22.5 0 0 1 135,222.5 v 655 A 22.5,22.5 0 0 1 112.5,900 22.5,22.5 0 0 1 90,877.5 v -110 A 22.5,22.5 0 0 0 67.5,745 22.5,22.5 0 0 0 45,767.5 v 110 A 22.5,22.5 0 0 1 22.5,900 Z"
         horiz-adv-x="180" />
      <glyph
         glyph-name="d_t"
         unicode="dt"
         id="glyph8"
         d="M 112.5,900 A 22.5,22.5 0 0 1 90.000003,877.5 v -155 A 22.5,22.5 0 0 0 67.5,700 67.5,67.5 0 0 1 0,632.5 v -365 A 67.5,67.5 0 0 1 67.5,200 67.5,67.5 0 0 1 135,267.5 v 410 A 22.5,22.5 0 0 0 157.5,700 22.5,22.5 0 0 0 180,677.5 v -455 A 22.5,22.5 0 0 1 202.5,200 22.5,22.5 0 0 1 225,222.5 v 455 A 22.5,22.5 0 0 0 247.5,700 22.5,22.5 0 0 1 270,722.5 22.5,22.5 0 0 1 247.5,745 22.5,22.5 0 0 0 225,767.5 v 110 A 22.5,22.5 0 0 1 202.5,900 22.5,22.5 0 0 1 180,877.5 v -110 A 22.5,22.5 0 0 0 157.5,745 22.5,22.5 0 0 0 135,767.5 v 110 A 22.5,22.5 0 0 1 112.5,900 Z m -45,-245 a 22.5,22.5 0 0 0 22.500003,-22.5 v -365 A 22.5,22.5 0 0 0 67.5,245 22.5,22.5 0 0 0 45,267.5 v 365 A 22.5,22.5 0 0 0 67.5,655 Z"
         horiz-adv-x="270" />
      <glyph
         glyph-name="d_t_b"
         unicode="dtb"
         id="glyph9"
         d="m 112.5,900.00003 a 22.5,22.5 0 0 1 -22.5,-22.5 v -155 a 22.5,22.5 0 0 0 -22.5,-22.5 67.5,67.5 0 0 1 -67.5,-67.5 v -365 a 67.5,67.5 0 0 1 67.5,-67.5 67.5,67.5 0 0 1 67.5,67.5 v 410 a 22.5,22.5 0 0 0 22.5,22.5 22.5,22.5 0 0 0 22.5,-22.5 v -455 a 22.5,22.5 0 0 1 22.5,-22.5 22.5,22.5 0 0 1 22.5,22.5 v 455 a 22.5,22.5 0 0 0 22.5,22.5 22.5,22.5 0 0 0 22.5,-22.5 v -410 a 67.5,67.5 0 0 1 67.5,-67.5 67.5,67.5 0 0 1 67.5,67.5 v 365 a 67.5,67.5 0 0 1 -67.5,67.5 22.5,22.5 0 0 0 -22.5,22.5 v 155 a 22.5,22.5 0 0 1 -22.5,22.5 22.5,22.5 0 0 1 -22.5,-22.5 v -110 a 22.5,22.5 0 0 0 -22.5,-22.5 22.5,22.5 0 0 0 -22.5,22.5 v 110 a 22.5,22.5 0 0 1 -22.5,22.5 22.5,22.5 0 0 1 -22.5,-22.5 v -110 a 22.5,22.5 0 0 0 -22.5,-22.5 22.5,22.5 0 0 0 -22.5,22.5 v 110 a 22.5,22.5 0 0 1 -22.5,22.5 z m -45,-245 a 22.5,22.5 0 0 0 22.5,-22.5 v -365 a 22.5,22.5 0 0 0 -22.5,-22.5 22.5,22.5 0 0 0 -22.5,22.5 v 365 a 22.5,22.5 0 0 0 22.5,22.5 z m 270,0 a 22.5,22.5 0 0 0 22.5,-22.5 v -365 a 22.5,22.5 0 0 0 -22.5,-22.5 22.5,22.5 0 0 0 -22.5,22.5 v 365 a 22.5,22.5 0 0 0 22.5,22.5 z"
         horiz-adv-x="450" />
      <glyph
         glyph-name="d_t_h"
         unicode="dth"
         id="glyph10"
         d="m 112.5,900.00003 a 22.5,22.5 0 0 1 -22.5,-22.5 v -155 a 22.5,22.5 0 0 0 -22.5,-22.5 67.5,67.5 0 0 1 -67.5,-67.5 v -365 a 67.5,67.5 0 0 1 67.5,-67.5 67.5,67.5 0 0 1 67.5,67.5 v 410 a 22.5,22.5 0 0 0 22.5,22.5 22.5,22.5 0 0 0 22.5,-22.5 v -455 a 22.5,22.5 0 0 1 22.5,-22.5 22.5,22.5 0 0 1 22.5,22.5 v 455 a 22.5,22.5 0 0 0 22.5,22.5 22.5,22.5 0 0 0 22.5,-22.5 v -455 a 22.5,22.5 0 0 1 22.5,-22.5 22.5,22.5 0 0 1 22.5,22.5 v 410 a 22.5,22.5 0 0 0 22.5,22.5 22.5,22.5 0 0 0 22.5,-22.5 v -410 a 22.5,22.5 0 0 1 22.5,-22.5 22.5,22.5 0 0 1 22.5,22.5 v 410 a 67.5,67.5 0 0 1 -67.5,67.5 22.5,22.5 0 0 0 -22.5,22.5 v 155 a 22.5,22.5 0 0 1 -22.5,22.5 22.5,22.5 0 0 1 -22.5,-22.5 v -110 a 22.5,22.5 0 0 0 -22.5,-22.5 22.5,22.5 0 0 0 -22.5,22.5 v 110 a 22.5,22.5 0 0 1 -22.5,22.5 22.5,22.5 0 0 1 -22.5,-22.5 v -110 a 22.5,22.5 0 0 0 -22.5,-22.5 22.5,22.5 0 0 0 -22.5,22.5 v 110 a 22.5,22.5 0 0 1 -22.5,22.5 z m -45,-245 a 22.5,22.5 0 0 0 22.5,-22.5 v -365 a 22.5,22.5 0 0 0 -22.5,-22.5 22.5,22.5 0 0 0 -22.5,22.5 v 365 a 22.5,22.5 0 0 0 22.5,22.5 z"
         horiz-adv-x="450" />
      <glyph
         glyph-name="d_t_k"
         unicode="dtk"
         id="glyph11"
         d="m 112.5,900.00003 a 22.5,22.5 0 0 1 -22.5,-22.5 v -155 a 22.5,22.5 0 0 0 -22.5,-22.5 67.5,67.5 0 0 1 -67.5,-67.5 v -365 a 67.5,67.5 0 0 1 67.5,-67.5 67.5,67.5 0 0 1 67.5,67.5 v 410 a 22.5,22.5 0 0 0 22.5,22.5 22.5,22.5 0 0 0 22.5,-22.5 v -455 a 22.5,22.5 0 0 1 22.5,-22.5 22.5,22.5 0 0 1 22.5,22.5 v 455 a 22.5,22.5 0 0 0 22.5,22.5 22.5,22.5 0 0 0 22.5,-22.5 v -455 a 22.5,22.5 0 0 1 22.5,-22.5 22.5,22.5 0 0 1 22.5,22.5 v 182.5 a 22.5,22.5 0 0 0 22.5,22.5 22.5,22.5 0 0 0 22.5,-22.5 v -182.5 a 22.5,22.5 0 0 1 22.5,-22.5 22.5,22.5 0 0 1 22.5,22.5 v 182.5 a 67.5,67.5 0 0 1 -67.5,67.5 22.5,22.5 0 0 0 -22.5,22.5 22.5,22.5 0 0 0 22.5,22.5 67.5,67.5 0 0 1 67.5,67.5 v 92.5 a 22.5,22.5 0 0 1 -22.5,22.5 22.5,22.5 0 0 1 -22.5,-22.5 v -92.5 a 22.5,22.5 0 0 0 -22.5,-22.5 22.5,22.5 0 0 0 -22.5,22.5 v 292.5 a 22.5,22.5 0 0 1 -22.5,22.5 22.5,22.5 0 0 1 -22.5,-22.5 v -110 a 22.5,22.5 0 0 0 -22.5,-22.5 22.5,22.5 0 0 0 -22.5,22.5 v 110 a 22.5,22.5 0 0 1 -22.5,22.5 22.5,22.5 0 0 1 -22.5,-22.5 v -110 a 22.5,22.5 0 0 0 -22.5,-22.5 22.5,22.5 0 0 0 -22.5,22.5 v 110 a 22.5,22.5 0 0 1 -22.5,22.5 z m -45,-245 a 22.5,22.5 0 0 0 22.5,-22.5 v -365 a 22.5,22.5 0 0 0 -22.5,-22.5 22.5,22.5 0 0 0 -22.5,22.5 v 365 a 22.5,22.5 0 0 0 22.5,22.5 z"
         horiz-adv-x="450" />
      <glyph
         glyph-name="d_t_l"
         unicode="dtl"
         id="glyph12"
         d="M 112.5,900 A 22.5,22.5 0 0 1 90,877.5 v -155 A 22.5,22.5 0 0 0 67.5,700 67.5,67.5 0 0 1 0,632.5 v -365 A 67.5,67.5 0 0 1 67.5,200 67.5,67.5 0 0 1 135,267.5 v 410 A 22.5,22.5 0 0 0 157.5,700 22.5,22.5 0 0 0 180,677.5 v -455 A 22.5,22.5 0 0 1 202.5,200 22.5,22.5 0 0 1 225,222.5 v 455 A 22.5,22.5 0 0 0 247.5,700 22.5,22.5 0 0 0 270,677.5 v -455 A 22.5,22.5 0 0 1 292.5,200 22.5,22.5 0 0 1 315,222.5 v 655 A 22.5,22.5 0 0 1 292.5,900 22.5,22.5 0 0 1 270,877.5 v -110 A 22.5,22.5 0 0 0 247.5,745 22.5,22.5 0 0 0 225,767.5 v 110 A 22.5,22.5 0 0 1 202.5,900 22.5,22.5 0 0 1 180,877.5 v -110 A 22.5,22.5 0 0 0 157.5,745 22.5,22.5 0 0 0 135,767.5 v 110 A 22.5,22.5 0 0 1 112.5,900 Z M 67.5,655 A 22.5,22.5 0 0 0 90,632.5 v -365 A 22.5,22.5 0 0 0 67.5,245 22.5,22.5 0 0 0 45,267.5 v 365 A 22.5,22.5 0 0 0 67.5,655 Z"
         horiz-adv-x="360" />
      <glyph
         glyph-name="l_t"
         unicode="lt"
         id="glyph134"
         d="M 22.5,900 A 22.5,22.5 0 0 1 0,877.5 v -655 A 22.5,22.5 0 0 1 22.5,200 22.5,22.5 0 0 1 44.999998,222.5 v 455 a 22.5,22.5 0 0 0 22.5,22.5 22.5,22.5 0 0 0 22.5,-22.5 v -455 A 22.5,22.5 0 0 1 112.5,200 22.5,22.5 0 0 1 135,222.5 v 455 A 22.5,22.5 0 0 0 157.5,700 22.5,22.5 0 0 1 180,722.5 22.5,22.5 0 0 1 157.5,745 22.5,22.5 0 0 0 135,767.5 v 110 A 22.5,22.5 0 0 1 112.5,900 22.5,22.5 0 0 1 89.999998,877.5 v -110 a 22.5,22.5 0 0 0 -22.5,-22.5 22.5,22.5 0 0 0 -22.5,22.5 v 110 A 22.5,22.5 0 0 1 22.5,900 Z"
         horiz-adv-x="180" />
      <glyph
         glyph-name="l_f"
         unicode="lf"
         id="glyph135"
         d="m 22.5,900.00003 a 22.5,22.5 0 0 1 -22.5,-22.5 v -655 a 22.5,22.5 0 0 1 22.5,-22.5 22.5,22.5 0 0 1 22.5,22.5 v 455 a 22.5,22.5 0 0 0 22.5,22.5 22.5,22.5 0 0 0 22.500003,-22.5 v -455 a 22.5,22.5 0 0 1 22.499997,-22.5 22.5,22.5 0 0 1 22.5,22.5 v 455 a 22.5,22.5 0 0 0 22.5,22.5 H 180 a 22.5,22.5 0 0 1 22.5,22.5 22.5,22.5 0 0 1 -22.5,22.5 h -22.5 a 22.5,22.5 0 0 0 -22.5,22.5 v 65 a 22.5,22.5 0 0 0 22.5,22.5 22.5,22.5 0 0 0 22.5,-22.5 v -22.5 a 22.5,22.5 0 0 1 22.5,-22.5 22.5,22.5 0 0 1 22.5,22.5 v 22.5 a 67.5,67.5 0 0 1 -67.5,67.5 67.5,67.5 0 0 1 -67.499997,-67.5 v -65 a 22.5,22.5 0 0 0 -22.500003,-22.5 22.5,22.5 0 0 0 -22.5,22.5 v 110 a 22.5,22.5 0 0 1 -22.5,22.5 z"
         horiz-adv-x="180" />
      <glyph
         glyph-name="l_t_b"
         unicode="ltb"
         id="glyph613"
         d="M 22.499999,900.00003 A 22.5,22.5 0 0 1 0,877.50003 v -655 a 22.5,22.5 0 0 1 22.499999,-22.5 22.5,22.5 0 0 1 22.5,22.5 v 455 a 22.5,22.5 0 0 0 22.5,22.5 22.5,22.5 0 0 0 22.5,-22.5 v -455 a 22.5,22.5 0 0 1 22.500001,-22.5 22.5,22.5 0 0 1 22.5,22.5 v 455 a 22.5,22.5 0 0 0 22.5,22.5 22.5,22.5 0 0 0 22.5,-22.5 v -410 a 67.5,67.5 0 0 1 67.5,-67.5 67.5,67.5 0 0 1 67.5,67.5 v 365 a 67.5,67.5 0 0 1 -67.5,67.5 22.5,22.5 0 0 0 -22.5,22.5 v 155 a 22.5,22.5 0 0 1 -22.5,22.5 22.5,22.5 0 0 1 -22.5,-22.5 v -110 a 22.5,22.5 0 0 0 -22.5,-22.5 22.5,22.5 0 0 0 -22.5,22.5 v 110 a 22.5,22.5 0 0 1 -22.5,22.5 22.5,22.5 0 0 1 -22.500001,-22.5 v -110 a 22.5,22.5 0 0 0 -22.5,-22.5 22.5,22.5 0 0 0 -22.5,22.5 v 110 a 22.5,22.5 0 0 1 -22.5,22.5 z m 225.000001,-245 a 22.5,22.5 0 0 0 22.5,-22.5 v -365 a 22.5,22.5 0 0 0 -22.5,-22.5 22.5,22.5 0 0 0 -22.5,22.5 v 365 a 22.5,22.5 0 0 0 22.5,22.5 z"
         horiz-adv-x="360" />
      <glyph
         glyph-name="l_t_h"
         unicode="lth"
         id="glyph614"
         d="m 22.5,900.00003 a 22.5,22.5 0 0 1 -22.5,-22.5 v -655 a 22.5,22.5 0 0 1 22.5,-22.5 22.5,22.5 0 0 1 22.5,22.5 v 455 a 22.5,22.5 0 0 0 22.5,22.5 22.5,22.5 0 0 0 22.500005,-22.5 v -455 a 22.5,22.5 0 0 1 22.499995,-22.5 22.5,22.5 0 0 1 22.5,22.5 v 455 a 22.5,22.5 0 0 0 22.5,22.5 22.5,22.5 0 0 0 22.5,-22.5 v -455 a 22.5,22.5 0 0 1 22.5,-22.5 22.5,22.5 0 0 1 22.5,22.5 v 410 a 22.5,22.5 0 0 0 22.5,22.5 22.5,22.5 0 0 0 22.5,-22.5 v -410 a 22.5,22.5 0 0 1 22.5,-22.5 22.5,22.5 0 0 1 22.5,22.5 v 410 a 67.5,67.5 0 0 1 -67.5,67.5 22.5,22.5 0 0 0 -22.5,22.5 v 155 a 22.5,22.5 0 0 1 -22.5,22.5 22.5,22.5 0 0 1 -22.5,-22.5 v -110 a 22.5,22.5 0 0 0 -22.5,-22.5 22.5,22.5 0 0 0 -22.5,22.5 v 110 a 22.5,22.5 0 0 1 -22.5,22.5 22.5,22.5 0 0 1 -22.499995,-22.5 v -110 a 22.5,22.5 0 0 0 -22.500005,-22.5 22.5,22.5 0 0 0 -22.5,22.5 v 110 a 22.5,22.5 0 0 1 -22.5,22.5 z"
         horiz-adv-x="360" />
      <glyph
         glyph-name="l_t_k"
         unicode="ltk"
         id="glyph615"
         d="M 22.5,900 A 22.5,22.5 0 0 1 0,877.5 v -655 A 22.5,22.5 0 0 1 22.5,200 22.5,22.5 0 0 1 45,222.5 v 455 a 22.5,22.5 0 0 0 22.500002,22.5 22.5,22.5 0 0 0 22.5,-22.5 v -455 A 22.5,22.5 0 0 1 112.5,200 22.5,22.5 0 0 1 135,222.5 v 455 A 22.5,22.5 0 0 0 157.5,700 22.5,22.5 0 0 0 180,677.5 v -455 A 22.5,22.5 0 0 1 202.5,200 22.5,22.5 0 0 1 225,222.5 V 405 A 22.5,22.5 0 0 0 247.5,427.5 22.5,22.5 0 0 0 270,405 V 222.5 A 22.5,22.5 0 0 1 292.5,200 22.5,22.5 0 0 1 315,222.5 V 405 A 67.5,67.5 0 0 1 247.5,472.5 22.5,22.5 0 0 0 225,495 22.5,22.5 0 0 0 247.5,517.5 67.5,67.5 0 0 1 315,585 v 92.5 A 22.5,22.5 0 0 1 292.5,700 22.5,22.5 0 0 1 270,677.5 V 585 A 22.5,22.5 0 0 0 247.5,562.5 22.5,22.5 0 0 0 225,585 V 877.5 A 22.5,22.5 0 0 1 202.5,900 22.5,22.5 0 0 1 180,877.5 v -110 A 22.5,22.5 0 0 0 157.5,745 22.5,22.5 0 0 0 135,767.5 v 110 A 22.5,22.5 0 0 1 112.5,900 22.5,22.5 0 0 1 90.000002,877.5 v -110 A 22.5,22.5 0 0 0 67.500002,745 22.5,22.5 0 0 0 45,767.5 v 110 A 22.5,22.5 0 0 1 22.5,900 Z"
         horiz-adv-x="360" />
      <glyph
         glyph-name="l_t_l"
         unicode="ltl"
         id="glyph616"
         d="m 22.5,900.00203 a 22.5,22.5 0 0 1 -22.5,-22.5 v -655 a 22.5,22.5 0 0 0 0,-0.002 22.5,22.5 0 0 1 22.5,-22.5 22.5,22.5 0 0 1 22.5,22.5 22.5,22.5 0 0 0 0,0.002 v 454.99805 a 22.5,22.5 0 0 0 22.5,22.5 22.5,22.5 0 0 0 22.5,-22.5 v -455 a 22.5,22.5 0 0 1 22.5,-22.5 22.5,22.5 0 0 1 22.5,22.5 v 455 a 22.5,22.5 0 0 0 22.5,22.5 22.5,22.5 0 0 0 22.5,-22.5 V 222.50203 a 22.5,22.5 0 0 1 0,-0.002 22.5,22.5 0 0 1 22.5,-22.5 22.5,22.5 0 0 1 22.5,22.5 22.5,22.5 0 0 1 0,0.002 v 655 a 22.5,22.5 0 0 1 -22.5,22.5 22.5,22.5 0 0 1 -22.5,-22.5 V 767.50008 a 22.5,22.5 0 0 0 -22.5,-22.5 22.5,22.5 0 0 0 -22.5,22.5 v 110 a 22.5,22.5 0 0 1 -22.5,22.5 22.5,22.5 0 0 1 -22.5,-22.5 v -110 a 22.5,22.5 0 0 0 -22.5,-22.5 22.5,22.5 0 0 0 -22.5,22.5 v 110.00195 a 22.5,22.5 0 0 1 -22.5,22.5 z" />
      <glyph
         glyph-name="l_f_b"
         unicode="lfb"
         id="glyph617"
         d="m 22.5,900.00003 a 22.5,22.5 0 0 1 -22.5,-22.5 v -655 a 22.5,22.5 0 0 1 22.5,-22.5 22.5,22.5 0 0 1 22.5,22.5 v 455 a 22.5,22.5 0 0 0 22.499998,22.5 22.5,22.5 0 0 0 22.5,-22.5 v -455 a 22.5,22.5 0 0 1 22.500002,-22.5 22.5,22.5 0 0 1 22.5,22.5 v 455 a 22.5,22.5 0 0 0 22.5,22.5 22.5,22.5 0 0 0 22.5,-22.5 v -410 a 67.5,67.5 0 0 1 67.5,-67.5 67.5,67.5 0 0 1 67.5,67.5 v 365 a 67.5,67.5 0 0 1 -67.5,67.5 22.5,22.5 0 0 0 -22.5,22.5 v 110 a 67.5,67.5 0 0 1 -67.5,67.5 67.5,67.5 0 0 1 -67.500002,-67.5 v -65 a 22.5,22.5 0 0 0 -22.5,-22.5 A 22.5,22.5 0 0 0 45,767.50003 v 110 a 22.5,22.5 0 0 1 -22.5,22.5 z m 135,-45 a 22.5,22.5 0 0 0 22.5,-22.5 v -65 a 22.5,22.5 0 0 0 -22.5,-22.5 22.5,22.5 0 0 0 -22.5,22.5 v 65 a 22.5,22.5 0 0 0 22.5,22.5 z m 90,-200 a 22.5,22.5 0 0 0 22.5,-22.5 v -365 a 22.5,22.5 0 0 0 -22.5,-22.5 22.5,22.5 0 0 0 -22.5,22.5 v 365 a 22.5,22.5 0 0 0 22.5,22.5 z"
         horiz-adv-x="360" />
      <glyph
         glyph-name="l_f_f"
         unicode="lff"
         id="glyph618"
         d="m 392.29688,1226.0371 a 22.5,22.5 0 0 0 -22.5,22.5 v 655 a 22.5,22.5 0 0 0 22.5,22.4981 22.5,22.5 0 0 0 22.5,-22.5 v -454.9981 a 22.5,22.5 0 0 1 22.5,-22.5 22.5,22.5 0 0 1 22.5,22.5 v 455 a 22.5,22.5 0 0 0 22.5,22.5 22.5,22.5 0 0 0 22.5,-22.5 v -455 a 22.5,22.5 0 0 1 22.5,-22.5 22.5,22.5 0 0 1 22.5,22.5 v 455 a 22.5,22.5 0 0 0 22.5,22.5 22.5,22.5 0 0 0 22.5,-22.5 v -455 a 22.5,22.5 0 0 1 22.5,-22.5 h 22.5 a 22.5,22.5 0 0 0 22.5,-22.5 22.5,22.5 0 0 0 -22.5,-22.5 h -22.5 a 22.5,22.5 0 0 1 -22.5,-22.5 v -42.5 -22.5 a 22.5,22.5 0 0 1 22.5,-22.5 22.5,22.5 0 0 1 22.5,22.5 v 22.5 a 22.5,22.5 0 0 0 22.5,22.5 22.5,22.5 0 0 0 22.5,-22.5 v -22.5 a 67.5,67.5 0 0 0 -67.5,-67.5 h -90 a 67.5,67.5 0 0 0 -67.5,67.5 v 65 a 22.5,22.5 0 0 1 -22.5,22.5 22.5,22.5 0 0 1 -22.5,-22.5 v -110 a 22.5,22.5 0 0 0 -22.5,-22.5 z m 135,45 a 22.5,22.5 0 0 1 22.5,22.5 v 22.5 42.5 a 22.5,22.5 0 0 1 -22.5,22.5 22.5,22.5 0 0 1 -22.5,-22.5 v -65 a 22.5,22.5 0 0 1 22.5,-22.5 z"
         horiz-adv-x="270" />
      <glyph
         glyph-name="l_f_h"
         unicode="lfh"
         id="glyph619"
         d="M 22.499998,900.00003 A 22.5,22.5 0 0 1 0,877.50003 v -655 a 22.5,22.5 0 0 1 22.499998,-22.5 22.5,22.5 0 0 1 22.5,22.5 v 455 a 22.5,22.5 0 0 0 22.5,22.5 22.5,22.5 0 0 0 22.5,-22.5 v -455 a 22.5,22.5 0 0 1 22.500002,-22.5 22.5,22.5 0 0 1 22.5,22.5 v 455 a 22.5,22.5 0 0 0 22.5,22.5 22.5,22.5 0 0 0 22.5,-22.5 v 22.5 45 22.5 a 22.5,22.5 0 0 0 -22.5,-22.5 22.5,22.5 0 0 0 -22.5,22.5 v 65 a 22.5,22.5 0 0 0 22.5,22.5 22.5,22.5 0 0 0 22.5,-22.5 h 0.002 v -610 a 22.5,22.5 0 0 1 22.5,-22.5 22.5,22.5 0 0 1 22.5,22.5 v 410.02149 a 22.5,22.5 0 0 0 22.498,22.47851 22.5,22.5 0 0 0 22.5,-22.5 v -410 a 22.5,22.5 0 0 1 22.5,-22.5 22.5,22.5 0 0 1 22.5,22.5 v 410 a 67.5,67.5 0 0 1 -67.5,67.5 22.5,22.5 0 0 0 -22.49805,22.47852 v 110.02148 h -0.002 a 67.5,67.5 0 0 1 -67.5,67.5 67.5,67.5 0 0 1 -67.500002,-67.5 v -65 a 22.5,22.5 0 0 0 -22.5,-22.5 22.5,22.5 0 0 0 -22.5,22.5 v 110 a 22.5,22.5 0 0 1 -22.5,22.5 z"
         horiz-adv-x="360" />
      <glyph
         glyph-name="l_f_k"
         unicode="lfk"
         id="glyph620"
         d="M 22.499999,900.00003 A 22.5,22.5 0 0 1 0,877.50003 v -655 a 22.5,22.5 0 0 1 22.499999,-22.5 22.5,22.5 0 0 1 22.5,22.5 v 455 a 22.5,22.5 0 0 0 22.5,22.5 22.5,22.5 0 0 0 22.5,-22.5 v -455 a 22.5,22.5 0 0 1 22.500001,-22.5 22.5,22.5 0 0 1 22.5,22.5 v 455 a 22.5,22.5 0 0 0 22.5,22.5 22.5,22.5 0 0 0 22.5,-22.5 v -455 a 22.5,22.5 0 0 1 22.5,-22.5 22.5,22.5 0 0 1 22.5,22.5 v 182.5 a 22.5,22.5 0 0 0 22.5,22.5 22.5,22.5 0 0 0 22.5,-22.5 v -182.5 a 22.5,22.5 0 0 1 22.5,-22.5 22.5,22.5 0 0 1 22.5,22.5 v 182.5 a 67.5,67.5 0 0 1 -67.5,67.5 22.5,22.5 0 0 0 -22.5,22.5 22.5,22.5 0 0 0 22.5,22.5 67.5,67.5 0 0 1 67.5,67.5 v 92.5 a 22.5,22.5 0 0 1 -22.5,22.5 22.5,22.5 0 0 1 -22.5,-22.5 v -92.5 a 22.5,22.5 0 0 0 -22.5,-22.5 22.5,22.5 0 0 0 -22.5,22.5 v 247.5 a 67.5,67.5 0 0 1 -67.5,67.5 67.5,67.5 0 0 1 -67.500001,-67.5 v -65 a 22.5,22.5 0 0 0 -22.5,-22.5 22.5,22.5 0 0 0 -22.5,22.5 v 110 a 22.5,22.5 0 0 1 -22.5,22.5 z m 135.000001,-45 a 22.5,22.5 0 0 0 22.5,-22.5 v -65 a 22.5,22.5 0 0 0 -22.5,-22.5 22.5,22.5 0 0 0 -22.5,22.5 v 65 a 22.5,22.5 0 0 0 22.5,22.5 z"
         horiz-adv-x="360" />
      <glyph
         glyph-name="l_f_l"
         unicode="lfl"
         id="glyph621"
         d="m 22.5,900.00003 a 22.5,22.5 0 0 1 -22.5,-22.5 v -655 a 22.5,22.5 0 0 1 22.5,-22.5 22.5,22.5 0 0 1 22.5,22.5 v 455 a 22.5,22.5 0 0 0 22.5,22.5 22.5,22.5 0 0 0 22.5,-22.5 v -455 a 22.5,22.5 0 0 1 22.5,-22.5 22.5,22.5 0 0 1 22.5,22.5 v 455 a 22.5,22.5 0 0 0 22.5,22.5 22.5,22.5 0 0 0 22.5,-22.5 V 222.64847 h 0.01 a 22.5,22.5 0 0 1 -0.01,-0.14844 22.5,22.5 0 0 1 22.5,-22.5 22.5,22.5 0 0 1 22.5,22.5 22.5,22.5 0 0 1 -0.004,0.14844 H 225 v 609.85156 a 67.5,67.5 0 0 1 -67.5,67.5 67.5,67.5 0 0 1 -67.5,-67.5 v -65 a 22.5,22.5 0 0 0 -22.5,-22.5 22.5,22.5 0 0 0 -22.5,22.5 v 110 a 22.5,22.5 0 0 1 -22.5,22.5 z m 135,-45 a 22.5,22.5 0 0 0 22.5,-22.5 v -65 a 22.5,22.5 0 0 0 -22.5,-22.5 22.5,22.5 0 0 0 -22.5,22.5 v 65 a 22.5,22.5 0 0 0 22.5,22.5 z"
         horiz-adv-x="270" />
      <glyph
         glyph-name="f_f_l"
         unicode="ffl"
         id="glyph622"
         d="M 67.498047,900 A 67.5,67.5 0 0 1 0,832.5 v -65 A 22.5,22.5 0 0 0 -22.5,745 22.5,22.5 0 0 1 -45,722.5 22.5,22.5 0 0 1 -22.5,700 22.5,22.5 0 0 0 0,677.5 v -455 A 22.5,22.5 0 0 1 22.5,200 22.5,22.5 0 0 1 45,222.5 v 455 A 22.5,22.5 0 0 0 67.5,700 22.5,22.5 0 0 0 90,677.5 v -455 A 22.5,22.5 0 0 1 112.5,200 22.5,22.5 0 0 1 135,222.5 v 455 A 22.5,22.5 0 0 0 157.5,700 22.5,22.5 0 0 0 180,677.5 V 222.50391 a 22.5,22.5 0 0 1 0,-0.004 22.5,22.5 0 0 1 22.5,-22.5 22.5,22.5 0 0 1 22.5,22.5 22.5,22.5 0 0 1 0,0.002 22.5,22.5 0 0 1 0,0.002 V 832.5 v 0.004 A 67.5,67.5 0 0 1 157.5,900 a 67.5,67.5 0 0 1 -0.002,0 z m 0,-45 H 67.5 A 22.5,22.5 0 0 0 90,832.5 V 810 767.5 A 22.5,22.5 0 0 0 67.5,745 22.5,22.5 0 0 0 45,767.5 v 65 A 22.5,22.5 0 0 0 67.498047,855 Z m 90.000003,0 a 22.5,22.5 0 0 0 0.002,0 22.5,22.5 0 0 0 22.5,-22.49609 22.5,22.5 0 0 0 0,-0.002 22.5,22.5 0 0 0 0,-0.002 v -65 A 22.5,22.5 0 0 0 157.5,745 22.5,22.5 0 0 0 135,767.5 v 42.5 22.5 a 22.5,22.5 0 0 0 22.49805,22.5 z"
         horiz-adv-x="270" />
      <glyph
         glyph-name="f_ö"
         unicode="fö"
         id="glyph1052"
         d="m 67.5,900.00003 a 67.5,67.5 0 0 1 -67.5,-67.5 v -65 a 22.5,22.5 0 0 0 -22.5,-22.5 22.5,22.5 0 0 1 -22.5,-22.5 22.5,22.5 0 0 1 22.5,-22.5 22.5,22.5 0 0 0 22.5,-22.5 v -455 a 22.5,22.5 0 0 1 22.5,-22.5 22.5,22.5 0 0 1 22.5,22.5 v 455 a 22.5,22.5 0 0 0 22.5,22.5 22.5,22.5 0 0 1 22.5,22.5 22.5,22.5 0 0 1 -22.5,22.5 22.5,22.5 0 0 0 -22.5,22.5 v 65 a 22.5,22.5 0 0 0 22.5,22.5 22.5,22.5 0 0 0 22.5,-22.5 v -67.5 a 22.5,22.5 0 0 1 22.5,-22.5 22.5,22.5 0 0 1 22.5,22.5 v 67.5 a 67.5,67.5 0 0 1 -67.5,67.5 z m 135,-112.5 a 22.5,22.5 0 0 1 -22.5,-22.5 22.5,22.5 0 0 1 22.5,-22.5 22.5,22.5 0 0 1 22.5,22.5 22.5,22.5 0 0 1 -22.5,22.5 z m -45,-87.5 a 67.5,67.5 0 0 1 -67.5,-67.5 v -365 a 67.5,67.5 0 0 1 67.5,-67.5 67.5,67.5 0 0 1 67.5,67.5 v 365 a 67.5,67.5 0 0 1 -67.5,67.5 z m 0,-45 a 22.5,22.5 0 0 0 22.5,-22.5 v -365 a 22.5,22.5 0 0 0 -22.5,-22.5 22.5,22.5 0 0 0 -22.5,22.5 v 365 a 22.5,22.5 0 0 0 22.5,22.5 z"
         horiz-adv-x="270" />
      <glyph
         glyph-name="f_ü"
         unicode="fü"
         id="glyph1053"
         d="m 67.5,899.99813 a 67.5,67.5 0 0 1 -67.5,-67.5 v -65 a 22.5,22.5 0 0 0 -22.48243,-22.49805 22.5,22.5 0 0 1 -0.01757,0 22.5,22.5 0 0 1 -22.5,-22.5 22.5,22.5 0 0 1 22.5,-22.5 v -0.002 a 22.5,22.5 0 0 0 22.5,-22.5 V 222.50003 a 22.5,22.5 0 0 1 22.5,-22.5 22.5,22.5 0 0 1 22.5,22.5 v 454.9981 a 22.5,22.5 0 0 0 22.5,22.5 v 0.002 a 22.5,22.5 0 0 1 22.5,22.5 22.5,22.5 0 0 1 -22.5,22.5 22.5,22.5 0 0 1 -0.01172,0 A 22.5,22.5 0 0 0 45,767.49813 v 65.00195 a 22.5,22.5 0 0 0 22.5,22.49805 22.5,22.5 0 0 0 22.5,-22.5 v -64.99805 a 22.5,22.5 0 0 1 22.5,-22.5 22.5,22.5 0 0 1 22.5,22.5 v 65 a 67.5,67.5 0 0 1 -67.5,67.49805 z m 135,-109.99805 a 22.5,22.5 0 0 1 -22.5,-22.5 22.5,22.5 0 0 1 22.5,-22.5 22.5,22.5 0 0 1 22.5,22.5 22.5,22.5 0 0 1 -22.5,22.5 z m -90,-90 a 22.5,22.5 0 0 1 -22.5,-22.5 v -410 a 67.5,67.5 0 0 1 67.5,-67.5 67.5,67.5 0 0 1 67.5,67.5 v 410 a 22.5,22.5 0 0 1 -22.5,22.5 22.5,22.5 0 0 1 -22.5,-22.5 v -410 a 22.5,22.5 0 0 0 -22.5,-22.5 22.5,22.5 0 0 0 -22.5,22.5 v 410 a 22.5,22.5 0 0 1 -22.5,22.5 z"
         horiz-adv-x="270" />
      <glyph
         glyph-name="f_ä"
         unicode="fä"
         id="glyph1054"
         d="m 67.5,900.00003 a 67.5,67.5 0 0 1 -67.5,-67.5 v -65 a 22.5,22.5 0 0 0 -22.5,-22.5 22.5,22.5 0 0 1 -22.5,-22.5 22.5,22.5 0 0 1 22.5,-22.5 22.5,22.5 0 0 0 22.5,-22.5 v -455 a 22.5,22.5 0 0 1 22.5,-22.5 22.5,22.5 0 0 1 22.5,22.5 v 455 a 22.5,22.5 0 0 0 22.5,22.5 22.5,22.5 0 0 1 22.5,22.5 22.5,22.5 0 0 1 -22.5,22.5 22.5,22.5 0 0 0 -22.5,22.5 v 65 a 22.5,22.5 0 0 0 22.5,22.5 22.5,22.5 0 0 0 22.5,-22.5 v -65 a 22.5,22.5 0 0 1 22.5,-22.5 22.5,22.5 0 0 1 22.5,22.5 v 65 a 67.5,67.5 0 0 1 -67.5,67.5 z m 135,-110 a 22.5,22.5 0 0 1 -22.5,-22.5 22.5,22.5 0 0 1 22.5,-22.5 22.5,22.5 0 0 1 22.5,22.5 22.5,22.5 0 0 1 -22.5,22.5 z m -45,-90 a 67.5,67.5 0 0 1 -67.5,-67.5 v -45 a 22.5,22.5 0 0 1 22.5,-22.5 22.5,22.5 0 0 1 22.5,22.5 v 45 a 22.5,22.5 0 0 0 22.5,22.5 22.5,22.5 0 0 0 22.5,-22.5 v -137.5 a 22.5,22.5 0 0 0 -22.5,-22.5 67.5,67.5 0 0 1 -67.5,-67.5 v -137.5 a 67.5,67.5 0 0 1 67.5,-67.5 67.5,67.5 0 0 1 67.5,67.5 v 365 a 67.5,67.5 0 0 1 -67.5,67.5 z m 0,-272.5 a 22.5,22.5 0 0 0 22.5,-22.5 v -137.5 a 22.5,22.5 0 0 0 -22.5,-22.5 22.5,22.5 0 0 0 -22.5,22.5 v 137.5 a 22.5,22.5 0 0 0 22.5,22.5 z"
         horiz-adv-x="270" />
      <glyph
         glyph-name="d_f_ö"
         unicode="dfö"
         id="glyph1055"
         horiz-adv-x="450"
         d="m 112.5,900.00003 a 22.5,22.5 0 0 1 -22.499996,-22.5 v -155 A 22.5,22.5 0 0 0 67.5,700.00003 67.5,67.5 0 0 1 0,632.50003 v -365 a 67.5,67.5 0 0 1 67.5,-67.5 67.5,67.5 0 0 1 67.5,67.5 v 410 a 22.5,22.5 0 0 0 22.5,22.5 22.5,22.5 0 0 0 22.5,-22.5 v -455 a 22.5,22.5 0 0 1 22.5,-22.5 22.5,22.5 0 0 1 22.5,22.5 v 455 a 22.5,22.5 0 0 0 22.5,22.5 22.5,22.5 0 0 1 22.5,22.5 22.5,22.5 0 0 1 -22.5,22.5 22.5,22.5 0 0 0 -22.5,22.5 v 65 a 22.5,22.5 0 0 0 22.5,22.5 22.5,22.5 0 0 0 22.5,-22.5 v -67.5 a 22.5,22.5 0 0 1 22.5,-22.5 22.5,22.5 0 0 1 22.5,22.5 v 67.5 a 67.5,67.5 0 0 1 -67.5,67.5 67.5,67.5 0 0 1 -67.5,-67.5 v -65 a 22.5,22.5 0 0 0 -22.5,-22.5 22.5,22.5 0 0 0 -22.5,22.5 v 110 a 22.5,22.5 0 0 1 -22.5,22.5 z m 270,-112.5 a 22.5,22.5 0 0 1 -22.5,-22.5 22.5,22.5 0 0 1 22.5,-22.5 22.5,22.5 0 0 1 22.5,22.5 22.5,22.5 0 0 1 -22.5,22.5 z m -45,-87.5 a 67.5,67.5 0 0 1 -67.5,-67.5 v -365 a 67.5,67.5 0 0 1 67.5,-67.5 67.5,67.5 0 0 1 67.5,67.5 v 365 a 67.5,67.5 0 0 1 -67.5,67.5 z m -270,-45 a 22.5,22.5 0 0 0 22.500004,-22.5 v -365 a 22.5,22.5 0 0 0 -22.500004,-22.5 22.5,22.5 0 0 0 -22.5,22.5 v 365 a 22.5,22.5 0 0 0 22.5,22.5 z m 270,0 a 22.5,22.5 0 0 0 22.5,-22.5 v -365 a 22.5,22.5 0 0 0 -22.5,-22.5 22.5,22.5 0 0 0 -22.5,22.5 v 365 a 22.5,22.5 0 0 0 22.5,22.5 z" />
      <glyph
         glyph-name="d_f_ü"
         unicode="dfü"
         id="glyph1056"
         d="m 112.5,900.00003 a 22.5,22.5 0 0 1 -22.5,-22.5 v -155 a 22.5,22.5 0 0 0 -22.5,-22.5 67.5,67.5 0 0 1 -67.5,-67.5 v -365 a 67.5,67.5 0 0 1 67.5,-67.5 67.5,67.5 0 0 1 67.5,67.5 v 410 a 22.5,22.5 0 0 0 22.5,22.5 22.5,22.5 0 0 0 22.5,-22.5 v -455 a 22.5,22.5 0 0 1 22.5,-22.5 22.5,22.5 0 0 1 22.5,22.5 v 455 a 22.5,22.5 0 0 0 22.5,22.5 22.5,22.5 0 0 1 22.5,22.5 22.5,22.5 0 0 1 -22.5,22.5 22.5,22.5 0 0 0 -22.5,22.5 v 65 a 22.5,22.5 0 0 0 22.5,22.5 22.5,22.5 0 0 0 22.5,-22.5 v -65 a 22.5,22.5 0 0 1 22.5,-22.5 22.5,22.5 0 0 1 22.5,22.5 v 65 a 67.5,67.5 0 0 1 -67.5,67.5 67.5,67.5 0 0 1 -67.5,-67.5 v -65 a 22.5,22.5 0 0 0 -22.5,-22.5 22.5,22.5 0 0 0 -22.5,22.5 v 110 a 22.5,22.5 0 0 1 -22.5,22.5 z m 270,-110 a 22.5,22.5 0 0 1 -22.5,-22.5 22.5,22.5 0 0 1 22.5,-22.5 22.5,22.5 0 0 1 22.5,22.5 22.5,22.5 0 0 1 -22.5,22.5 z m -90,-90 a 22.5,22.5 0 0 1 -22.5,-22.5 v -410 a 67.5,67.5 0 0 1 67.5,-67.5 67.5,67.5 0 0 1 67.5,67.5 v 410 a 22.5,22.5 0 0 1 -22.5,22.5 22.5,22.5 0 0 1 -22.5,-22.5 v -410 a 22.5,22.5 0 0 0 -22.5,-22.5 22.5,22.5 0 0 0 -22.5,22.5 v 410 a 22.5,22.5 0 0 1 -22.5,22.5 z m -225,-45 a 22.5,22.5 0 0 0 22.5,-22.5 v -365 a 22.5,22.5 0 0 0 -22.5,-22.5 22.5,22.5 0 0 0 -22.5,22.5 v 365 a 22.5,22.5 0 0 0 22.5,22.5 z"
         horiz-adv-x="450" />
      <glyph
         glyph-name="d_f_ä"
         unicode="dfä"
         id="glyph1057"
         d="m 112.29688,900.23633 a 22.5,22.5 0 0 1 -22.5,-22.5 v -155 a 22.5,22.5 0 0 0 -22.5,-22.5 67.5,67.5 0 0 1 -67.49999998,-67.5 v -365 a 67.5,67.5 0 0 1 67.49999998,-67.5 67.5,67.5 0 0 1 67.5,67.5 v 410 a 22.5,22.5 0 0 0 22.5,22.5 22.5,22.5 0 0 0 22.5,-22.5 v -455 a 22.5,22.5 0 0 1 22.5,-22.5 22.5,22.5 0 0 1 22.5,22.5 v 455 a 22.5,22.5 0 0 0 22.5,22.5 22.5,22.5 0 0 1 22.5,22.5 22.5,22.5 0 0 1 -22.5,22.5 22.5,22.5 0 0 0 -22.5,22.5 v 65 a 22.5,22.5 0 0 0 22.5,22.5 22.5,22.5 0 0 0 22.5,-22.5 v -65 a 22.5,22.5 0 0 1 22.5,-22.5 22.5,22.5 0 0 1 22.5,22.5 v 65 a 67.5,67.5 0 0 1 -67.5,67.5 67.5,67.5 0 0 1 -67.5,-67.5 v -65 a 22.5,22.5 0 0 0 -22.5,-22.5 22.5,22.5 0 0 0 -22.5,22.5 v 110 a 22.5,22.5 0 0 1 -22.5,22.5 z m 270,-110 a 22.5,22.5 0 0 1 -22.5,-22.5 22.5,22.5 0 0 1 22.5,-22.5 22.5,22.5 0 0 1 22.5,22.5 22.5,22.5 0 0 1 -22.5,22.5 z m -45,-90 a 67.5,67.5 0 0 1 -67.5,-67.5 v -44.99805 a 22.5,22.5 0 0 1 22.5,-22.5 22.5,22.5 0 0 1 22.5,22.5 v 45 a 22.5,22.5 0 0 0 22.5,22.49805 22.5,22.5 0 0 0 22.5,-22.5 v -137.5 a 22.5,22.5 0 0 0 -22.5,-22.5 67.5,67.5 0 0 1 -67.5,-67.5 v -137.5 a 67.5,67.5 0 0 1 67.5,-67.5 67.5,67.5 0 0 1 67.5,67.5 v 365 a 67.5,67.5 0 0 1 -67.5,67.5 z m -270,-45 a 22.5,22.5 0 0 0 22.5,-22.5 v -365 a 22.5,22.5 0 0 0 -22.5,-22.5 22.5,22.5 0 0 0 -22.5,22.5 v 365 a 22.5,22.5 0 0 0 22.5,22.5 z m 270,-227.5 a 22.5,22.5 0 0 0 22.5,-22.5 v -137.5 a 22.5,22.5 0 0 0 -22.5,-22.5 22.5,22.5 0 0 0 -22.5,22.5 v 137.5 a 22.5,22.5 0 0 0 22.5,22.5 z"
         horiz-adv-x="450" />
      <glyph
         glyph-name="l_f_ö"
         unicode="lfö"
         id="glyph1058"
         d="m 22.5,900.00003 a 22.5,22.5 0 0 1 -22.5,-22.5 v -655 a 22.5,22.5 0 0 1 22.5,-22.5 22.5,22.5 0 0 1 22.5,22.5 v 455 a 22.5,22.5 0 0 0 22.5,22.5 22.5,22.5 0 0 0 22.5,-22.5 v -455 a 22.5,22.5 0 0 1 22.5,-22.5 22.5,22.5 0 0 1 22.5,22.5 v 455 a 22.5,22.5 0 0 0 22.5,22.5 22.5,22.5 0 0 1 22.5,22.5 22.5,22.5 0 0 1 -22.5,22.5 22.5,22.5 0 0 0 -22.5,22.5 v 65 a 22.5,22.5 0 0 0 22.5,22.5 22.5,22.5 0 0 0 22.5,-22.5 v -67.5 a 22.5,22.5 0 0 1 22.5,-22.5 22.5,22.5 0 0 1 22.5,22.5 v 67.5 a 67.5,67.5 0 0 1 -67.5,67.5 67.5,67.5 0 0 1 -67.5,-67.5 v -65 a 22.5,22.5 0 0 0 -22.5,-22.5 22.5,22.5 0 0 0 -22.5,22.5 v 110 a 22.5,22.5 0 0 1 -22.5,22.5 z m 270,-112.5 a 22.5,22.5 0 0 1 -22.5,-22.5 22.5,22.5 0 0 1 22.5,-22.5 22.5,22.5 0 0 1 22.5,22.5 22.5,22.5 0 0 1 -22.5,22.5 z m -45,-87.5 a 67.5,67.5 0 0 1 -67.5,-67.5 v -365 a 67.5,67.5 0 0 1 67.5,-67.5 67.5,67.5 0 0 1 67.5,67.5 v 365 a 67.5,67.5 0 0 1 -67.5,67.5 z m 0,-45 a 22.5,22.5 0 0 0 22.5,-22.5 v -365 a 22.5,22.5 0 0 0 -22.5,-22.5 22.5,22.5 0 0 0 -22.5,22.5 v 365 a 22.5,22.5 0 0 0 22.5,22.5 z"
         horiz-adv-x="360" />
      <glyph
         glyph-name="l_f_ü"
         unicode="lfü"
         id="glyph1059"
         d="m 22.5,900.00003 a 22.5,22.5 0 0 1 -22.5,-22.5 v -655 a 22.5,22.5 0 0 1 22.5,-22.5 22.5,22.5 0 0 1 22.5,22.5 v 455 a 22.5,22.5 0 0 0 22.5,22.5 22.5,22.5 0 0 0 22.5,-22.5 v -455 a 22.5,22.5 0 0 1 22.5,-22.5 22.5,22.5 0 0 1 22.5,22.5 v 455 a 22.5,22.5 0 0 0 22.5,22.5 22.5,22.5 0 0 1 22.5,22.5 22.5,22.5 0 0 1 -22.5,22.5 22.5,22.5 0 0 0 -22.5,22.5 v 65 a 22.5,22.5 0 0 0 22.5,22.5 22.5,22.5 0 0 0 22.5,-22.5 v -65 a 22.5,22.5 0 0 1 22.5,-22.5 22.5,22.5 0 0 1 22.5,22.5 v 65 a 67.5,67.5 0 0 1 -67.5,67.5 67.5,67.5 0 0 1 -67.5,-67.5 v -65 a 22.5,22.5 0 0 0 -22.5,-22.5 22.5,22.5 0 0 0 -22.5,22.5 v 110 a 22.5,22.5 0 0 1 -22.5,22.5 z m 270,-110 a 22.5,22.5 0 0 1 -22.5,-22.5 22.5,22.5 0 0 1 22.5,-22.5 22.5,22.5 0 0 1 22.5,22.5 22.5,22.5 0 0 1 -22.5,22.5 z m -90,-90 a 22.5,22.5 0 0 1 -22.5,-22.5 v -410 a 67.5,67.5 0 0 1 67.5,-67.5 67.5,67.5 0 0 1 67.5,67.5 v 410 a 22.5,22.5 0 0 1 -22.5,22.5 22.5,22.5 0 0 1 -22.5,-22.5 v -410 a 22.5,22.5 0 0 0 -22.5,-22.5 22.5,22.5 0 0 0 -22.5,22.5 v 410 a 22.5,22.5 0 0 1 -22.5,22.5 z"
         horiz-adv-x="360" />
      <glyph
         glyph-name="l_f_ä"
         unicode="lfä"
         id="glyph1060"
         d="M 22.5,900 A 22.5,22.5 0 0 1 0,877.5 v -655 A 22.5,22.5 0 0 1 22.5,200 22.5,22.5 0 0 1 45,222.5 v 455 A 22.5,22.5 0 0 0 67.5,700 22.5,22.5 0 0 0 90,677.5 v -455 A 22.5,22.5 0 0 1 112.5,200 22.5,22.5 0 0 1 135,222.5 v 455 A 22.5,22.5 0 0 0 157.5,700 22.5,22.5 0 0 1 180,722.5 22.5,22.5 0 0 1 157.5,745 22.5,22.5 0 0 0 135,767.5 v 65 A 22.5,22.5 0 0 0 157.5,855 22.5,22.5 0 0 0 180,832.5 v -65 A 22.5,22.5 0 0 1 202.5,745 22.5,22.5 0 0 1 225,767.5 v 65 A 67.5,67.5 0 0 1 157.5,900 67.5,67.5 0 0 1 90,832.5 v -65 A 22.5,22.5 0 0 0 67.5,745 22.5,22.5 0 0 0 45,767.5 v 110 A 22.5,22.5 0 0 1 22.5,900 Z m 270,-110 A 22.5,22.5 0 0 1 270,767.5 22.5,22.5 0 0 1 292.5,745 22.5,22.5 0 0 1 315,767.5 22.5,22.5 0 0 1 292.5,790 Z m -45,-90 A 67.5,67.5 0 0 1 180,632.5 v -45 A 22.5,22.5 0 0 1 202.5,565 22.5,22.5 0 0 1 225,587.5 v 45 A 22.5,22.5 0 0 0 247.5,655 22.5,22.5 0 0 0 270,632.5 V 495 A 22.5,22.5 0 0 0 247.5,472.5 67.5,67.5 0 0 1 180,405 V 267.5 A 67.5,67.5 0 0 1 247.5,200 67.5,67.5 0 0 1 315,267.5 v 365 A 67.5,67.5 0 0 1 247.5,700 Z m 0,-272.5 A 22.5,22.5 0 0 0 270,405 V 267.5 A 22.5,22.5 0 0 0 247.5,245 22.5,22.5 0 0 0 225,267.5 V 405 a 22.5,22.5 0 0 0 22.5,22.5 z"
         horiz-adv-x="360" />
      <glyph
         glyph-name="t_f_ö"
         unicode="tfö"
         id="glyph1061"
         d="m 22.5,900.00003 a 22.5,22.5 0 0 1 -22.5,-22.5 v -110 a 22.5,22.5 0 0 0 -22.5,-22.5 22.5,22.5 0 0 1 -22.5,-22.5 22.5,22.5 0 0 1 22.5,-22.5 22.5,22.5 0 0 0 22.5,-22.5 v -455 a 22.5,22.5 0 0 1 22.5,-22.5 22.5,22.5 0 0 1 22.5,22.5 v 455 a 22.5,22.5 0 0 0 22.5,22.5 22.5,22.5 0 0 0 22.5,-22.5 v -455 a 22.5,22.5 0 0 1 22.5,-22.5 22.5,22.5 0 0 1 22.5,22.5 v 455 a 22.5,22.5 0 0 0 22.5,22.5 22.5,22.5 0 0 1 22.5,22.5 22.5,22.5 0 0 1 -22.5,22.5 22.5,22.5 0 0 0 -22.5,22.5 v 65 a 22.5,22.5 0 0 0 22.5,22.5 22.5,22.5 0 0 0 22.5,-22.5 v -67.5 a 22.5,22.5 0 0 1 22.5,-22.5 22.5,22.5 0 0 1 22.5,22.5 v 67.5 a 67.5,67.5 0 0 1 -67.5,67.5 67.5,67.5 0 0 1 -67.5,-67.5 v -65 a 22.5,22.5 0 0 0 -22.5,-22.5 22.5,22.5 0 0 0 -22.5,22.5 v 110 a 22.5,22.5 0 0 1 -22.5,22.5 z m 270,-112.5 a 22.5,22.5 0 0 1 -22.5,-22.5 22.5,22.5 0 0 1 22.5,-22.5 22.5,22.5 0 0 1 22.5,22.5 22.5,22.5 0 0 1 -22.5,22.5 z m -45,-87.5 a 67.5,67.5 0 0 1 -67.5,-67.5 v -365 a 67.5,67.5 0 0 1 67.5,-67.5 67.5,67.5 0 0 1 67.5,67.5 v 365 a 67.5,67.5 0 0 1 -67.5,67.5 z m 0,-45 a 22.5,22.5 0 0 0 22.5,-22.5 v -365 a 22.5,22.5 0 0 0 -22.5,-22.5 22.5,22.5 0 0 0 -22.5,22.5 v 365 a 22.5,22.5 0 0 0 22.5,22.5 z"
         horiz-adv-x="360" />
      <glyph
         glyph-name="t_f_ü"
         unicode="tfü"
         id="glyph1062"
         d="m 22.5,900.00003 a 22.5,22.5 0 0 1 -22.5,-22.5 v -110 a 22.5,22.5 0 0 0 -22.5,-22.5 22.5,22.5 0 0 1 -22.5,-22.5 22.5,22.5 0 0 1 22.5,-22.5 22.5,22.5 0 0 0 22.5,-22.5 v -455 a 22.5,22.5 0 0 1 22.5,-22.5 22.5,22.5 0 0 1 22.5,22.5 v 455 a 22.5,22.5 0 0 0 22.5,22.5 22.5,22.5 0 0 0 22.5,-22.5 v -455 a 22.5,22.5 0 0 1 22.5,-22.5 22.5,22.5 0 0 1 22.5,22.5 v 455 a 22.5,22.5 0 0 0 22.5,22.5 22.5,22.5 0 0 1 22.5,22.5 22.5,22.5 0 0 1 -22.5,22.5 22.5,22.5 0 0 0 -22.5,22.5 v 65 a 22.5,22.5 0 0 0 22.5,22.5 22.5,22.5 0 0 0 22.5,-22.5 v -65 a 22.5,22.5 0 0 1 22.5,-22.5 22.5,22.5 0 0 1 22.5,22.5 v 65 a 67.5,67.5 0 0 1 -67.5,67.5 67.5,67.5 0 0 1 -67.5,-67.5 v -65 a 22.5,22.5 0 0 0 -22.5,-22.5 22.5,22.5 0 0 0 -22.5,22.5 v 110 a 22.5,22.5 0 0 1 -22.5,22.5 z m 270,-110 a 22.5,22.5 0 0 1 -22.5,-22.5 22.5,22.5 0 0 1 22.5,-22.5 22.5,22.5 0 0 1 22.5,22.5 22.5,22.5 0 0 1 -22.5,22.5 z m -90,-90 a 22.5,22.5 0 0 1 -22.5,-22.5 v -410 a 67.5,67.5 0 0 1 67.5,-67.5 67.5,67.5 0 0 1 67.5,67.5 v 410 a 22.5,22.5 0 0 1 -22.5,22.5 22.5,22.5 0 0 1 -22.5,-22.5 v -410 a 22.5,22.5 0 0 0 -22.5,-22.5 22.5,22.5 0 0 0 -22.5,22.5 v 410 a 22.5,22.5 0 0 1 -22.5,22.5 z"
         horiz-adv-x="360" />
      <glyph
         glyph-name="t_f_ä"
         unicode="tfä"
         id="glyph1063"
         d="m 22.5,900.00003 a 22.5,22.5 0 0 1 -22.5,-22.5 v -110 a 22.5,22.5 0 0 0 -22.5,-22.5 22.5,22.5 0 0 1 -22.5,-22.5 22.5,22.5 0 0 1 22.5,-22.5 22.5,22.5 0 0 0 22.5,-22.5 v -455 a 22.5,22.5 0 0 1 22.5,-22.5 22.5,22.5 0 0 1 22.5,22.5 v 455 a 22.5,22.5 0 0 0 22.5,22.5 22.5,22.5 0 0 0 22.5,-22.5 v -455 a 22.5,22.5 0 0 1 22.5,-22.5 22.5,22.5 0 0 1 22.5,22.5 v 455 a 22.5,22.5 0 0 0 22.5,22.5 22.5,22.5 0 0 1 22.5,22.5 22.5,22.5 0 0 1 -22.5,22.5 22.5,22.5 0 0 0 -22.5,22.5 v 65 a 22.5,22.5 0 0 0 22.5,22.5 22.5,22.5 0 0 0 22.5,-22.5 v -65 a 22.5,22.5 0 0 1 22.5,-22.5 22.5,22.5 0 0 1 22.5,22.5 v 65 a 67.5,67.5 0 0 1 -67.5,67.5 67.5,67.5 0 0 1 -67.5,-67.5 v -65 a 22.5,22.5 0 0 0 -22.5,-22.5 22.5,22.5 0 0 0 -22.5,22.5 v 110 a 22.5,22.5 0 0 1 -22.5,22.5 z m 270,-110 a 22.5,22.5 0 0 1 -22.5,-22.5 22.5,22.5 0 0 1 22.5,-22.5 22.5,22.5 0 0 1 22.5,22.5 22.5,22.5 0 0 1 -22.5,22.5 z m -45,-90 a 67.5,67.5 0 0 1 -67.5,-67.5 v -45 a 22.5,22.5 0 0 1 22.5,-22.5 22.5,22.5 0 0 1 22.5,22.5 v 45 a 22.5,22.5 0 0 0 22.5,22.5 22.5,22.5 0 0 0 22.5,-22.5 v -137.5 a 22.5,22.5 0 0 0 -22.5,-22.5 67.5,67.5 0 0 1 -67.5,-67.5 v -137.5 a 67.5,67.5 0 0 1 67.5,-67.5 67.5,67.5 0 0 1 67.5,67.5 v 365 a 67.5,67.5 0 0 1 -67.5,67.5 z m 0,-272.5 a 22.5,22.5 0 0 0 22.5,-22.5 v -137.5 a 22.5,22.5 0 0 0 -22.5,-22.5 22.5,22.5 0 0 0 -22.5,22.5 v 137.5 a 22.5,22.5 0 0 0 22.5,22.5 z"
         horiz-adv-x="360" />
      <glyph
         glyph-name="ß"
         unicode="ß"
         id="glyph13"
         d="M 67.5,900 A 67.5,67.5 0 0 1 0,832.5 V 22.5 A 22.5,22.5 0 0 1 22.5,0 22.5,22.5 0 0 1 45,22.5 v 155 A 22.5,22.5 0 0 0 67.5,200 67.5,67.5 0 0 1 135,267.5 v 565 A 67.5,67.5 0 0 1 67.5,900 Z m 0,-45 A 22.5,22.5 0 0 0 90,832.5 V 700 A 22.5,22.5 0 0 0 67.5,677.5 22.5,22.5 0 0 0 45,700 V 832.5 A 22.5,22.5 0 0 0 67.5,855 Z m 0,-222.5 A 22.5,22.5 0 0 0 90,610 V 267.5 A 22.5,22.5 0 0 0 67.5,245 22.5,22.5 0 0 0 45,267.5 V 610 a 22.5,22.5 0 0 0 22.5,22.5 z"
         horiz-adv-x="180" />
      <glyph
         glyph-name="t_ß"
         unicode="tß"
         id="glyph14"
         d="m -564.73828,960.79687 a 22.5,22.5 0 0 0 22.5,-22.5 V 828.29688 a 22.5,22.5 0 0 1 22.5,-22.5 22.5,22.5 0 0 0 22.5,-22.5 22.5,22.5 0 0 0 -22.5,-22.5 22.5,22.5 0 0 1 -22.5,-22.5 v -455 a 22.5,22.5 0 0 0 -22.5,-22.5 22.5,22.5 0 0 0 -22.5,22.5 v 455 a 22.5,22.5 0 0 1 -22.5,22.5 22.5,22.5 0 0 1 -22.5,-22.5 v -655 a 22.5,22.5 0 0 0 -22.5,-22.5 22.5,22.5 0 0 0 -22.5,22.5 v 155 a 22.5,22.5 0 0 1 -22.5,22.5 67.5,67.5 0 0 0 -67.5,67.5 v 565 a 67.5,67.5 0 0 0 67.5,67.49999 67.5,67.5 0 0 0 67.5,-67.49999 v -65 a 22.5,22.5 0 0 1 22.5,-22.5 22.5,22.5 0 0 1 22.5,22.5 v 109.99999 a 22.5,22.5 0 0 0 22.5,22.5 z m -135,-44.99999 a 22.5,22.5 0 0 1 -22.5,-22.5 v -132.5 a 22.5,22.5 0 0 1 22.5,-22.5 22.5,22.5 0 0 1 22.5,22.5 v 132.5 a 22.5,22.5 0 0 1 -22.5,22.5 z m 0,-222.5 a 22.5,22.5 0 0 1 -22.5,-22.5 v -342.5 a 22.5,22.5 0 0 1 22.5,-22.5 22.5,22.5 0 0 1 22.5,22.5 v 342.5 a 22.5,22.5 0 0 1 -22.5,22.5 z"
         horiz-adv-x="270" />
      <glyph
         glyph-name="f_ß"
         unicode="fß"
         id="glyph15"
         d="M 67.5,899.99999 A 67.5,67.5 0 0 1 0,832.5 v -65 A 22.5,22.5 0 0 0 -22.5,745 22.5,22.5 0 0 1 -45,722.5 22.5,22.5 0 0 1 -22.5,700 22.5,22.5 0 0 0 0,677.5 v -455 A 22.5,22.5 0 0 1 22.5,200 22.5,22.5 0 0 1 45,222.5 v 455 A 22.5,22.5 0 0 0 67.5,700 22.5,22.5 0 0 0 90,677.5 V 22.3945 h 0.008 A 22.5,22.5 0 0 1 112.5,0 22.5,22.5 0 0 1 134.99219,22.3945 h 0.008 V 177.5 a 22.5,22.5 0 0 0 22.5,22.5 67.5,67.5 0 0 1 67.5,67.5 v 565 a 67.5,67.5 0 0 1 -67.5,67.49999 z M 67.5,855 A 22.5,22.5 0 0 0 90,832.5 v -65 A 22.5,22.5 0 0 0 67.5,745 22.5,22.5 0 0 0 45,767.5 v 65 A 22.5,22.5 0 0 0 67.5,855 Z m 90,0 A 22.5,22.5 0 0 0 180,832.5 V 700 A 22.5,22.5 0 0 0 157.5,677.5 22.5,22.5 0 0 0 135,700 v 132.5 a 22.5,22.5 0 0 0 22.5,22.5 z m 0,-222.5 A 22.5,22.5 0 0 0 180,610 V 267.5 A 22.5,22.5 0 0 0 157.5,245 22.5,22.5 0 0 0 135,267.5 V 610 a 22.5,22.5 0 0 0 22.5,22.5 z"
         horiz-adv-x="270" />
      <glyph
         glyph-name="ß_t"
         unicode="ßt"
         id="glyph16"
         d="M 67.500001,899.99999 A 67.5,67.5 0 0 1 0,832.49999 V 22.5 A 22.5,22.5 0 0 1 22.5,0 22.5,22.5 0 0 1 45,22.5 v 154.99999 a 22.5,22.5 0 0 0 22.500001,22.5 67.5,67.5 0 0 1 67.499999,67.5 v 410 a 22.5,22.5 0 0 0 22.5,22.5 22.5,22.5 0 0 0 22.5,-22.5 v -455 a 22.5,22.5 0 0 1 22.5,-22.5 22.5,22.5 0 0 1 22.5,22.5 v 455 a 22.5,22.5 0 0 0 22.5,22.5 22.5,22.5 0 0 1 22.5,22.5 22.5,22.5 0 0 1 -22.5,22.5 22.5,22.5 0 0 0 -22.5,22.5 v 110 a 22.5,22.5 0 0 1 -22.5,22.5 22.5,22.5 0 0 1 -22.5,-22.5 v -110 a 22.5,22.5 0 0 0 -22.5,-22.5 22.5,22.5 0 0 0 -22.5,22.5 v 65 a 67.5,67.5 0 0 1 -67.499999,67.5 z m 0,-45 a 22.5,22.5 0 0 0 22.5,-22.5 v -132.5 a 22.5,22.5 0 0 0 -22.5,-22.5 A 22.5,22.5 0 0 0 45,699.99999 v 132.5 a 22.5,22.5 0 0 0 22.500001,22.5 z m 0,-222.5 a 22.5,22.5 0 0 0 22.5,-22.5 v -342.5 a 22.5,22.5 0 0 0 -22.5,-22.5 A 22.5,22.5 0 0 0 45,267.49999 v 342.5 a 22.5,22.5 0 0 0 22.500001,22.5 z"
         horiz-adv-x="270" />
      <glyph
         glyph-name="ß_f"
         unicode="ßf"
         id="glyph17"
         d="M 67.5,900 A 67.5,67.5 0 0 1 0,832.5 V 22.5 A 22.5,22.5 0 0 1 22.5,0 22.5,22.5 0 0 1 45,22.5 v 155 A 22.5,22.5 0 0 0 67.5,200 67.5,67.5 0 0 1 135,267.5 v 410 A 22.5,22.5 0 0 0 157.5,700 22.5,22.5 0 0 0 180,677.5 v -455 A 22.5,22.5 0 0 1 202.5,200 22.5,22.5 0 0 1 225,222.5 v 455 A 22.5,22.5 0 0 0 247.5,700 22.5,22.5 0 0 1 270,722.5 22.5,22.5 0 0 1 247.5,745 22.5,22.5 0 0 0 225,767.5 v 65 A 22.5,22.5 0 0 0 247.5,855 22.5,22.5 0 0 0 270,832.5 v -45 A 22.5,22.5 0 0 1 292.5,765 22.5,22.5 0 0 1 315,787.5 v 45 A 67.5,67.5 0 0 1 247.5,900 67.5,67.5 0 0 1 180,832.5 v -65 A 22.5,22.5 0 0 0 157.5,745 22.5,22.5 0 0 0 135,767.5 v 65 A 67.5,67.5 0 0 1 67.5,900 Z m 0,-45 A 22.5,22.5 0 0 0 90,832.5 V 700 A 22.5,22.5 0 0 0 67.5,677.5 22.5,22.5 0 0 0 45,700 V 832.5 A 22.5,22.5 0 0 0 67.5,855 Z m 0,-222.5 A 22.5,22.5 0 0 0 90,610 V 267.5 A 22.5,22.5 0 0 0 67.5,245 22.5,22.5 0 0 0 45,267.5 V 610 a 22.5,22.5 0 0 0 22.5,22.5 z"
         horiz-adv-x="270" />
      <glyph
         glyph-name="t_t"
         unicode="tt"
         id="glyph18"
         d="m 22.5,900.00003 a 22.5,22.5 0 0 1 -22.5,-22.5 v -110 a 22.5,22.5 0 0 0 -22.5,-22.5 22.5,22.5 0 0 1 -22.5,-22.5 22.5,22.5 0 0 1 22.5,-22.5 22.5,22.5 0 0 0 22.5,-22.5 v -455 a 22.5,22.5 0 0 1 22.5,-22.5 22.5,22.5 0 0 1 22.5,22.5 v 455 a 22.5,22.5 0 0 0 22.5,22.5 22.5,22.5 0 0 0 22.5,-22.5 v -455 a 22.5,22.5 0 0 1 22.5,-22.5 22.5,22.5 0 0 1 22.5,22.5 v 455 a 22.5,22.5 0 0 0 22.5,22.5 22.5,22.5 0 0 1 22.5,22.5 22.5,22.5 0 0 1 -22.5,22.5 22.5,22.5 0 0 0 -22.5,22.5 v 110 a 22.5,22.5 0 0 1 -22.5,22.5 22.5,22.5 0 0 1 -22.5,-22.5 v -110 a 22.5,22.5 0 0 0 -22.5,-22.5 22.5,22.5 0 0 0 -22.5,22.5 v 110 a 22.5,22.5 0 0 1 -22.5,22.5 z"
         horiz-adv-x="180" />
      <glyph
         glyph-name="d_t_ß"
         unicode="dtß"
         id="glyph19"
         d="M 112.5,900 A 22.5,22.5 0 0 1 90,877.5 v -155 A 22.5,22.5 0 0 0 67.5,700 67.5,67.5 0 0 1 0,632.5 v -365 A 67.5,67.5 0 0 1 67.5,200 67.5,67.5 0 0 1 135,267.5 v 410 A 22.5,22.5 0 0 0 157.5,700 22.5,22.5 0 0 0 180,677.5 v -455 A 22.5,22.5 0 0 1 202.5,200 22.5,22.5 0 0 1 225,222.5 v 455 A 22.5,22.5 0 0 0 247.5,700 22.5,22.5 0 0 0 270,677.5 V 22.5 A 22.5,22.5 0 0 1 292.5,0 22.5,22.5 0 0 1 315,22.5 v 155 a 22.5,22.5 0 0 0 22.5,22.5 67.5,67.5 0 0 1 67.5,67.5 v 565 A 67.5,67.5 0 0 1 337.5,900 67.5,67.5 0 0 1 270,832.5 v -65 A 22.5,22.5 0 0 0 247.5,745 22.5,22.5 0 0 0 225,767.5 v 110 A 22.5,22.5 0 0 1 202.5,900 22.5,22.5 0 0 1 180,877.5 v -110 A 22.5,22.5 0 0 0 157.5,745 22.5,22.5 0 0 0 135,767.5 v 110 A 22.5,22.5 0 0 1 112.5,900 Z m 225,-45 A 22.5,22.5 0 0 0 360,832.5 V 700 A 22.5,22.5 0 0 0 337.5,677.5 22.5,22.5 0 0 0 315,700 V 832.5 A 22.5,22.5 0 0 0 337.5,855 Z M 67.5,655 A 22.5,22.5 0 0 0 90,632.5 v -365 A 22.5,22.5 0 0 0 67.5,245 22.5,22.5 0 0 0 45,267.5 v 365 A 22.5,22.5 0 0 0 67.5,655 Z m 270,-22.5 A 22.5,22.5 0 0 0 360,610 V 267.5 A 22.5,22.5 0 0 0 337.5,245 22.5,22.5 0 0 0 315,267.5 V 610 a 22.5,22.5 0 0 0 22.5,22.5 z"
         horiz-adv-x="450" />
      <glyph
         glyph-name="d_f_ß"
         unicode="dfß"
         id="glyph20"
         d="m 112.5,900.00001 a 22.5,22.5 0 0 1 -22.5,-22.5 V 722.50002 a 22.5,22.5 0 0 0 -22.5,-22.5 67.5,67.5 0 0 1 -67.5,-67.5 v -365 a 67.5,67.5 0 0 1 67.5,-67.5 67.5,67.5 0 0 1 67.5,67.5 v 410 a 22.5,22.5 0 0 0 22.5,22.5 22.5,22.5 0 0 0 22.5,-22.5 v -455 a 22.5,22.5 0 0 1 22.5,-22.5 22.5,22.5 0 0 1 22.5,22.5 v 455 a 22.5,22.5 0 0 0 22.5,22.5 22.5,22.5 0 0 0 22.5,-22.5 V 22.3945 h 0.008 A 22.5,22.5 0 0 1 292.50018,0 22.5,22.5 0 0 1 314.99237,22.3945 h 0.008 v 155.10552 a 22.5,22.5 0 0 0 22.5,22.5 67.5,67.5 0 0 1 67.5,67.5 v 564.99999 a 67.5,67.5 0 0 1 -67.5,67.5 h -90 a 67.5,67.5 0 0 1 -67.5,-67.5 v -64.99999 a 22.5,22.5 0 0 0 -22.5,-22.5 22.5,22.5 0 0 0 -22.5,22.5 v 109.99999 a 22.5,22.5 0 0 1 -22.5,22.5 z m 135,-45 a 22.5,22.5 0 0 0 22.5,-22.5 v -64.99999 a 22.5,22.5 0 0 0 -22.5,-22.5 22.5,22.5 0 0 0 -22.5,22.5 v 64.99999 a 22.5,22.5 0 0 0 22.5,22.5 z m 90,0 a 22.5,22.5 0 0 0 22.5,-22.5 V 700.00002 a 22.5,22.5 0 0 0 -22.5,-22.5 22.5,22.5 0 0 0 -22.5,22.5 v 132.49999 a 22.5,22.5 0 0 0 22.5,22.5 z M 67.5,655.00002 a 22.5,22.5 0 0 0 22.5,-22.5 v -365 a 22.5,22.5 0 0 0 -22.5,-22.5 22.5,22.5 0 0 0 -22.5,22.5 v 365 a 22.5,22.5 0 0 0 22.5,22.5 z m 270,-22.5 a 22.5,22.5 0 0 0 22.5,-22.5 v -342.5 a 22.5,22.5 0 0 0 -22.5,-22.5 22.5,22.5 0 0 0 -22.5,22.5 v 342.5 a 22.5,22.5 0 0 0 22.5,22.5 z"
         horiz-adv-x="450" />
      <glyph
         glyph-name="d_t_t"
         unicode="dtt"
         id="glyph21"
         d="m 112.5,900.00003 a 22.5,22.5 0 0 1 -22.5,-22.5 v -155 a 22.5,22.5 0 0 0 -22.5,-22.5 67.5,67.5 0 0 1 -67.5,-67.5 v -365 a 67.5,67.5 0 0 1 67.5,-67.5 67.5,67.5 0 0 1 67.5,67.5 v 410 a 22.5,22.5 0 0 0 22.5,22.5 22.5,22.5 0 0 0 22.5,-22.5 v -455 a 22.5,22.5 0 0 1 22.5,-22.5 22.5,22.5 0 0 1 22.5,22.5 v 455 a 22.5,22.5 0 0 0 22.5,22.5 22.5,22.5 0 0 0 22.5,-22.5 v -455 a 22.5,22.5 0 0 1 22.5,-22.5 22.5,22.5 0 0 1 22.5,22.5 v 455 a 22.5,22.5 0 0 0 22.5,22.5 22.5,22.5 0 0 1 22.5,22.5 22.5,22.5 0 0 1 -22.5,22.5 22.5,22.5 0 0 0 -22.5,22.5 v 110 a 22.5,22.5 0 0 1 -22.5,22.5 22.5,22.5 0 0 1 -22.5,-22.5 v -110 a 22.5,22.5 0 0 0 -22.5,-22.5 22.5,22.5 0 0 0 -22.5,22.5 v 110 a 22.5,22.5 0 0 1 -22.5,22.5 22.5,22.5 0 0 1 -22.5,-22.5 v -110 a 22.5,22.5 0 0 0 -22.5,-22.5 22.5,22.5 0 0 0 -22.5,22.5 v 110 a 22.5,22.5 0 0 1 -22.5,22.5 z m -45,-245 a 22.5,22.5 0 0 0 22.5,-22.5 v -365 a 22.5,22.5 0 0 0 -22.5,-22.5 22.5,22.5 0 0 0 -22.5,22.5 v 365 a 22.5,22.5 0 0 0 22.5,22.5 z"
         horiz-adv-x="360" />
      <glyph
         glyph-name="ß_t_t"
         unicode="ßtt"
         id="glyph22"
         d="M 67.5,900 A 67.5,67.5 0 0 1 0,832.5 V 22.5 A 22.5,22.5 0 0 1 22.5,0 22.5,22.5 0 0 1 45,22.5 v 155 A 22.5,22.5 0 0 0 67.5,200 67.5,67.5 0 0 1 135,267.5 v 410 A 22.5,22.5 0 0 0 157.5,700 22.5,22.5 0 0 0 180,677.5 v -455 A 22.5,22.5 0 0 1 202.5,200 22.5,22.5 0 0 1 225,222.5 v 455 A 22.5,22.5 0 0 0 247.5,700 22.5,22.5 0 0 0 270,677.5 v -455 A 22.5,22.5 0 0 1 292.5,200 22.5,22.5 0 0 1 315,222.5 v 455 A 22.5,22.5 0 0 0 337.5,700 22.5,22.5 0 0 1 360,722.5 22.5,22.5 0 0 1 337.5,745 22.5,22.5 0 0 0 315,767.5 v 110 A 22.5,22.5 0 0 1 292.5,900 22.5,22.5 0 0 1 270,877.5 v -110 A 22.5,22.5 0 0 0 247.5,745 22.5,22.5 0 0 0 225,767.5 v 110 A 22.5,22.5 0 0 1 202.5,900 22.5,22.5 0 0 1 180,877.5 v -110 A 22.5,22.5 0 0 0 157.5,745 22.5,22.5 0 0 0 135,767.5 v 65 A 67.5,67.5 0 0 1 67.5,900 Z m 0,-45 A 22.5,22.5 0 0 0 90,832.5 V 700 A 22.5,22.5 0 0 0 67.5,677.5 22.5,22.5 0 0 0 45,700 V 832.5 A 22.5,22.5 0 0 0 67.5,855 Z m 0,-222.5 A 22.5,22.5 0 0 0 90,610 V 267.5 A 22.5,22.5 0 0 0 67.5,245 22.5,22.5 0 0 0 45,267.5 V 610 a 22.5,22.5 0 0 0 22.5,22.5 z"
         horiz-adv-x="360" />
      <glyph
         glyph-name="l_t_t"
         unicode="ltt"
         id="glyph23"
         d="m 22.5,900.00003 a 22.5,22.5 0 0 1 -22.5,-22.5 v -655 a 22.5,22.5 0 0 1 22.5,-22.5 22.5,22.5 0 0 1 22.5,22.5 v 455 a 22.5,22.5 0 0 0 22.5,22.5 22.5,22.5 0 0 0 22.5,-22.5 v -455 a 22.5,22.5 0 0 1 22.5,-22.5 22.5,22.5 0 0 1 22.5,22.5 v 455 a 22.5,22.5 0 0 0 22.5,22.5 22.5,22.5 0 0 0 22.5,-22.5 v -455 a 22.5,22.5 0 0 1 22.5,-22.5 22.5,22.5 0 0 1 22.5,22.5 v 455 a 22.5,22.5 0 0 0 22.5,22.5 22.5,22.5 0 0 1 22.5,22.5 22.5,22.5 0 0 1 -22.5,22.5 22.5,22.5 0 0 0 -22.5,22.5 v 110 a 22.5,22.5 0 0 1 -22.5,22.5 22.5,22.5 0 0 1 -22.5,-22.5 v -110 a 22.5,22.5 0 0 0 -22.5,-22.5 22.5,22.5 0 0 0 -22.5,22.5 v 110 a 22.5,22.5 0 0 1 -22.5,22.5 22.5,22.5 0 0 1 -22.5,-22.5 v -110 a 22.5,22.5 0 0 0 -22.5,-22.5 22.5,22.5 0 0 0 -22.5,22.5 v 110 a 22.5,22.5 0 0 1 -22.5,22.5 z"
         horiz-adv-x="270" />
      <glyph
         glyph-name="l_t_ß"
         unicode="ltß"
         id="glyph24"
         d="M 22.5,900.00002 A 22.5,22.5 0 0 1 0,877.50001 v -655 a 22.5,22.5 0 0 1 22.5,-22.5 22.5,22.5 0 0 1 22.5,22.5 v 455 a 22.5,22.5 0 0 0 22.5,22.5 22.5,22.5 0 0 0 22.500002,-22.5 v -455 a 22.5,22.5 0 0 1 22.499998,-22.5 22.5,22.5 0 0 1 22.5,22.5 v 455 a 22.5,22.5 0 0 0 22.5,22.5 22.5,22.5 0 0 0 22.5,-22.5 V 22.5 A 22.5,22.5 0 0 1 202.5,0 22.5,22.5 0 0 1 225,22.5 v 155.00001 a 22.5,22.5 0 0 0 22.5,22.5 67.5,67.5 0 0 1 67.5,67.5 v 565 A 67.5,67.5 0 0 1 247.5,900.00002 67.5,67.5 0 0 1 180,832.50001 v -65 a 22.5,22.5 0 0 0 -22.5,-22.5 22.5,22.5 0 0 0 -22.5,22.5 v 110 a 22.5,22.5 0 0 1 -22.5,22.50001 22.5,22.5 0 0 1 -22.499998,-22.50001 v -110 a 22.5,22.5 0 0 0 -22.500002,-22.5 22.5,22.5 0 0 0 -22.5,22.5 v 110 a 22.5,22.5 0 0 1 -22.5,22.50001 z m 225,-45.00001 a 22.5,22.5 0 0 0 22.5,-22.5 v -132.5 a 22.5,22.5 0 0 0 -22.5,-22.5 22.5,22.5 0 0 0 -22.5,22.5 v 132.5 a 22.5,22.5 0 0 0 22.5,22.5 z m 0,-222.5 a 22.5,22.5 0 0 0 22.5,-22.5 v -342.5 a 22.5,22.5 0 0 0 -22.5,-22.5 22.5,22.5 0 0 0 -22.5,22.5 v 342.5 a 22.5,22.5 0 0 0 22.5,22.5 z"
         horiz-adv-x="360" />
      <glyph
         glyph-name="l_f_ß"
         unicode="lfß"
         id="glyph25"
         d="m 112.5,900.00001 a 22.5,22.5 0 0 1 -22.5,-22.5 v -155 a 22.5,22.5 0 0 0 -22.5,-22.5 67.5,67.5 0 0 1 -67.5,-67.5 v -365 a 67.5,67.5 0 0 1 67.5,-67.5 67.5,67.5 0 0 1 67.5,67.5 v 410 a 22.5,22.5 0 0 0 22.5,22.5 22.5,22.5 0 0 0 22.5,-22.5 v -455 a 22.5,22.5 0 0 1 22.5,-22.5 22.5,22.5 0 0 1 22.5,22.5 v 455 a 22.5,22.5 0 0 0 22.5,22.5 22.5,22.5 0 0 0 22.5,-22.5 V 22.3945 h 0.01 A 22.5,22.5 0 0 1 292.50196,0 22.5,22.5 0 0 1 314.99414,22.3945 H 315 v 0.078 a 22.5,22.5 0 0 1 0.002,0.027 22.5,22.5 0 0 1 -0.002,0.078 v 154.92251 a 22.5,22.5 0 0 0 22.5,22.5 67.5,67.5 0 0 1 67.5,67.5 h 0.002 v 565 H 405 a 67.5,67.5 0 0 1 -67.49804,67.5 H 247.5 a 67.5,67.5 0 0 1 -67.5,-67.5 v -65 a 22.5,22.5 0 0 0 -22.5,-22.5 22.5,22.5 0 0 0 -22.5,22.5 v 110 a 22.5,22.5 0 0 1 -22.5,22.5 z m 135,-45 a 22.5,22.5 0 0 0 22.5,-22.5 v -65 a 22.5,22.5 0 0 0 -22.5,-22.5 22.5,22.5 0 0 0 -22.5,22.5 v 65 a 22.5,22.5 0 0 0 22.5,22.5 z m 90,0 h 0.002 a 22.5,22.5 0 0 0 22.49804,-22.5 h 0.002 v -565 H 360 a 22.5,22.5 0 0 0 -22.5,-22.5 22.5,22.5 0 0 0 -22.5,22.5 v 342.5 a 22.5,22.5 0 0 0 22.5,22.5 22.5,22.5 0 0 0 22.5,-22.5 v 22.5 45 22.5 a 22.5,22.5 0 0 0 -22.5,-22.5 22.5,22.5 0 0 0 -22.5,22.5 v 132.5 a 22.5,22.5 0 0 0 22.5,22.5 z m -270,-200 a 22.5,22.5 0 0 0 22.5,-22.5 v -365 a 22.5,22.5 0 0 0 -22.5,-22.5 22.5,22.5 0 0 0 -22.5,22.5 v 365 a 22.5,22.5 0 0 0 22.5,22.5 z"
         horiz-adv-x="450" />
      <glyph
         glyph-name="t_t_b"
         unicode="ttb"
         id="glyph26"
         d="m 22.50005,900.00003 a 22.5,22.5 0 0 1 -22.5,-22.5 V 767.47855 a 22.5,22.5 0 0 0 -22.49805,-22.47852 22.5,22.5 0 0 1 -0.002,0 22.5,22.5 0 0 1 -22.5,-22.5 22.5,22.5 0 0 1 22.5,-22.5 22.5,22.5 0 0 1 0.002,0 A 22.5,22.5 0 0 0 5e-5,677.56449 V 222.50003 a 22.5,22.5 0 0 1 22.5,-22.5 22.5,22.5 0 0 1 22.5,22.5 v 655 a 22.5,22.5 0 0 1 -22.5,22.5 z m 90,0 a 22.5,22.5 0 0 1 -22.5,-22.5 V 767.47855 A 22.5,22.5 0 0 0 67.502,745.00003 a 22.5,22.5 0 0 0 -22.5,22.5 v -22.5 -45 -22.5 a 22.5,22.5 0 0 0 22.5,22.5 22.5,22.5 0 0 0 22.49805,-22.43554 V 222.50003 a 22.5,22.5 0 0 1 22.5,-22.5 22.5,22.5 0 0 1 22.5,22.5 v 655 a 22.5,22.5 0 0 1 -22.5,22.5 z m 90.00195,0 a 22.5,22.5 0 0 1 -22.5,-22.5 v -110 a 22.5,22.5 0 0 0 -22.5,-22.5 22.5,22.5 0 0 0 -22.5,22.5 v -22.5 -45 -22.5 a 22.5,22.5 0 0 0 22.5,22.5 22.5,22.5 0 0 0 22.5,-22.5 v -410 a 67.5,67.5 0 0 1 67.5,-67.5 67.5,67.5 0 0 1 67.5,67.5 v 365 a 67.5,67.5 0 0 1 -67.5,67.5 22.5,22.5 0 0 0 -22.5,22.5 v 155 a 22.5,22.5 0 0 1 -22.5,22.5 z m 45,-245 a 22.5,22.5 0 0 0 22.5,-22.5 v -365 a 22.5,22.5 0 0 0 -22.5,-22.5 22.5,22.5 0 0 0 -22.5,22.5 v 365 a 22.5,22.5 0 0 0 22.5,22.5 z"
         horiz-adv-x="360" />
      <glyph
         glyph-name="t_t_h"
         unicode="tth"
         id="glyph27"
         d="M 22.500002,900.00003 A 22.5,22.5 0 0 1 0,877.50003 v -110 a 22.5,22.5 0 0 0 -22.5,-22.5 22.5,22.5 0 0 1 -22.5,-22.5 22.5,22.5 0 0 1 22.5,-22.5 22.5,22.5 0 0 0 22.5,-22.5 v -455 a 22.5,22.5 0 0 1 22.500002,-22.5 22.5,22.5 0 0 1 22.5,22.5 v 455 a 22.5,22.5 0 0 0 22.5,22.5 22.5,22.5 0 0 0 22.5,-22.5 v -455 a 22.5,22.5 0 0 1 22.499998,-22.5 22.5,22.5 0 0 1 22.5,22.5 v 455 a 22.5,22.5 0 0 0 22.5,22.5 22.5,22.5 0 0 0 22.5,-22.5 v -455 a 22.5,22.5 0 0 1 22.5,-22.5 22.5,22.5 0 0 1 22.5,22.5 v 410 a 22.5,22.5 0 0 0 22.5,22.5 22.5,22.5 0 0 0 22.5,-22.5 v -410 a 22.5,22.5 0 0 1 22.5,-22.5 22.5,22.5 0 0 1 22.5,22.5 v 410 a 67.5,67.5 0 0 1 -67.5,67.5 22.5,22.5 0 0 0 -22.5,22.5 v 155 a 22.5,22.5 0 0 1 -22.5,22.5 22.5,22.5 0 0 1 -22.5,-22.5 v -110 a 22.5,22.5 0 0 0 -22.5,-22.5 22.5,22.5 0 0 0 -22.5,22.5 v 110 a 22.5,22.5 0 0 1 -22.5,22.5 22.5,22.5 0 0 1 -22.499998,-22.5 v -110 a 22.5,22.5 0 0 0 -22.5,-22.5 22.5,22.5 0 0 0 -22.5,22.5 v 110 a 22.5,22.5 0 0 1 -22.5,22.5 z"
         horiz-adv-x="360" />
      <glyph
         glyph-name="t_t_k"
         unicode="ttk"
         id="glyph28"
         d="m 22.50005,900.00003 a 22.5,22.5 0 0 1 -22.5,-22.5 V 767.47855 a 22.5,22.5 0 0 0 -22.49805,-22.47852 22.5,22.5 0 0 1 -0.002,0 22.5,22.5 0 0 1 -22.5,-22.5 22.5,22.5 0 0 1 22.5,-22.5 22.5,22.5 0 0 1 0.002,0 A 22.5,22.5 0 0 0 5e-5,677.56449 V 222.50003 a 22.5,22.5 0 0 1 22.5,-22.5 22.5,22.5 0 0 1 22.5,22.5 v 655 a 22.5,22.5 0 0 1 -22.5,22.5 z m 90,0 a 22.5,22.5 0 0 1 -22.5,-22.5 V 767.47855 A 22.5,22.5 0 0 0 67.502,745.00003 a 22.5,22.5 0 0 0 -22.5,22.5 v -22.5 -45 -22.5 a 22.5,22.5 0 0 0 22.5,22.5 22.5,22.5 0 0 0 22.49805,-22.43554 V 222.50003 a 22.5,22.5 0 0 1 22.5,-22.5 22.5,22.5 0 0 1 22.5,22.5 v 655 a 22.5,22.5 0 0 1 -22.5,22.5 z m 90,0 a 22.5,22.5 0 0 1 -22.5,-22.5 V 767.47855 a 22.5,22.5 0 0 0 -22.49805,-22.47852 22.5,22.5 0 0 0 -22.5,22.5 v -22.5 -45 -22.5 a 22.5,22.5 0 0 0 22.5,22.5 22.5,22.5 0 0 0 22.49805,-22.43554 V 222.50003 a 22.5,22.5 0 0 1 22.5,-22.5 22.5,22.5 0 0 1 22.5,22.5 v 182.5 a 22.5,22.5 0 0 0 22.5,22.5 22.5,22.5 0 0 0 22.5,-22.5 v -182.5 a 22.5,22.5 0 0 1 22.5,-22.5 22.5,22.5 0 0 1 22.5,22.5 v 182.5 a 67.5,67.5 0 0 1 -67.5,67.5 22.5,22.5 0 0 0 -22.5,22.5 22.5,22.5 0 0 0 22.5,22.5 67.5,67.5 0 0 1 67.5,67.5 v 92.5 a 22.5,22.5 0 0 1 -22.5,22.5 22.5,22.5 0 0 1 -22.5,-22.5 v -92.5 a 22.5,22.5 0 0 0 -22.5,-22.5 22.5,22.5 0 0 0 -22.5,22.5 v 292.5 a 22.5,22.5 0 0 1 -22.5,22.5 z"
         horiz-adv-x="360" />
      <glyph
         glyph-name="t_t_l"
         unicode="ttl"
         id="glyph29"
         d="M 22.5,900.00003 A 22.5,22.5 0 0 1 5e-7,877.50003 v -110 a 22.5,22.5 0 0 0 -22.5000005,-22.5 22.5,22.5 0 0 1 -22.5,-22.5 22.5,22.5 0 0 1 22.5,-22.5 22.5,22.5 0 0 0 22.5000005,-22.5 v -455 a 22.5,22.5 0 0 1 22.4999995,-22.5 22.5,22.5 0 0 1 22.5,22.5 v 455 a 22.5,22.5 0 0 0 22.5,22.5 22.5,22.5 0 0 0 22.5,-22.5 v -455 a 22.5,22.5 0 0 1 22.5,-22.5 22.5,22.5 0 0 1 22.5,22.5 v 455 a 22.5,22.5 0 0 0 22.5,22.5 22.5,22.5 0 0 0 22.5,-22.5 v -455 a 22.5,22.5 0 0 1 22.5,-22.5 22.5,22.5 0 0 1 22.5,22.5 v 655 a 22.5,22.5 0 0 1 -22.5,22.5 22.5,22.5 0 0 1 -22.5,-22.5 v -110 a 22.5,22.5 0 0 0 -22.5,-22.5 22.5,22.5 0 0 0 -22.5,22.5 v 110 a 22.5,22.5 0 0 1 -22.5,22.5 22.5,22.5 0 0 1 -22.5,-22.5 v -110 a 22.5,22.5 0 0 0 -22.5,-22.5 22.5,22.5 0 0 0 -22.5,22.5 v 110 a 22.5,22.5 0 0 1 -22.5,22.5 z"
         horiz-adv-x="270" />
      <glyph
         glyph-name="t_f_l"
         unicode="tfl"
         id="glyph32"
         d="m 22.5,900.00003 a 22.5,22.5 0 0 1 -22.5,-22.5 v -110 a 22.5,22.5 0 0 0 -22.5,-22.5 22.5,22.5 0 0 1 -22.5,-22.5 22.5,22.5 0 0 1 22.5,-22.5 22.5,22.5 0 0 0 22.5,-22.5 v -455 a 22.5,22.5 0 0 1 22.5,-22.5 22.5,22.5 0 0 1 22.5,22.5 v 455 a 22.5,22.5 0 0 0 22.5,22.5 22.5,22.5 0 0 0 22.5,-22.5 v -455 a 22.5,22.5 0 0 1 22.5,-22.5 22.5,22.5 0 0 1 22.5,22.5 v 455 a 22.5,22.5 0 0 0 22.5,22.5 22.5,22.5 0 0 0 22.5,-22.5 v -455 a 22.5,22.5 0 0 1 22.5,-22.5 22.5,22.5 0 0 1 22.5,22.5 v 610 a 67.5,67.5 0 0 1 -67.5,67.5 67.5,67.5 0 0 1 -67.5,-67.5 v -65 a 22.5,22.5 0 0 0 -22.5,-22.5 22.5,22.5 0 0 0 -22.5,22.5 v 110 a 22.5,22.5 0 0 1 -22.5,22.5 z m 135,-45 a 22.5,22.5 0 0 0 22.5,-22.5 v -65 a 22.5,22.5 0 0 0 -22.5,-22.5 22.5,22.5 0 0 0 -22.5,22.5 v 65 a 22.5,22.5 0 0 0 22.5,22.5 z"
         horiz-adv-x="270" />
    </font>
</defs>
</svg>
